ISO-10303-21;
HEADER;
/* Generated by software containing ST-Developer
 * from STEP Tools, Inc. (www.steptools.com) 
 */

FILE_DESCRIPTION(
/* description */ (''),
/* implementation_level */ '2;1');

FILE_NAME(
/* name */ 'lower_case.step',
/* author */ (''),
/* organization */ (''),
/* preprocessor_version */ 'ST-DEVELOPER v20.2',
/* originating_system */ 'Autodesk Translation Framework v15.15.0.0',
/* authorisation */ '');

FILE_SCHEMA (('AUTOMOTIVE_DESIGN { 1 0 10303 214 3 1 1 }'));
ENDSEC;

DATA;
#10=MECHANICAL_DESIGN_GEOMETRIC_PRESENTATION_REPRESENTATION('',(#13),#1269);
#11=SHAPE_REPRESENTATION_RELATIONSHIP('SRR','None',#1276,#12);
#12=ADVANCED_BREP_SHAPE_REPRESENTATION('',(#14),#1268);
#13=STYLED_ITEM('',(#1285),#14);
#14=MANIFOLD_SOLID_BREP('Lower Case body',#805);
#15=FACE_BOUND('',#86,.T.);
#16=FACE_BOUND('',#89,.T.);
#17=FACE_BOUND('',#90,.T.);
#18=FACE_BOUND('',#93,.T.);
#19=FACE_BOUND('',#96,.T.);
#20=FACE_BOUND('',#100,.T.);
#21=FACE_BOUND('',#103,.T.);
#22=FACE_BOUND('',#104,.T.);
#23=FACE_BOUND('',#107,.T.);
#24=FACE_BOUND('',#110,.T.);
#25=FACE_BOUND('',#113,.T.);
#26=FACE_OUTER_BOUND('',#65,.T.);
#27=FACE_OUTER_BOUND('',#66,.T.);
#28=FACE_OUTER_BOUND('',#67,.T.);
#29=FACE_OUTER_BOUND('',#68,.T.);
#30=FACE_OUTER_BOUND('',#69,.T.);
#31=FACE_OUTER_BOUND('',#70,.T.);
#32=FACE_OUTER_BOUND('',#71,.T.);
#33=FACE_OUTER_BOUND('',#72,.T.);
#34=FACE_OUTER_BOUND('',#73,.T.);
#35=FACE_OUTER_BOUND('',#74,.T.);
#36=FACE_OUTER_BOUND('',#75,.T.);
#37=FACE_OUTER_BOUND('',#76,.T.);
#38=FACE_OUTER_BOUND('',#77,.T.);
#39=FACE_OUTER_BOUND('',#78,.T.);
#40=FACE_OUTER_BOUND('',#79,.T.);
#41=FACE_OUTER_BOUND('',#80,.T.);
#42=FACE_OUTER_BOUND('',#81,.T.);
#43=FACE_OUTER_BOUND('',#82,.T.);
#44=FACE_OUTER_BOUND('',#83,.T.);
#45=FACE_OUTER_BOUND('',#84,.T.);
#46=FACE_OUTER_BOUND('',#85,.T.);
#47=FACE_OUTER_BOUND('',#87,.T.);
#48=FACE_OUTER_BOUND('',#88,.T.);
#49=FACE_OUTER_BOUND('',#91,.T.);
#50=FACE_OUTER_BOUND('',#92,.T.);
#51=FACE_OUTER_BOUND('',#94,.T.);
#52=FACE_OUTER_BOUND('',#95,.T.);
#53=FACE_OUTER_BOUND('',#97,.T.);
#54=FACE_OUTER_BOUND('',#98,.T.);
#55=FACE_OUTER_BOUND('',#99,.T.);
#56=FACE_OUTER_BOUND('',#101,.T.);
#57=FACE_OUTER_BOUND('',#102,.T.);
#58=FACE_OUTER_BOUND('',#105,.T.);
#59=FACE_OUTER_BOUND('',#106,.T.);
#60=FACE_OUTER_BOUND('',#108,.T.);
#61=FACE_OUTER_BOUND('',#109,.T.);
#62=FACE_OUTER_BOUND('',#111,.T.);
#63=FACE_OUTER_BOUND('',#112,.T.);
#64=FACE_OUTER_BOUND('',#114,.T.);
#65=EDGE_LOOP('',(#511,#512,#513,#514));
#66=EDGE_LOOP('',(#515,#516,#517,#518));
#67=EDGE_LOOP('',(#519,#520,#521,#522));
#68=EDGE_LOOP('',(#523,#524,#525,#526));
#69=EDGE_LOOP('',(#527,#528,#529,#530));
#70=EDGE_LOOP('',(#531,#532,#533,#534));
#71=EDGE_LOOP('',(#535,#536,#537,#538));
#72=EDGE_LOOP('',(#539,#540,#541,#542));
#73=EDGE_LOOP('',(#543,#544,#545,#546));
#74=EDGE_LOOP('',(#547,#548,#549,#550));
#75=EDGE_LOOP('',(#551,#552,#553,#554));
#76=EDGE_LOOP('',(#555,#556,#557,#558));
#77=EDGE_LOOP('',(#559,#560,#561,#562));
#78=EDGE_LOOP('',(#563,#564,#565,#566));
#79=EDGE_LOOP('',(#567,#568,#569,#570));
#80=EDGE_LOOP('',(#571,#572,#573,#574));
#81=EDGE_LOOP('',(#575,#576,#577,#578));
#82=EDGE_LOOP('',(#579,#580,#581,#582));
#83=EDGE_LOOP('',(#583,#584,#585,#586));
#84=EDGE_LOOP('',(#587,#588,#589,#590));
#85=EDGE_LOOP('',(#591,#592,#593,#594));
#86=EDGE_LOOP('',(#595,#596,#597,#598));
#87=EDGE_LOOP('',(#599,#600,#601,#602));
#88=EDGE_LOOP('',(#603,#604,#605,#606));
#89=EDGE_LOOP('',(#607,#608,#609,#610));
#90=EDGE_LOOP('',(#611,#612,#613,#614));
#91=EDGE_LOOP('',(#615,#616,#617,#618));
#92=EDGE_LOOP('',(#619,#620,#621,#622));
#93=EDGE_LOOP('',(#623,#624,#625,#626));
#94=EDGE_LOOP('',(#627,#628,#629,#630));
#95=EDGE_LOOP('',(#631,#632,#633,#634));
#96=EDGE_LOOP('',(#635,#636,#637,#638));
#97=EDGE_LOOP('',(#639,#640,#641,#642));
#98=EDGE_LOOP('',(#643,#644,#645,#646,#647,#648,#649,#650));
#99=EDGE_LOOP('',(#651,#652,#653,#654));
#100=EDGE_LOOP('',(#655,#656,#657,#658));
#101=EDGE_LOOP('',(#659,#660,#661,#662));
#102=EDGE_LOOP('',(#663,#664,#665,#666));
#103=EDGE_LOOP('',(#667,#668,#669,#670));
#104=EDGE_LOOP('',(#671,#672,#673,#674));
#105=EDGE_LOOP('',(#675,#676,#677,#678));
#106=EDGE_LOOP('',(#679,#680,#681,#682));
#107=EDGE_LOOP('',(#683,#684,#685,#686));
#108=EDGE_LOOP('',(#687,#688,#689,#690));
#109=EDGE_LOOP('',(#691,#692,#693,#694));
#110=EDGE_LOOP('',(#695,#696,#697,#698));
#111=EDGE_LOOP('',(#699,#700,#701,#702));
#112=EDGE_LOOP('',(#703,#704,#705,#706,#707,#708,#709,#710));
#113=EDGE_LOOP('',(#711,#712,#713,#714,#715,#716,#717,#718));
#114=EDGE_LOOP('',(#719,#720,#721,#722,#723,#724,#725,#726));
#115=LINE('',#1050,#223);
#116=LINE('',#1052,#224);
#117=LINE('',#1054,#225);
#118=LINE('',#1055,#226);
#119=LINE('',#1058,#227);
#120=LINE('',#1060,#228);
#121=LINE('',#1061,#229);
#122=LINE('',#1064,#230);
#123=LINE('',#1066,#231);
#124=LINE('',#1067,#232);
#125=LINE('',#1069,#233);
#126=LINE('',#1070,#234);
#127=LINE('',#1074,#235);
#128=LINE('',#1076,#236);
#129=LINE('',#1078,#237);
#130=LINE('',#1079,#238);
#131=LINE('',#1082,#239);
#132=LINE('',#1084,#240);
#133=LINE('',#1085,#241);
#134=LINE('',#1088,#242);
#135=LINE('',#1090,#243);
#136=LINE('',#1091,#244);
#137=LINE('',#1093,#245);
#138=LINE('',#1094,#246);
#139=LINE('',#1098,#247);
#140=LINE('',#1100,#248);
#141=LINE('',#1102,#249);
#142=LINE('',#1103,#250);
#143=LINE('',#1106,#251);
#144=LINE('',#1108,#252);
#145=LINE('',#1109,#253);
#146=LINE('',#1112,#254);
#147=LINE('',#1114,#255);
#148=LINE('',#1115,#256);
#149=LINE('',#1117,#257);
#150=LINE('',#1118,#258);
#151=LINE('',#1122,#259);
#152=LINE('',#1124,#260);
#153=LINE('',#1126,#261);
#154=LINE('',#1127,#262);
#155=LINE('',#1130,#263);
#156=LINE('',#1132,#264);
#157=LINE('',#1133,#265);
#158=LINE('',#1136,#266);
#159=LINE('',#1138,#267);
#160=LINE('',#1139,#268);
#161=LINE('',#1141,#269);
#162=LINE('',#1142,#270);
#163=LINE('',#1146,#271);
#164=LINE('',#1148,#272);
#165=LINE('',#1150,#273);
#166=LINE('',#1151,#274);
#167=LINE('',#1154,#275);
#168=LINE('',#1156,#276);
#169=LINE('',#1157,#277);
#170=LINE('',#1160,#278);
#171=LINE('',#1162,#279);
#172=LINE('',#1163,#280);
#173=LINE('',#1165,#281);
#174=LINE('',#1166,#282);
#175=LINE('',#1170,#283);
#176=LINE('',#1172,#284);
#177=LINE('',#1174,#285);
#178=LINE('',#1175,#286);
#179=LINE('',#1178,#287);
#180=LINE('',#1180,#288);
#181=LINE('',#1181,#289);
#182=LINE('',#1184,#290);
#183=LINE('',#1186,#291);
#184=LINE('',#1187,#292);
#185=LINE('',#1190,#293);
#186=LINE('',#1192,#294);
#187=LINE('',#1193,#295);
#188=LINE('',#1196,#296);
#189=LINE('',#1198,#297);
#190=LINE('',#1199,#298);
#191=LINE('',#1202,#299);
#192=LINE('',#1204,#300);
#193=LINE('',#1205,#301);
#194=LINE('',#1208,#302);
#195=LINE('',#1210,#303);
#196=LINE('',#1211,#304);
#197=LINE('',#1213,#305);
#198=LINE('',#1214,#306);
#199=LINE('',#1219,#307);
#200=LINE('',#1221,#308);
#201=LINE('',#1223,#309);
#202=LINE('',#1224,#310);
#203=LINE('',#1227,#311);
#204=LINE('',#1229,#312);
#205=LINE('',#1230,#313);
#206=LINE('',#1233,#314);
#207=LINE('',#1235,#315);
#208=LINE('',#1236,#316);
#209=LINE('',#1239,#317);
#210=LINE('',#1241,#318);
#211=LINE('',#1242,#319);
#212=LINE('',#1245,#320);
#213=LINE('',#1247,#321);
#214=LINE('',#1248,#322);
#215=LINE('',#1251,#323);
#216=LINE('',#1253,#324);
#217=LINE('',#1254,#325);
#218=LINE('',#1257,#326);
#219=LINE('',#1259,#327);
#220=LINE('',#1260,#328);
#221=LINE('',#1262,#329);
#222=LINE('',#1263,#330);
#223=VECTOR('',#862,10.);
#224=VECTOR('',#863,10.);
#225=VECTOR('',#864,10.);
#226=VECTOR('',#865,10.);
#227=VECTOR('',#868,10.);
#228=VECTOR('',#869,10.);
#229=VECTOR('',#870,10.);
#230=VECTOR('',#873,10.);
#231=VECTOR('',#874,10.);
#232=VECTOR('',#875,10.);
#233=VECTOR('',#878,10.);
#234=VECTOR('',#879,10.);
#235=VECTOR('',#882,10.);
#236=VECTOR('',#883,10.);
#237=VECTOR('',#884,10.);
#238=VECTOR('',#885,10.);
#239=VECTOR('',#888,10.);
#240=VECTOR('',#889,10.);
#241=VECTOR('',#890,10.);
#242=VECTOR('',#893,10.);
#243=VECTOR('',#894,10.);
#244=VECTOR('',#895,10.);
#245=VECTOR('',#898,10.);
#246=VECTOR('',#899,10.);
#247=VECTOR('',#902,10.);
#248=VECTOR('',#903,10.);
#249=VECTOR('',#904,10.);
#250=VECTOR('',#905,10.);
#251=VECTOR('',#908,10.);
#252=VECTOR('',#909,10.);
#253=VECTOR('',#910,10.);
#254=VECTOR('',#913,10.);
#255=VECTOR('',#914,10.);
#256=VECTOR('',#915,10.);
#257=VECTOR('',#918,10.);
#258=VECTOR('',#919,10.);
#259=VECTOR('',#922,10.);
#260=VECTOR('',#923,10.);
#261=VECTOR('',#924,10.);
#262=VECTOR('',#925,10.);
#263=VECTOR('',#928,10.);
#264=VECTOR('',#929,10.);
#265=VECTOR('',#930,10.);
#266=VECTOR('',#933,10.);
#267=VECTOR('',#934,10.);
#268=VECTOR('',#935,10.);
#269=VECTOR('',#938,10.);
#270=VECTOR('',#939,10.);
#271=VECTOR('',#942,10.);
#272=VECTOR('',#943,10.);
#273=VECTOR('',#944,10.);
#274=VECTOR('',#945,10.);
#275=VECTOR('',#948,10.);
#276=VECTOR('',#949,10.);
#277=VECTOR('',#950,10.);
#278=VECTOR('',#953,10.);
#279=VECTOR('',#954,10.);
#280=VECTOR('',#955,10.);
#281=VECTOR('',#958,10.);
#282=VECTOR('',#959,10.);
#283=VECTOR('',#962,10.);
#284=VECTOR('',#963,10.);
#285=VECTOR('',#964,10.);
#286=VECTOR('',#965,10.);
#287=VECTOR('',#968,10.);
#288=VECTOR('',#969,10.);
#289=VECTOR('',#970,10.);
#290=VECTOR('',#973,10.);
#291=VECTOR('',#974,10.);
#292=VECTOR('',#975,10.);
#293=VECTOR('',#978,10.);
#294=VECTOR('',#979,10.);
#295=VECTOR('',#980,10.);
#296=VECTOR('',#983,10.);
#297=VECTOR('',#984,10.);
#298=VECTOR('',#985,10.);
#299=VECTOR('',#988,10.);
#300=VECTOR('',#989,10.);
#301=VECTOR('',#990,10.);
#302=VECTOR('',#993,10.);
#303=VECTOR('',#994,10.);
#304=VECTOR('',#995,10.);
#305=VECTOR('',#998,10.);
#306=VECTOR('',#999,10.);
#307=VECTOR('',#1004,10.);
#308=VECTOR('',#1005,10.);
#309=VECTOR('',#1006,10.);
#310=VECTOR('',#1007,10.);
#311=VECTOR('',#1010,10.);
#312=VECTOR('',#1011,10.);
#313=VECTOR('',#1012,10.);
#314=VECTOR('',#1015,10.);
#315=VECTOR('',#1016,10.);
#316=VECTOR('',#1017,10.);
#317=VECTOR('',#1020,10.);
#318=VECTOR('',#1021,10.);
#319=VECTOR('',#1022,10.);
#320=VECTOR('',#1025,10.);
#321=VECTOR('',#1026,10.);
#322=VECTOR('',#1027,10.);
#323=VECTOR('',#1030,10.);
#324=VECTOR('',#1031,10.);
#325=VECTOR('',#1032,10.);
#326=VECTOR('',#1035,10.);
#327=VECTOR('',#1036,10.);
#328=VECTOR('',#1037,10.);
#329=VECTOR('',#1040,10.);
#330=VECTOR('',#1041,10.);
#331=VERTEX_POINT('',#1048);
#332=VERTEX_POINT('',#1049);
#333=VERTEX_POINT('',#1051);
#334=VERTEX_POINT('',#1053);
#335=VERTEX_POINT('',#1057);
#336=VERTEX_POINT('',#1059);
#337=VERTEX_POINT('',#1063);
#338=VERTEX_POINT('',#1065);
#339=VERTEX_POINT('',#1072);
#340=VERTEX_POINT('',#1073);
#341=VERTEX_POINT('',#1075);
#342=VERTEX_POINT('',#1077);
#343=VERTEX_POINT('',#1081);
#344=VERTEX_POINT('',#1083);
#345=VERTEX_POINT('',#1087);
#346=VERTEX_POINT('',#1089);
#347=VERTEX_POINT('',#1096);
#348=VERTEX_POINT('',#1097);
#349=VERTEX_POINT('',#1099);
#350=VERTEX_POINT('',#1101);
#351=VERTEX_POINT('',#1105);
#352=VERTEX_POINT('',#1107);
#353=VERTEX_POINT('',#1111);
#354=VERTEX_POINT('',#1113);
#355=VERTEX_POINT('',#1120);
#356=VERTEX_POINT('',#1121);
#357=VERTEX_POINT('',#1123);
#358=VERTEX_POINT('',#1125);
#359=VERTEX_POINT('',#1129);
#360=VERTEX_POINT('',#1131);
#361=VERTEX_POINT('',#1135);
#362=VERTEX_POINT('',#1137);
#363=VERTEX_POINT('',#1144);
#364=VERTEX_POINT('',#1145);
#365=VERTEX_POINT('',#1147);
#366=VERTEX_POINT('',#1149);
#367=VERTEX_POINT('',#1153);
#368=VERTEX_POINT('',#1155);
#369=VERTEX_POINT('',#1159);
#370=VERTEX_POINT('',#1161);
#371=VERTEX_POINT('',#1168);
#372=VERTEX_POINT('',#1169);
#373=VERTEX_POINT('',#1171);
#374=VERTEX_POINT('',#1173);
#375=VERTEX_POINT('',#1177);
#376=VERTEX_POINT('',#1179);
#377=VERTEX_POINT('',#1183);
#378=VERTEX_POINT('',#1185);
#379=VERTEX_POINT('',#1189);
#380=VERTEX_POINT('',#1191);
#381=VERTEX_POINT('',#1195);
#382=VERTEX_POINT('',#1197);
#383=VERTEX_POINT('',#1201);
#384=VERTEX_POINT('',#1203);
#385=VERTEX_POINT('',#1207);
#386=VERTEX_POINT('',#1209);
#387=VERTEX_POINT('',#1217);
#388=VERTEX_POINT('',#1218);
#389=VERTEX_POINT('',#1220);
#390=VERTEX_POINT('',#1222);
#391=VERTEX_POINT('',#1226);
#392=VERTEX_POINT('',#1228);
#393=VERTEX_POINT('',#1232);
#394=VERTEX_POINT('',#1234);
#395=VERTEX_POINT('',#1238);
#396=VERTEX_POINT('',#1240);
#397=VERTEX_POINT('',#1244);
#398=VERTEX_POINT('',#1246);
#399=VERTEX_POINT('',#1250);
#400=VERTEX_POINT('',#1252);
#401=VERTEX_POINT('',#1256);
#402=VERTEX_POINT('',#1258);
#403=EDGE_CURVE('',#331,#332,#115,.T.);
#404=EDGE_CURVE('',#331,#333,#116,.T.);
#405=EDGE_CURVE('',#334,#333,#117,.T.);
#406=EDGE_CURVE('',#332,#334,#118,.T.);
#407=EDGE_CURVE('',#332,#335,#119,.T.);
#408=EDGE_CURVE('',#336,#334,#120,.T.);
#409=EDGE_CURVE('',#335,#336,#121,.T.);
#410=EDGE_CURVE('',#335,#337,#122,.T.);
#411=EDGE_CURVE('',#338,#336,#123,.T.);
#412=EDGE_CURVE('',#337,#338,#124,.T.);
#413=EDGE_CURVE('',#337,#331,#125,.T.);
#414=EDGE_CURVE('',#333,#338,#126,.T.);
#415=EDGE_CURVE('',#339,#340,#127,.T.);
#416=EDGE_CURVE('',#339,#341,#128,.T.);
#417=EDGE_CURVE('',#342,#341,#129,.T.);
#418=EDGE_CURVE('',#340,#342,#130,.T.);
#419=EDGE_CURVE('',#340,#343,#131,.T.);
#420=EDGE_CURVE('',#344,#342,#132,.T.);
#421=EDGE_CURVE('',#343,#344,#133,.T.);
#422=EDGE_CURVE('',#343,#345,#134,.T.);
#423=EDGE_CURVE('',#346,#344,#135,.T.);
#424=EDGE_CURVE('',#345,#346,#136,.T.);
#425=EDGE_CURVE('',#345,#339,#137,.T.);
#426=EDGE_CURVE('',#341,#346,#138,.T.);
#427=EDGE_CURVE('',#347,#348,#139,.T.);
#428=EDGE_CURVE('',#347,#349,#140,.T.);
#429=EDGE_CURVE('',#350,#349,#141,.T.);
#430=EDGE_CURVE('',#348,#350,#142,.T.);
#431=EDGE_CURVE('',#348,#351,#143,.T.);
#432=EDGE_CURVE('',#352,#350,#144,.T.);
#433=EDGE_CURVE('',#351,#352,#145,.T.);
#434=EDGE_CURVE('',#351,#353,#146,.T.);
#435=EDGE_CURVE('',#354,#352,#147,.T.);
#436=EDGE_CURVE('',#353,#354,#148,.T.);
#437=EDGE_CURVE('',#353,#347,#149,.T.);
#438=EDGE_CURVE('',#349,#354,#150,.T.);
#439=EDGE_CURVE('',#355,#356,#151,.T.);
#440=EDGE_CURVE('',#355,#357,#152,.T.);
#441=EDGE_CURVE('',#358,#357,#153,.T.);
#442=EDGE_CURVE('',#356,#358,#154,.T.);
#443=EDGE_CURVE('',#356,#359,#155,.T.);
#444=EDGE_CURVE('',#360,#358,#156,.T.);
#445=EDGE_CURVE('',#359,#360,#157,.T.);
#446=EDGE_CURVE('',#359,#361,#158,.T.);
#447=EDGE_CURVE('',#362,#360,#159,.T.);
#448=EDGE_CURVE('',#361,#362,#160,.T.);
#449=EDGE_CURVE('',#361,#355,#161,.T.);
#450=EDGE_CURVE('',#357,#362,#162,.T.);
#451=EDGE_CURVE('',#363,#364,#163,.T.);
#452=EDGE_CURVE('',#363,#365,#164,.T.);
#453=EDGE_CURVE('',#366,#365,#165,.T.);
#454=EDGE_CURVE('',#364,#366,#166,.T.);
#455=EDGE_CURVE('',#364,#367,#167,.T.);
#456=EDGE_CURVE('',#368,#366,#168,.T.);
#457=EDGE_CURVE('',#367,#368,#169,.T.);
#458=EDGE_CURVE('',#367,#369,#170,.T.);
#459=EDGE_CURVE('',#370,#368,#171,.T.);
#460=EDGE_CURVE('',#369,#370,#172,.T.);
#461=EDGE_CURVE('',#369,#363,#173,.T.);
#462=EDGE_CURVE('',#365,#370,#174,.T.);
#463=EDGE_CURVE('',#371,#372,#175,.F.);
#464=EDGE_CURVE('',#371,#373,#176,.F.);
#465=EDGE_CURVE('',#374,#373,#177,.T.);
#466=EDGE_CURVE('',#372,#374,#178,.T.);
#467=EDGE_CURVE('',#375,#371,#179,.F.);
#468=EDGE_CURVE('',#375,#376,#180,.F.);
#469=EDGE_CURVE('',#373,#376,#181,.T.);
#470=EDGE_CURVE('',#377,#375,#182,.F.);
#471=EDGE_CURVE('',#377,#378,#183,.F.);
#472=EDGE_CURVE('',#376,#378,#184,.T.);
#473=EDGE_CURVE('',#379,#377,#185,.F.);
#474=EDGE_CURVE('',#379,#380,#186,.F.);
#475=EDGE_CURVE('',#378,#380,#187,.T.);
#476=EDGE_CURVE('',#381,#379,#188,.F.);
#477=EDGE_CURVE('',#381,#382,#189,.F.);
#478=EDGE_CURVE('',#380,#382,#190,.T.);
#479=EDGE_CURVE('',#383,#381,#191,.F.);
#480=EDGE_CURVE('',#383,#384,#192,.F.);
#481=EDGE_CURVE('',#382,#384,#193,.T.);
#482=EDGE_CURVE('',#385,#383,#194,.F.);
#483=EDGE_CURVE('',#385,#386,#195,.F.);
#484=EDGE_CURVE('',#384,#386,#196,.T.);
#485=EDGE_CURVE('',#372,#385,#197,.F.);
#486=EDGE_CURVE('',#386,#374,#198,.T.);
#487=EDGE_CURVE('',#387,#388,#199,.T.);
#488=EDGE_CURVE('',#388,#389,#200,.T.);
#489=EDGE_CURVE('',#390,#389,#201,.T.);
#490=EDGE_CURVE('',#387,#390,#202,.T.);
#491=EDGE_CURVE('',#391,#387,#203,.T.);
#492=EDGE_CURVE('',#392,#390,#204,.T.);
#493=EDGE_CURVE('',#391,#392,#205,.T.);
#494=EDGE_CURVE('',#393,#391,#206,.T.);
#495=EDGE_CURVE('',#394,#392,#207,.T.);
#496=EDGE_CURVE('',#393,#394,#208,.T.);
#497=EDGE_CURVE('',#395,#393,#209,.T.);
#498=EDGE_CURVE('',#396,#394,#210,.T.);
#499=EDGE_CURVE('',#395,#396,#211,.T.);
#500=EDGE_CURVE('',#397,#395,#212,.T.);
#501=EDGE_CURVE('',#398,#396,#213,.T.);
#502=EDGE_CURVE('',#397,#398,#214,.T.);
#503=EDGE_CURVE('',#399,#397,#215,.T.);
#504=EDGE_CURVE('',#400,#398,#216,.T.);
#505=EDGE_CURVE('',#399,#400,#217,.T.);
#506=EDGE_CURVE('',#401,#399,#218,.T.);
#507=EDGE_CURVE('',#402,#400,#219,.T.);
#508=EDGE_CURVE('',#401,#402,#220,.T.);
#509=EDGE_CURVE('',#388,#401,#221,.T.);
#510=EDGE_CURVE('',#389,#402,#222,.T.);
#511=ORIENTED_EDGE('',*,*,#403,.F.);
#512=ORIENTED_EDGE('',*,*,#404,.T.);
#513=ORIENTED_EDGE('',*,*,#405,.F.);
#514=ORIENTED_EDGE('',*,*,#406,.F.);
#515=ORIENTED_EDGE('',*,*,#407,.F.);
#516=ORIENTED_EDGE('',*,*,#406,.T.);
#517=ORIENTED_EDGE('',*,*,#408,.F.);
#518=ORIENTED_EDGE('',*,*,#409,.F.);
#519=ORIENTED_EDGE('',*,*,#410,.F.);
#520=ORIENTED_EDGE('',*,*,#409,.T.);
#521=ORIENTED_EDGE('',*,*,#411,.F.);
#522=ORIENTED_EDGE('',*,*,#412,.F.);
#523=ORIENTED_EDGE('',*,*,#413,.F.);
#524=ORIENTED_EDGE('',*,*,#412,.T.);
#525=ORIENTED_EDGE('',*,*,#414,.F.);
#526=ORIENTED_EDGE('',*,*,#404,.F.);
#527=ORIENTED_EDGE('',*,*,#415,.F.);
#528=ORIENTED_EDGE('',*,*,#416,.T.);
#529=ORIENTED_EDGE('',*,*,#417,.F.);
#530=ORIENTED_EDGE('',*,*,#418,.F.);
#531=ORIENTED_EDGE('',*,*,#419,.F.);
#532=ORIENTED_EDGE('',*,*,#418,.T.);
#533=ORIENTED_EDGE('',*,*,#420,.F.);
#534=ORIENTED_EDGE('',*,*,#421,.F.);
#535=ORIENTED_EDGE('',*,*,#422,.F.);
#536=ORIENTED_EDGE('',*,*,#421,.T.);
#537=ORIENTED_EDGE('',*,*,#423,.F.);
#538=ORIENTED_EDGE('',*,*,#424,.F.);
#539=ORIENTED_EDGE('',*,*,#425,.F.);
#540=ORIENTED_EDGE('',*,*,#424,.T.);
#541=ORIENTED_EDGE('',*,*,#426,.F.);
#542=ORIENTED_EDGE('',*,*,#416,.F.);
#543=ORIENTED_EDGE('',*,*,#427,.F.);
#544=ORIENTED_EDGE('',*,*,#428,.T.);
#545=ORIENTED_EDGE('',*,*,#429,.F.);
#546=ORIENTED_EDGE('',*,*,#430,.F.);
#547=ORIENTED_EDGE('',*,*,#431,.F.);
#548=ORIENTED_EDGE('',*,*,#430,.T.);
#549=ORIENTED_EDGE('',*,*,#432,.F.);
#550=ORIENTED_EDGE('',*,*,#433,.F.);
#551=ORIENTED_EDGE('',*,*,#434,.F.);
#552=ORIENTED_EDGE('',*,*,#433,.T.);
#553=ORIENTED_EDGE('',*,*,#435,.F.);
#554=ORIENTED_EDGE('',*,*,#436,.F.);
#555=ORIENTED_EDGE('',*,*,#437,.F.);
#556=ORIENTED_EDGE('',*,*,#436,.T.);
#557=ORIENTED_EDGE('',*,*,#438,.F.);
#558=ORIENTED_EDGE('',*,*,#428,.F.);
#559=ORIENTED_EDGE('',*,*,#439,.F.);
#560=ORIENTED_EDGE('',*,*,#440,.T.);
#561=ORIENTED_EDGE('',*,*,#441,.F.);
#562=ORIENTED_EDGE('',*,*,#442,.F.);
#563=ORIENTED_EDGE('',*,*,#443,.F.);
#564=ORIENTED_EDGE('',*,*,#442,.T.);
#565=ORIENTED_EDGE('',*,*,#444,.F.);
#566=ORIENTED_EDGE('',*,*,#445,.F.);
#567=ORIENTED_EDGE('',*,*,#446,.F.);
#568=ORIENTED_EDGE('',*,*,#445,.T.);
#569=ORIENTED_EDGE('',*,*,#447,.F.);
#570=ORIENTED_EDGE('',*,*,#448,.F.);
#571=ORIENTED_EDGE('',*,*,#449,.F.);
#572=ORIENTED_EDGE('',*,*,#448,.T.);
#573=ORIENTED_EDGE('',*,*,#450,.F.);
#574=ORIENTED_EDGE('',*,*,#440,.F.);
#575=ORIENTED_EDGE('',*,*,#451,.F.);
#576=ORIENTED_EDGE('',*,*,#452,.T.);
#577=ORIENTED_EDGE('',*,*,#453,.F.);
#578=ORIENTED_EDGE('',*,*,#454,.F.);
#579=ORIENTED_EDGE('',*,*,#455,.F.);
#580=ORIENTED_EDGE('',*,*,#454,.T.);
#581=ORIENTED_EDGE('',*,*,#456,.F.);
#582=ORIENTED_EDGE('',*,*,#457,.F.);
#583=ORIENTED_EDGE('',*,*,#458,.F.);
#584=ORIENTED_EDGE('',*,*,#457,.T.);
#585=ORIENTED_EDGE('',*,*,#459,.F.);
#586=ORIENTED_EDGE('',*,*,#460,.F.);
#587=ORIENTED_EDGE('',*,*,#461,.F.);
#588=ORIENTED_EDGE('',*,*,#460,.T.);
#589=ORIENTED_EDGE('',*,*,#462,.F.);
#590=ORIENTED_EDGE('',*,*,#452,.F.);
#591=ORIENTED_EDGE('',*,*,#463,.F.);
#592=ORIENTED_EDGE('',*,*,#464,.T.);
#593=ORIENTED_EDGE('',*,*,#465,.F.);
#594=ORIENTED_EDGE('',*,*,#466,.F.);
#595=ORIENTED_EDGE('',*,*,#458,.T.);
#596=ORIENTED_EDGE('',*,*,#461,.T.);
#597=ORIENTED_EDGE('',*,*,#451,.T.);
#598=ORIENTED_EDGE('',*,*,#455,.T.);
#599=ORIENTED_EDGE('',*,*,#467,.F.);
#600=ORIENTED_EDGE('',*,*,#468,.T.);
#601=ORIENTED_EDGE('',*,*,#469,.F.);
#602=ORIENTED_EDGE('',*,*,#464,.F.);
#603=ORIENTED_EDGE('',*,*,#470,.F.);
#604=ORIENTED_EDGE('',*,*,#471,.T.);
#605=ORIENTED_EDGE('',*,*,#472,.F.);
#606=ORIENTED_EDGE('',*,*,#468,.F.);
#607=ORIENTED_EDGE('',*,*,#410,.T.);
#608=ORIENTED_EDGE('',*,*,#413,.T.);
#609=ORIENTED_EDGE('',*,*,#403,.T.);
#610=ORIENTED_EDGE('',*,*,#407,.T.);
#611=ORIENTED_EDGE('',*,*,#446,.T.);
#612=ORIENTED_EDGE('',*,*,#449,.T.);
#613=ORIENTED_EDGE('',*,*,#439,.T.);
#614=ORIENTED_EDGE('',*,*,#443,.T.);
#615=ORIENTED_EDGE('',*,*,#473,.F.);
#616=ORIENTED_EDGE('',*,*,#474,.T.);
#617=ORIENTED_EDGE('',*,*,#475,.F.);
#618=ORIENTED_EDGE('',*,*,#471,.F.);
#619=ORIENTED_EDGE('',*,*,#476,.F.);
#620=ORIENTED_EDGE('',*,*,#477,.T.);
#621=ORIENTED_EDGE('',*,*,#478,.F.);
#622=ORIENTED_EDGE('',*,*,#474,.F.);
#623=ORIENTED_EDGE('',*,*,#422,.T.);
#624=ORIENTED_EDGE('',*,*,#425,.T.);
#625=ORIENTED_EDGE('',*,*,#415,.T.);
#626=ORIENTED_EDGE('',*,*,#419,.T.);
#627=ORIENTED_EDGE('',*,*,#479,.F.);
#628=ORIENTED_EDGE('',*,*,#480,.T.);
#629=ORIENTED_EDGE('',*,*,#481,.F.);
#630=ORIENTED_EDGE('',*,*,#477,.F.);
#631=ORIENTED_EDGE('',*,*,#482,.F.);
#632=ORIENTED_EDGE('',*,*,#483,.T.);
#633=ORIENTED_EDGE('',*,*,#484,.F.);
#634=ORIENTED_EDGE('',*,*,#480,.F.);
#635=ORIENTED_EDGE('',*,*,#434,.T.);
#636=ORIENTED_EDGE('',*,*,#437,.T.);
#637=ORIENTED_EDGE('',*,*,#427,.T.);
#638=ORIENTED_EDGE('',*,*,#431,.T.);
#639=ORIENTED_EDGE('',*,*,#485,.F.);
#640=ORIENTED_EDGE('',*,*,#466,.T.);
#641=ORIENTED_EDGE('',*,*,#486,.F.);
#642=ORIENTED_EDGE('',*,*,#483,.F.);
#643=ORIENTED_EDGE('',*,*,#485,.T.);
#644=ORIENTED_EDGE('',*,*,#482,.T.);
#645=ORIENTED_EDGE('',*,*,#479,.T.);
#646=ORIENTED_EDGE('',*,*,#476,.T.);
#647=ORIENTED_EDGE('',*,*,#473,.T.);
#648=ORIENTED_EDGE('',*,*,#470,.T.);
#649=ORIENTED_EDGE('',*,*,#467,.T.);
#650=ORIENTED_EDGE('',*,*,#463,.T.);
#651=ORIENTED_EDGE('',*,*,#487,.T.);
#652=ORIENTED_EDGE('',*,*,#488,.T.);
#653=ORIENTED_EDGE('',*,*,#489,.F.);
#654=ORIENTED_EDGE('',*,*,#490,.F.);
#655=ORIENTED_EDGE('',*,*,#459,.T.);
#656=ORIENTED_EDGE('',*,*,#456,.T.);
#657=ORIENTED_EDGE('',*,*,#453,.T.);
#658=ORIENTED_EDGE('',*,*,#462,.T.);
#659=ORIENTED_EDGE('',*,*,#491,.T.);
#660=ORIENTED_EDGE('',*,*,#490,.T.);
#661=ORIENTED_EDGE('',*,*,#492,.F.);
#662=ORIENTED_EDGE('',*,*,#493,.F.);
#663=ORIENTED_EDGE('',*,*,#494,.T.);
#664=ORIENTED_EDGE('',*,*,#493,.T.);
#665=ORIENTED_EDGE('',*,*,#495,.F.);
#666=ORIENTED_EDGE('',*,*,#496,.F.);
#667=ORIENTED_EDGE('',*,*,#411,.T.);
#668=ORIENTED_EDGE('',*,*,#408,.T.);
#669=ORIENTED_EDGE('',*,*,#405,.T.);
#670=ORIENTED_EDGE('',*,*,#414,.T.);
#671=ORIENTED_EDGE('',*,*,#447,.T.);
#672=ORIENTED_EDGE('',*,*,#444,.T.);
#673=ORIENTED_EDGE('',*,*,#441,.T.);
#674=ORIENTED_EDGE('',*,*,#450,.T.);
#675=ORIENTED_EDGE('',*,*,#497,.T.);
#676=ORIENTED_EDGE('',*,*,#496,.T.);
#677=ORIENTED_EDGE('',*,*,#498,.F.);
#678=ORIENTED_EDGE('',*,*,#499,.F.);
#679=ORIENTED_EDGE('',*,*,#500,.T.);
#680=ORIENTED_EDGE('',*,*,#499,.T.);
#681=ORIENTED_EDGE('',*,*,#501,.F.);
#682=ORIENTED_EDGE('',*,*,#502,.F.);
#683=ORIENTED_EDGE('',*,*,#423,.T.);
#684=ORIENTED_EDGE('',*,*,#420,.T.);
#685=ORIENTED_EDGE('',*,*,#417,.T.);
#686=ORIENTED_EDGE('',*,*,#426,.T.);
#687=ORIENTED_EDGE('',*,*,#503,.T.);
#688=ORIENTED_EDGE('',*,*,#502,.T.);
#689=ORIENTED_EDGE('',*,*,#504,.F.);
#690=ORIENTED_EDGE('',*,*,#505,.F.);
#691=ORIENTED_EDGE('',*,*,#506,.T.);
#692=ORIENTED_EDGE('',*,*,#505,.T.);
#693=ORIENTED_EDGE('',*,*,#507,.F.);
#694=ORIENTED_EDGE('',*,*,#508,.F.);
#695=ORIENTED_EDGE('',*,*,#435,.T.);
#696=ORIENTED_EDGE('',*,*,#432,.T.);
#697=ORIENTED_EDGE('',*,*,#429,.T.);
#698=ORIENTED_EDGE('',*,*,#438,.T.);
#699=ORIENTED_EDGE('',*,*,#509,.T.);
#700=ORIENTED_EDGE('',*,*,#508,.T.);
#701=ORIENTED_EDGE('',*,*,#510,.F.);
#702=ORIENTED_EDGE('',*,*,#488,.F.);
#703=ORIENTED_EDGE('',*,*,#510,.T.);
#704=ORIENTED_EDGE('',*,*,#507,.T.);
#705=ORIENTED_EDGE('',*,*,#504,.T.);
#706=ORIENTED_EDGE('',*,*,#501,.T.);
#707=ORIENTED_EDGE('',*,*,#498,.T.);
#708=ORIENTED_EDGE('',*,*,#495,.T.);
#709=ORIENTED_EDGE('',*,*,#492,.T.);
#710=ORIENTED_EDGE('',*,*,#489,.T.);
#711=ORIENTED_EDGE('',*,*,#465,.T.);
#712=ORIENTED_EDGE('',*,*,#469,.T.);
#713=ORIENTED_EDGE('',*,*,#472,.T.);
#714=ORIENTED_EDGE('',*,*,#475,.T.);
#715=ORIENTED_EDGE('',*,*,#478,.T.);
#716=ORIENTED_EDGE('',*,*,#481,.T.);
#717=ORIENTED_EDGE('',*,*,#484,.T.);
#718=ORIENTED_EDGE('',*,*,#486,.T.);
#719=ORIENTED_EDGE('',*,*,#509,.F.);
#720=ORIENTED_EDGE('',*,*,#487,.F.);
#721=ORIENTED_EDGE('',*,*,#491,.F.);
#722=ORIENTED_EDGE('',*,*,#494,.F.);
#723=ORIENTED_EDGE('',*,*,#497,.F.);
#724=ORIENTED_EDGE('',*,*,#500,.F.);
#725=ORIENTED_EDGE('',*,*,#503,.F.);
#726=ORIENTED_EDGE('',*,*,#506,.F.);
#727=PLANE('',#819);
#728=PLANE('',#820);
#729=PLANE('',#821);
#730=PLANE('',#822);
#731=PLANE('',#823);
#732=PLANE('',#824);
#733=PLANE('',#825);
#734=PLANE('',#826);
#735=PLANE('',#827);
#736=PLANE('',#828);
#737=PLANE('',#829);
#738=PLANE('',#830);
#739=PLANE('',#831);
#740=PLANE('',#832);
#741=PLANE('',#833);
#742=PLANE('',#834);
#743=PLANE('',#835);
#744=PLANE('',#836);
#745=PLANE('',#837);
#746=PLANE('',#838);
#747=PLANE('',#839);
#748=PLANE('',#840);
#749=PLANE('',#841);
#750=PLANE('',#842);
#751=PLANE('',#843);
#752=PLANE('',#844);
#753=PLANE('',#845);
#754=PLANE('',#846);
#755=PLANE('',#847);
#756=PLANE('',#848);
#757=PLANE('',#849);
#758=PLANE('',#850);
#759=PLANE('',#851);
#760=PLANE('',#852);
#761=PLANE('',#853);
#762=PLANE('',#854);
#763=PLANE('',#855);
#764=PLANE('',#856);
#765=PLANE('',#857);
#766=ADVANCED_FACE('',(#26),#727,.F.);
#767=ADVANCED_FACE('',(#27),#728,.F.);
#768=ADVANCED_FACE('',(#28),#729,.F.);
#769=ADVANCED_FACE('',(#29),#730,.F.);
#770=ADVANCED_FACE('',(#30),#731,.F.);
#771=ADVANCED_FACE('',(#31),#732,.F.);
#772=ADVANCED_FACE('',(#32),#733,.F.);
#773=ADVANCED_FACE('',(#33),#734,.F.);
#774=ADVANCED_FACE('',(#34),#735,.F.);
#775=ADVANCED_FACE('',(#35),#736,.F.);
#776=ADVANCED_FACE('',(#36),#737,.F.);
#777=ADVANCED_FACE('',(#37),#738,.F.);
#778=ADVANCED_FACE('',(#38),#739,.F.);
#779=ADVANCED_FACE('',(#39),#740,.F.);
#780=ADVANCED_FACE('',(#40),#741,.F.);
#781=ADVANCED_FACE('',(#41),#742,.F.);
#782=ADVANCED_FACE('',(#42),#743,.F.);
#783=ADVANCED_FACE('',(#43),#744,.F.);
#784=ADVANCED_FACE('',(#44),#745,.F.);
#785=ADVANCED_FACE('',(#45),#746,.F.);
#786=ADVANCED_FACE('',(#46,#15),#747,.F.);
#787=ADVANCED_FACE('',(#47),#748,.F.);
#788=ADVANCED_FACE('',(#48,#16,#17),#749,.F.);
#789=ADVANCED_FACE('',(#49),#750,.F.);
#790=ADVANCED_FACE('',(#50,#18),#751,.F.);
#791=ADVANCED_FACE('',(#51),#752,.F.);
#792=ADVANCED_FACE('',(#52,#19),#753,.F.);
#793=ADVANCED_FACE('',(#53),#754,.F.);
#794=ADVANCED_FACE('',(#54),#755,.T.);
#795=ADVANCED_FACE('',(#55,#20),#756,.T.);
#796=ADVANCED_FACE('',(#56),#757,.T.);
#797=ADVANCED_FACE('',(#57,#21,#22),#758,.T.);
#798=ADVANCED_FACE('',(#58),#759,.T.);
#799=ADVANCED_FACE('',(#59,#23),#760,.T.);
#800=ADVANCED_FACE('',(#60),#761,.T.);
#801=ADVANCED_FACE('',(#61,#24),#762,.T.);
#802=ADVANCED_FACE('',(#62),#763,.T.);
#803=ADVANCED_FACE('',(#63,#25),#764,.T.);
#804=ADVANCED_FACE('',(#64),#765,.F.);
#805=CLOSED_SHELL('',(#766,#767,#768,#769,#770,#771,#772,#773,#774,#775,
#776,#777,#778,#779,#780,#781,#782,#783,#784,#785,#786,#787,#788,#789,#790,
#791,#792,#793,#794,#795,#796,#797,#798,#799,#800,#801,#802,#803,#804));
#806=DERIVED_UNIT_ELEMENT(#808,1.);
#807=DERIVED_UNIT_ELEMENT(#1271,-3.);
#808=(
MASS_UNIT()
NAMED_UNIT(*)
SI_UNIT(.KILO.,.GRAM.)
);
#809=DERIVED_UNIT((#806,#807));
#810=MEASURE_REPRESENTATION_ITEM('density measure',
POSITIVE_RATIO_MEASURE(7850.),#809);
#811=PROPERTY_DEFINITION_REPRESENTATION(#816,#813);
#812=PROPERTY_DEFINITION_REPRESENTATION(#817,#814);
#813=REPRESENTATION('material name',(#815),#1268);
#814=REPRESENTATION('density',(#810),#1268);
#815=DESCRIPTIVE_REPRESENTATION_ITEM('Steel','Steel');
#816=PROPERTY_DEFINITION('material property','material name',#1278);
#817=PROPERTY_DEFINITION('material property','density of part',#1278);
#818=AXIS2_PLACEMENT_3D('',#1046,#858,#859);
#819=AXIS2_PLACEMENT_3D('',#1047,#860,#861);
#820=AXIS2_PLACEMENT_3D('',#1056,#866,#867);
#821=AXIS2_PLACEMENT_3D('',#1062,#871,#872);
#822=AXIS2_PLACEMENT_3D('',#1068,#876,#877);
#823=AXIS2_PLACEMENT_3D('',#1071,#880,#881);
#824=AXIS2_PLACEMENT_3D('',#1080,#886,#887);
#825=AXIS2_PLACEMENT_3D('',#1086,#891,#892);
#826=AXIS2_PLACEMENT_3D('',#1092,#896,#897);
#827=AXIS2_PLACEMENT_3D('',#1095,#900,#901);
#828=AXIS2_PLACEMENT_3D('',#1104,#906,#907);
#829=AXIS2_PLACEMENT_3D('',#1110,#911,#912);
#830=AXIS2_PLACEMENT_3D('',#1116,#916,#917);
#831=AXIS2_PLACEMENT_3D('',#1119,#920,#921);
#832=AXIS2_PLACEMENT_3D('',#1128,#926,#927);
#833=AXIS2_PLACEMENT_3D('',#1134,#931,#932);
#834=AXIS2_PLACEMENT_3D('',#1140,#936,#937);
#835=AXIS2_PLACEMENT_3D('',#1143,#940,#941);
#836=AXIS2_PLACEMENT_3D('',#1152,#946,#947);
#837=AXIS2_PLACEMENT_3D('',#1158,#951,#952);
#838=AXIS2_PLACEMENT_3D('',#1164,#956,#957);
#839=AXIS2_PLACEMENT_3D('',#1167,#960,#961);
#840=AXIS2_PLACEMENT_3D('',#1176,#966,#967);
#841=AXIS2_PLACEMENT_3D('',#1182,#971,#972);
#842=AXIS2_PLACEMENT_3D('',#1188,#976,#977);
#843=AXIS2_PLACEMENT_3D('',#1194,#981,#982);
#844=AXIS2_PLACEMENT_3D('',#1200,#986,#987);
#845=AXIS2_PLACEMENT_3D('',#1206,#991,#992);
#846=AXIS2_PLACEMENT_3D('',#1212,#996,#997);
#847=AXIS2_PLACEMENT_3D('',#1215,#1000,#1001);
#848=AXIS2_PLACEMENT_3D('',#1216,#1002,#1003);
#849=AXIS2_PLACEMENT_3D('',#1225,#1008,#1009);
#850=AXIS2_PLACEMENT_3D('',#1231,#1013,#1014);
#851=AXIS2_PLACEMENT_3D('',#1237,#1018,#1019);
#852=AXIS2_PLACEMENT_3D('',#1243,#1023,#1024);
#853=AXIS2_PLACEMENT_3D('',#1249,#1028,#1029);
#854=AXIS2_PLACEMENT_3D('',#1255,#1033,#1034);
#855=AXIS2_PLACEMENT_3D('',#1261,#1038,#1039);
#856=AXIS2_PLACEMENT_3D('',#1264,#1042,#1043);
#857=AXIS2_PLACEMENT_3D('',#1265,#1044,#1045);
#858=DIRECTION('axis',(0.,0.,1.));
#859=DIRECTION('refdir',(1.,0.,0.));
#860=DIRECTION('center_axis',(-1.,0.,0.));
#861=DIRECTION('ref_axis',(0.,0.,-1.));
#862=DIRECTION('',(0.,0.,-1.));
#863=DIRECTION('',(0.,-1.,0.));
#864=DIRECTION('',(0.,0.,1.));
#865=DIRECTION('',(0.,-1.,0.));
#866=DIRECTION('center_axis',(0.,0.,-1.));
#867=DIRECTION('ref_axis',(1.,0.,0.));
#868=DIRECTION('',(1.,0.,0.));
#869=DIRECTION('',(-1.,0.,0.));
#870=DIRECTION('',(0.,-1.,0.));
#871=DIRECTION('center_axis',(1.,0.,0.));
#872=DIRECTION('ref_axis',(0.,0.,1.));
#873=DIRECTION('',(0.,0.,1.));
#874=DIRECTION('',(0.,0.,-1.));
#875=DIRECTION('',(0.,-1.,0.));
#876=DIRECTION('center_axis',(0.,0.,1.));
#877=DIRECTION('ref_axis',(-1.,0.,0.));
#878=DIRECTION('',(-1.,0.,0.));
#879=DIRECTION('',(1.,0.,0.));
#880=DIRECTION('center_axis',(0.,0.,1.));
#881=DIRECTION('ref_axis',(0.,1.,0.));
#882=DIRECTION('',(0.,1.,0.));
#883=DIRECTION('',(-1.,0.,0.));
#884=DIRECTION('',(0.,-1.,0.));
#885=DIRECTION('',(-1.,0.,0.));
#886=DIRECTION('center_axis',(0.,1.,0.));
#887=DIRECTION('ref_axis',(0.,0.,-1.));
#888=DIRECTION('',(0.,0.,-1.));
#889=DIRECTION('',(0.,0.,1.));
#890=DIRECTION('',(-1.,0.,0.));
#891=DIRECTION('center_axis',(0.,0.,-1.));
#892=DIRECTION('ref_axis',(0.,-1.,0.));
#893=DIRECTION('',(0.,-1.,0.));
#894=DIRECTION('',(0.,1.,0.));
#895=DIRECTION('',(-1.,0.,0.));
#896=DIRECTION('center_axis',(0.,-1.,0.));
#897=DIRECTION('ref_axis',(0.,0.,1.));
#898=DIRECTION('',(0.,0.,1.));
#899=DIRECTION('',(0.,0.,-1.));
#900=DIRECTION('center_axis',(1.,0.,0.));
#901=DIRECTION('ref_axis',(0.,0.,-1.));
#902=DIRECTION('',(0.,0.,-1.));
#903=DIRECTION('',(0.,1.,0.));
#904=DIRECTION('',(0.,0.,1.));
#905=DIRECTION('',(0.,1.,0.));
#906=DIRECTION('center_axis',(0.,0.,-1.));
#907=DIRECTION('ref_axis',(-1.,0.,0.));
#908=DIRECTION('',(-1.,0.,0.));
#909=DIRECTION('',(1.,0.,0.));
#910=DIRECTION('',(0.,1.,0.));
#911=DIRECTION('center_axis',(-1.,0.,0.));
#912=DIRECTION('ref_axis',(0.,0.,1.));
#913=DIRECTION('',(0.,0.,1.));
#914=DIRECTION('',(0.,0.,-1.));
#915=DIRECTION('',(0.,1.,0.));
#916=DIRECTION('center_axis',(0.,0.,1.));
#917=DIRECTION('ref_axis',(1.,0.,0.));
#918=DIRECTION('',(1.,0.,0.));
#919=DIRECTION('',(-1.,0.,0.));
#920=DIRECTION('center_axis',(-1.,0.,0.));
#921=DIRECTION('ref_axis',(0.,0.,-1.));
#922=DIRECTION('',(0.,0.,-1.));
#923=DIRECTION('',(0.,-1.,0.));
#924=DIRECTION('',(0.,0.,1.));
#925=DIRECTION('',(0.,-1.,0.));
#926=DIRECTION('center_axis',(0.,0.,-1.));
#927=DIRECTION('ref_axis',(1.,0.,0.));
#928=DIRECTION('',(1.,0.,0.));
#929=DIRECTION('',(-1.,0.,0.));
#930=DIRECTION('',(0.,-1.,0.));
#931=DIRECTION('center_axis',(1.,0.,0.));
#932=DIRECTION('ref_axis',(0.,0.,1.));
#933=DIRECTION('',(0.,0.,1.));
#934=DIRECTION('',(0.,0.,-1.));
#935=DIRECTION('',(0.,-1.,0.));
#936=DIRECTION('center_axis',(0.,0.,1.));
#937=DIRECTION('ref_axis',(-1.,0.,0.));
#938=DIRECTION('',(-1.,0.,0.));
#939=DIRECTION('',(1.,0.,0.));
#940=DIRECTION('center_axis',(0.,0.,-1.));
#941=DIRECTION('ref_axis',(0.,1.,0.));
#942=DIRECTION('',(0.,1.,0.));
#943=DIRECTION('',(1.,0.,0.));
#944=DIRECTION('',(0.,-1.,0.));
#945=DIRECTION('',(1.,0.,0.));
#946=DIRECTION('center_axis',(0.,1.,0.));
#947=DIRECTION('ref_axis',(0.,0.,1.));
#948=DIRECTION('',(0.,0.,1.));
#949=DIRECTION('',(0.,0.,-1.));
#950=DIRECTION('',(1.,0.,0.));
#951=DIRECTION('center_axis',(0.,0.,1.));
#952=DIRECTION('ref_axis',(0.,-1.,0.));
#953=DIRECTION('',(0.,-1.,0.));
#954=DIRECTION('',(0.,1.,0.));
#955=DIRECTION('',(1.,0.,0.));
#956=DIRECTION('center_axis',(0.,-1.,0.));
#957=DIRECTION('ref_axis',(0.,0.,-1.));
#958=DIRECTION('',(0.,0.,-1.));
#959=DIRECTION('',(0.,0.,1.));
#960=DIRECTION('center_axis',(1.,0.,0.));
#961=DIRECTION('ref_axis',(0.,1.,0.));
#962=DIRECTION('',(0.,-1.,0.));
#963=DIRECTION('',(0.,0.,-1.));
#964=DIRECTION('',(0.,-1.,0.));
#965=DIRECTION('',(0.,0.,1.));
#966=DIRECTION('center_axis',(0.707106781186548,-0.707106781186548,0.));
#967=DIRECTION('ref_axis',(0.707106781186548,0.707106781186548,0.));
#968=DIRECTION('',(-0.707106781186548,-0.707106781186548,0.));
#969=DIRECTION('',(0.,0.,-1.));
#970=DIRECTION('',(-0.707106781186548,-0.707106781186548,0.));
#971=DIRECTION('center_axis',(0.,-1.,0.));
#972=DIRECTION('ref_axis',(1.,0.,0.));
#973=DIRECTION('',(-1.,0.,0.));
#974=DIRECTION('',(0.,0.,-1.));
#975=DIRECTION('',(-1.,0.,0.));
#976=DIRECTION('center_axis',(-0.707106781186548,-0.707106781186548,0.));
#977=DIRECTION('ref_axis',(0.707106781186548,-0.707106781186548,0.));
#978=DIRECTION('',(-0.707106781186548,0.707106781186548,0.));
#979=DIRECTION('',(0.,0.,-1.));
#980=DIRECTION('',(-0.707106781186548,0.707106781186548,0.));
#981=DIRECTION('center_axis',(-1.,0.,0.));
#982=DIRECTION('ref_axis',(0.,-1.,0.));
#983=DIRECTION('',(0.,1.,0.));
#984=DIRECTION('',(0.,0.,-1.));
#985=DIRECTION('',(0.,1.,0.));
#986=DIRECTION('center_axis',(-0.707106781186548,0.707106781186548,0.));
#987=DIRECTION('ref_axis',(-0.707106781186548,-0.707106781186548,0.));
#988=DIRECTION('',(0.707106781186548,0.707106781186548,0.));
#989=DIRECTION('',(0.,0.,-1.));
#990=DIRECTION('',(0.707106781186548,0.707106781186548,0.));
#991=DIRECTION('center_axis',(0.,1.,0.));
#992=DIRECTION('ref_axis',(-1.,0.,0.));
#993=DIRECTION('',(1.,0.,0.));
#994=DIRECTION('',(0.,0.,-1.));
#995=DIRECTION('',(1.,0.,0.));
#996=DIRECTION('center_axis',(0.707106781186548,0.707106781186548,0.));
#997=DIRECTION('ref_axis',(-0.707106781186548,0.707106781186548,0.));
#998=DIRECTION('',(0.707106781186548,-0.707106781186548,0.));
#999=DIRECTION('',(0.707106781186548,-0.707106781186548,0.));
#1000=DIRECTION('center_axis',(0.,0.,1.));
#1001=DIRECTION('ref_axis',(1.,0.,0.));
#1002=DIRECTION('center_axis',(1.,0.,0.));
#1003=DIRECTION('ref_axis',(0.,1.,0.));
#1004=DIRECTION('',(0.,1.,0.));
#1005=DIRECTION('',(0.,0.,1.));
#1006=DIRECTION('',(0.,1.,0.));
#1007=DIRECTION('',(0.,0.,1.));
#1008=DIRECTION('center_axis',(0.707106781186548,-0.707106781186548,0.));
#1009=DIRECTION('ref_axis',(0.707106781186548,0.707106781186548,0.));
#1010=DIRECTION('',(0.707106781186547,0.707106781186547,0.));
#1011=DIRECTION('',(0.707106781186547,0.707106781186547,0.));
#1012=DIRECTION('',(0.,0.,1.));
#1013=DIRECTION('center_axis',(0.,-1.,0.));
#1014=DIRECTION('ref_axis',(1.,0.,0.));
#1015=DIRECTION('',(1.,0.,0.));
#1016=DIRECTION('',(1.,0.,0.));
#1017=DIRECTION('',(0.,0.,1.));
#1018=DIRECTION('center_axis',(-0.707106781186548,-0.707106781186548,0.));
#1019=DIRECTION('ref_axis',(0.707106781186548,-0.707106781186548,0.));
#1020=DIRECTION('',(0.707106781186547,-0.707106781186547,0.));
#1021=DIRECTION('',(0.707106781186547,-0.707106781186547,0.));
#1022=DIRECTION('',(0.,0.,1.));
#1023=DIRECTION('center_axis',(-1.,0.,0.));
#1024=DIRECTION('ref_axis',(0.,-1.,0.));
#1025=DIRECTION('',(0.,-1.,0.));
#1026=DIRECTION('',(0.,-1.,0.));
#1027=DIRECTION('',(0.,0.,1.));
#1028=DIRECTION('center_axis',(-0.707106781186548,0.707106781186548,0.));
#1029=DIRECTION('ref_axis',(-0.707106781186548,-0.707106781186548,0.));
#1030=DIRECTION('',(-0.707106781186547,-0.707106781186547,0.));
#1031=DIRECTION('',(-0.707106781186547,-0.707106781186547,0.));
#1032=DIRECTION('',(0.,0.,1.));
#1033=DIRECTION('center_axis',(0.,1.,0.));
#1034=DIRECTION('ref_axis',(-1.,0.,0.));
#1035=DIRECTION('',(-1.,0.,0.));
#1036=DIRECTION('',(-1.,0.,0.));
#1037=DIRECTION('',(0.,0.,1.));
#1038=DIRECTION('center_axis',(0.707106781186548,0.707106781186548,0.));
#1039=DIRECTION('ref_axis',(-0.707106781186548,0.707106781186548,0.));
#1040=DIRECTION('',(-0.707106781186547,0.707106781186547,0.));
#1041=DIRECTION('',(-0.707106781186547,0.707106781186547,0.));
#1042=DIRECTION('center_axis',(0.,0.,1.));
#1043=DIRECTION('ref_axis',(1.,0.,0.));
#1044=DIRECTION('center_axis',(0.,0.,1.));
#1045=DIRECTION('ref_axis',(1.,0.,0.));
#1046=CARTESIAN_POINT('',(0.,0.,0.));
#1047=CARTESIAN_POINT('Origin',(-13.5543058837075,0.,49.));
#1048=CARTESIAN_POINT('',(-13.5543058837075,-53.95,49.));
#1049=CARTESIAN_POINT('',(-13.5543058837075,-53.95,43.));
#1050=CARTESIAN_POINT('',(-13.5543058837075,-53.95,24.5));
#1051=CARTESIAN_POINT('',(-13.5543058837075,-56.45,49.));
#1052=CARTESIAN_POINT('',(-13.5543058837075,0.,49.));
#1053=CARTESIAN_POINT('',(-13.5543058837075,-56.45,43.));
#1054=CARTESIAN_POINT('',(-13.5543058837075,-56.45,24.5));
#1055=CARTESIAN_POINT('',(-13.5543058837075,0.,43.));
#1056=CARTESIAN_POINT('Origin',(-13.5543058837075,0.,43.));
#1057=CARTESIAN_POINT('',(12.9103058837075,-53.95,43.));
#1058=CARTESIAN_POINT('',(-30.0987781181339,-53.95,43.));
#1059=CARTESIAN_POINT('',(12.9103058837075,-56.45,43.));
#1060=CARTESIAN_POINT('',(-30.0987781181339,-56.45,43.));
#1061=CARTESIAN_POINT('',(12.9103058837075,0.,43.));
#1062=CARTESIAN_POINT('Origin',(12.9103058837075,0.,43.));
#1063=CARTESIAN_POINT('',(12.9103058837075,-53.95,49.));
#1064=CARTESIAN_POINT('',(12.9103058837075,-53.95,21.5));
#1065=CARTESIAN_POINT('',(12.9103058837075,-56.45,49.));
#1066=CARTESIAN_POINT('',(12.9103058837075,-56.45,21.5));
#1067=CARTESIAN_POINT('',(12.9103058837075,0.,49.));
#1068=CARTESIAN_POINT('Origin',(12.9103058837075,0.,49.));
#1069=CARTESIAN_POINT('',(-16.8664722344264,-53.95,49.));
#1070=CARTESIAN_POINT('',(-16.8664722344264,-56.45,49.));
#1071=CARTESIAN_POINT('Origin',(0.,-11.7049780541437,49.));
#1072=CARTESIAN_POINT('',(-53.95,-11.7049780541437,49.));
#1073=CARTESIAN_POINT('',(-53.95,11.8529780541437,49.));
#1074=CARTESIAN_POINT('',(-53.95,17.4691361492083,49.));
#1075=CARTESIAN_POINT('',(-56.45,-11.7049780541437,49.));
#1076=CARTESIAN_POINT('',(0.,-11.7049780541437,49.));
#1077=CARTESIAN_POINT('',(-56.45,11.8529780541437,49.));
#1078=CARTESIAN_POINT('',(-56.45,17.4691361492083,49.));
#1079=CARTESIAN_POINT('',(0.,11.8529780541437,49.));
#1080=CARTESIAN_POINT('Origin',(0.,11.8529780541437,49.));
#1081=CARTESIAN_POINT('',(-53.95,11.8529780541437,43.));
#1082=CARTESIAN_POINT('',(-53.95,11.8529780541437,24.5));
#1083=CARTESIAN_POINT('',(-56.45,11.8529780541437,43.));
#1084=CARTESIAN_POINT('',(-56.45,11.8529780541437,24.5));
#1085=CARTESIAN_POINT('',(0.,11.8529780541437,43.));
#1086=CARTESIAN_POINT('Origin',(0.,11.8529780541437,43.));
#1087=CARTESIAN_POINT('',(-53.95,-11.7049780541437,43.));
#1088=CARTESIAN_POINT('',(-53.95,29.248114203352,43.));
#1089=CARTESIAN_POINT('',(-56.45,-11.7049780541437,43.));
#1090=CARTESIAN_POINT('',(-56.45,29.248114203352,43.));
#1091=CARTESIAN_POINT('',(0.,-11.7049780541437,43.));
#1092=CARTESIAN_POINT('Origin',(0.,-11.7049780541437,43.));
#1093=CARTESIAN_POINT('',(-53.95,-11.7049780541437,21.5));
#1094=CARTESIAN_POINT('',(-56.45,-11.7049780541437,21.5));
#1095=CARTESIAN_POINT('Origin',(11.5035855111612,0.,49.));
#1096=CARTESIAN_POINT('',(11.5035855111612,53.95,49.));
#1097=CARTESIAN_POINT('',(11.5035855111612,53.95,43.));
#1098=CARTESIAN_POINT('',(11.5035855111612,53.95,24.5));
#1099=CARTESIAN_POINT('',(11.5035855111612,56.45,49.));
#1100=CARTESIAN_POINT('',(11.5035855111612,0.,49.));
#1101=CARTESIAN_POINT('',(11.5035855111612,56.45,43.));
#1102=CARTESIAN_POINT('',(11.5035855111612,56.45,24.5));
#1103=CARTESIAN_POINT('',(11.5035855111612,0.,43.));
#1104=CARTESIAN_POINT('Origin',(11.5035855111612,0.,43.));
#1105=CARTESIAN_POINT('',(-11.9875855111612,53.95,43.));
#1106=CARTESIAN_POINT('',(29.0734179318607,53.95,43.));
#1107=CARTESIAN_POINT('',(-11.9875855111612,56.45,43.));
#1108=CARTESIAN_POINT('',(29.0734179318607,56.45,43.));
#1109=CARTESIAN_POINT('',(-11.9875855111612,0.,43.));
#1110=CARTESIAN_POINT('Origin',(-11.9875855111612,0.,43.));
#1111=CARTESIAN_POINT('',(-11.9875855111612,53.95,49.));
#1112=CARTESIAN_POINT('',(-11.9875855111612,53.95,21.5));
#1113=CARTESIAN_POINT('',(-11.9875855111612,56.45,49.));
#1114=CARTESIAN_POINT('',(-11.9875855111612,56.45,21.5));
#1115=CARTESIAN_POINT('',(-11.9875855111612,0.,49.));
#1116=CARTESIAN_POINT('Origin',(-11.9875855111612,0.,49.));
#1117=CARTESIAN_POINT('',(17.3278324206995,53.95,49.));
#1118=CARTESIAN_POINT('',(17.3278324206995,56.45,49.));
#1119=CARTESIAN_POINT('Origin',(-10.,0.,22.));
#1120=CARTESIAN_POINT('',(-10.,-53.95,22.));
#1121=CARTESIAN_POINT('',(-10.,-53.95,9.));
#1122=CARTESIAN_POINT('',(-10.,-53.95,11.));
#1123=CARTESIAN_POINT('',(-10.,-56.45,22.));
#1124=CARTESIAN_POINT('',(-10.,0.,22.));
#1125=CARTESIAN_POINT('',(-10.,-56.45,9.));
#1126=CARTESIAN_POINT('',(-10.,-56.45,11.));
#1127=CARTESIAN_POINT('',(-10.,0.,9.));
#1128=CARTESIAN_POINT('Origin',(-10.,0.,9.));
#1129=CARTESIAN_POINT('',(10.,-53.95,9.));
#1130=CARTESIAN_POINT('',(-28.3216251762801,-53.95,9.));
#1131=CARTESIAN_POINT('',(10.,-56.45,9.));
#1132=CARTESIAN_POINT('',(-28.3216251762801,-56.45,9.));
#1133=CARTESIAN_POINT('',(10.,0.,9.));
#1134=CARTESIAN_POINT('Origin',(10.,0.,9.));
#1135=CARTESIAN_POINT('',(10.,-53.95,22.));
#1136=CARTESIAN_POINT('',(10.,-53.95,4.5));
#1137=CARTESIAN_POINT('',(10.,-56.45,22.));
#1138=CARTESIAN_POINT('',(10.,-56.45,4.5));
#1139=CARTESIAN_POINT('',(10.,0.,22.));
#1140=CARTESIAN_POINT('Origin',(10.,0.,22.));
#1141=CARTESIAN_POINT('',(-18.3216251762801,-53.95,22.));
#1142=CARTESIAN_POINT('',(-18.3216251762801,-56.45,22.));
#1143=CARTESIAN_POINT('Origin',(0.,-7.,12.5));
#1144=CARTESIAN_POINT('',(53.95,-7.,12.5));
#1145=CARTESIAN_POINT('',(53.95,7.,12.5));
#1146=CARTESIAN_POINT('',(53.95,-26.8216251762801,12.5));
#1147=CARTESIAN_POINT('',(56.45,-7.,12.5));
#1148=CARTESIAN_POINT('',(0.,-7.,12.5));
#1149=CARTESIAN_POINT('',(56.45,7.,12.5));
#1150=CARTESIAN_POINT('',(56.45,-26.8216251762801,12.5));
#1151=CARTESIAN_POINT('',(0.,7.,12.5));
#1152=CARTESIAN_POINT('Origin',(0.,7.,12.5));
#1153=CARTESIAN_POINT('',(53.95,7.,20.7));
#1154=CARTESIAN_POINT('',(53.95,7.,6.25));
#1155=CARTESIAN_POINT('',(56.45,7.,20.7));
#1156=CARTESIAN_POINT('',(56.45,7.,6.25));
#1157=CARTESIAN_POINT('',(0.,7.,20.7));
#1158=CARTESIAN_POINT('Origin',(0.,7.,20.7));
#1159=CARTESIAN_POINT('',(53.95,-7.,20.7));
#1160=CARTESIAN_POINT('',(53.95,-19.8216251762801,20.7));
#1161=CARTESIAN_POINT('',(56.45,-7.,20.7));
#1162=CARTESIAN_POINT('',(56.45,-19.8216251762801,20.7));
#1163=CARTESIAN_POINT('',(0.,-7.,20.7));
#1164=CARTESIAN_POINT('Origin',(0.,-7.,20.7));
#1165=CARTESIAN_POINT('',(53.95,-7.,10.35));
#1166=CARTESIAN_POINT('',(56.45,-7.,10.35));
#1167=CARTESIAN_POINT('Origin',(53.95,-46.6432503525603,0.));
#1168=CARTESIAN_POINT('',(53.95,-45.6077164466275,2.5));
#1169=CARTESIAN_POINT('',(53.95,45.6077164466275,2.5));
#1170=CARTESIAN_POINT('',(53.95,-23.3216251762801,2.5));
#1171=CARTESIAN_POINT('',(53.95,-45.6077164466275,60.));
#1172=CARTESIAN_POINT('',(53.95,-45.6077164466275,0.));
#1173=CARTESIAN_POINT('',(53.95,45.6077164466275,60.));
#1174=CARTESIAN_POINT('',(53.95,-23.3216251762801,60.));
#1175=CARTESIAN_POINT('',(53.95,45.6077164466275,0.));
#1176=CARTESIAN_POINT('Origin',(44.8754833995939,-54.6822330470336,0.));
#1177=CARTESIAN_POINT('',(45.6077164466275,-53.95,2.5));
#1178=CARTESIAN_POINT('',(47.3271708114538,-52.2305456351737,2.5));
#1179=CARTESIAN_POINT('',(45.6077164466275,-53.95,60.));
#1180=CARTESIAN_POINT('',(45.6077164466276,-53.95,0.));
#1181=CARTESIAN_POINT('',(47.3271708114538,-52.2305456351737,60.));
#1182=CARTESIAN_POINT('Origin',(-46.6432503525603,-53.95,0.));
#1183=CARTESIAN_POINT('',(-45.6077164466275,-53.95,2.5));
#1184=CARTESIAN_POINT('',(-23.3216251762801,-53.95,2.5));
#1185=CARTESIAN_POINT('',(-45.6077164466275,-53.95,60.));
#1186=CARTESIAN_POINT('',(-45.6077164466275,-53.95,0.));
#1187=CARTESIAN_POINT('',(-23.3216251762801,-53.95,60.));
#1188=CARTESIAN_POINT('Origin',(-54.6822330470336,-44.8754833995939,0.));
#1189=CARTESIAN_POINT('',(-53.95,-45.6077164466275,2.5));
#1190=CARTESIAN_POINT('',(-52.2305456351737,-47.3271708114538,2.5));
#1191=CARTESIAN_POINT('',(-53.95,-45.6077164466275,60.));
#1192=CARTESIAN_POINT('',(-53.95,-45.6077164466276,0.));
#1193=CARTESIAN_POINT('',(-52.2305456351737,-47.3271708114538,60.));
#1194=CARTESIAN_POINT('Origin',(-53.95,46.6432503525603,0.));
#1195=CARTESIAN_POINT('',(-53.95,45.6077164466275,2.5));
#1196=CARTESIAN_POINT('',(-53.95,23.3216251762801,2.5));
#1197=CARTESIAN_POINT('',(-53.95,45.6077164466275,60.));
#1198=CARTESIAN_POINT('',(-53.95,45.6077164466275,0.));
#1199=CARTESIAN_POINT('',(-53.95,23.3216251762801,60.));
#1200=CARTESIAN_POINT('Origin',(-44.8754833995939,54.6822330470336,0.));
#1201=CARTESIAN_POINT('',(-45.6077164466275,53.95,2.5));
#1202=CARTESIAN_POINT('',(-47.3271708114538,52.2305456351737,2.5));
#1203=CARTESIAN_POINT('',(-45.6077164466275,53.95,60.));
#1204=CARTESIAN_POINT('',(-45.6077164466276,53.95,0.));
#1205=CARTESIAN_POINT('',(-47.3271708114538,52.2305456351737,60.));
#1206=CARTESIAN_POINT('Origin',(46.6432503525603,53.95,0.));
#1207=CARTESIAN_POINT('',(45.6077164466275,53.95,2.5));
#1208=CARTESIAN_POINT('',(23.3216251762801,53.95,2.5));
#1209=CARTESIAN_POINT('',(45.6077164466275,53.95,60.));
#1210=CARTESIAN_POINT('',(45.6077164466275,53.95,0.));
#1211=CARTESIAN_POINT('',(23.3216251762801,53.95,60.));
#1212=CARTESIAN_POINT('Origin',(54.6822330470336,44.8754833995939,0.));
#1213=CARTESIAN_POINT('',(52.2305456351737,47.3271708114538,2.5));
#1214=CARTESIAN_POINT('',(52.2305456351737,47.3271708114538,60.));
#1215=CARTESIAN_POINT('Origin',(0.,0.,2.5));
#1216=CARTESIAN_POINT('Origin',(56.45,-46.6432503525603,0.));
#1217=CARTESIAN_POINT('',(56.45,-46.6432503525603,0.));
#1218=CARTESIAN_POINT('',(56.45,46.6432503525603,0.));
#1219=CARTESIAN_POINT('',(56.45,-46.6432503525603,0.));
#1220=CARTESIAN_POINT('',(56.45,46.6432503525603,60.));
#1221=CARTESIAN_POINT('',(56.45,46.6432503525603,0.));
#1222=CARTESIAN_POINT('',(56.45,-46.6432503525603,60.));
#1223=CARTESIAN_POINT('',(56.45,-46.6432503525603,60.));
#1224=CARTESIAN_POINT('',(56.45,-46.6432503525603,0.));
#1225=CARTESIAN_POINT('Origin',(46.6432503525603,-56.45,0.));
#1226=CARTESIAN_POINT('',(46.6432503525603,-56.45,0.));
#1227=CARTESIAN_POINT('',(46.6432503525603,-56.45,0.));
#1228=CARTESIAN_POINT('',(46.6432503525603,-56.45,60.));
#1229=CARTESIAN_POINT('',(46.6432503525603,-56.45,60.));
#1230=CARTESIAN_POINT('',(46.6432503525603,-56.45,0.));
#1231=CARTESIAN_POINT('Origin',(-46.6432503525603,-56.45,0.));
#1232=CARTESIAN_POINT('',(-46.6432503525603,-56.45,0.));
#1233=CARTESIAN_POINT('',(-46.6432503525603,-56.45,0.));
#1234=CARTESIAN_POINT('',(-46.6432503525603,-56.45,60.));
#1235=CARTESIAN_POINT('',(-46.6432503525603,-56.45,60.));
#1236=CARTESIAN_POINT('',(-46.6432503525603,-56.45,0.));
#1237=CARTESIAN_POINT('Origin',(-56.45,-46.6432503525603,0.));
#1238=CARTESIAN_POINT('',(-56.45,-46.6432503525603,0.));
#1239=CARTESIAN_POINT('',(-56.45,-46.6432503525603,0.));
#1240=CARTESIAN_POINT('',(-56.45,-46.6432503525603,60.));
#1241=CARTESIAN_POINT('',(-56.45,-46.6432503525603,60.));
#1242=CARTESIAN_POINT('',(-56.45,-46.6432503525603,0.));
#1243=CARTESIAN_POINT('Origin',(-56.45,46.6432503525603,0.));
#1244=CARTESIAN_POINT('',(-56.45,46.6432503525603,0.));
#1245=CARTESIAN_POINT('',(-56.45,46.6432503525603,0.));
#1246=CARTESIAN_POINT('',(-56.45,46.6432503525603,60.));
#1247=CARTESIAN_POINT('',(-56.45,46.6432503525603,60.));
#1248=CARTESIAN_POINT('',(-56.45,46.6432503525603,0.));
#1249=CARTESIAN_POINT('Origin',(-46.6432503525603,56.45,0.));
#1250=CARTESIAN_POINT('',(-46.6432503525603,56.45,0.));
#1251=CARTESIAN_POINT('',(-46.6432503525603,56.45,0.));
#1252=CARTESIAN_POINT('',(-46.6432503525603,56.45,60.));
#1253=CARTESIAN_POINT('',(-46.6432503525603,56.45,60.));
#1254=CARTESIAN_POINT('',(-46.6432503525603,56.45,0.));
#1255=CARTESIAN_POINT('Origin',(46.6432503525603,56.45,0.));
#1256=CARTESIAN_POINT('',(46.6432503525603,56.45,0.));
#1257=CARTESIAN_POINT('',(46.6432503525603,56.45,0.));
#1258=CARTESIAN_POINT('',(46.6432503525603,56.45,60.));
#1259=CARTESIAN_POINT('',(46.6432503525603,56.45,60.));
#1260=CARTESIAN_POINT('',(46.6432503525603,56.45,0.));
#1261=CARTESIAN_POINT('Origin',(56.45,46.6432503525603,0.));
#1262=CARTESIAN_POINT('',(56.45,46.6432503525603,0.));
#1263=CARTESIAN_POINT('',(56.45,46.6432503525603,60.));
#1264=CARTESIAN_POINT('Origin',(0.,0.,60.));
#1265=CARTESIAN_POINT('Origin',(0.,0.,0.));
#1266=UNCERTAINTY_MEASURE_WITH_UNIT(LENGTH_MEASURE(0.01),#1270,
'DISTANCE_ACCURACY_VALUE',
'Maximum model space distance between geometric entities at asserted c
onnectivities');
#1267=UNCERTAINTY_MEASURE_WITH_UNIT(LENGTH_MEASURE(0.01),#1270,
'DISTANCE_ACCURACY_VALUE',
'Maximum model space distance between geometric entities at asserted c
onnectivities');
#1268=(
GEOMETRIC_REPRESENTATION_CONTEXT(3)
GLOBAL_UNCERTAINTY_ASSIGNED_CONTEXT((#1266))
GLOBAL_UNIT_ASSIGNED_CONTEXT((#1270,#1272,#1273))
REPRESENTATION_CONTEXT('','3D')
);
#1269=(
GEOMETRIC_REPRESENTATION_CONTEXT(3)
GLOBAL_UNCERTAINTY_ASSIGNED_CONTEXT((#1267))
GLOBAL_UNIT_ASSIGNED_CONTEXT((#1270,#1272,#1273))
REPRESENTATION_CONTEXT('','3D')
);
#1270=(
LENGTH_UNIT()
NAMED_UNIT(*)
SI_UNIT(.MILLI.,.METRE.)
);
#1271=(
LENGTH_UNIT()
NAMED_UNIT(*)
SI_UNIT($,.METRE.)
);
#1272=(
NAMED_UNIT(*)
PLANE_ANGLE_UNIT()
SI_UNIT($,.RADIAN.)
);
#1273=(
NAMED_UNIT(*)
SI_UNIT($,.STERADIAN.)
SOLID_ANGLE_UNIT()
);
#1274=SHAPE_DEFINITION_REPRESENTATION(#1275,#1276);
#1275=PRODUCT_DEFINITION_SHAPE('',$,#1278);
#1276=SHAPE_REPRESENTATION('',(#818),#1268);
#1277=PRODUCT_DEFINITION_CONTEXT('part definition',#1282,'design');
#1278=PRODUCT_DEFINITION('2026-09-30-21-13-54-322','Lower Case',#1279,#1277);
#1279=PRODUCT_DEFINITION_FORMATION('',$,#1284);
#1280=PRODUCT_RELATED_PRODUCT_CATEGORY('Lower Case','Lower Case',(#1284));
#1281=APPLICATION_PROTOCOL_DEFINITION('international standard',
'automotive_design',2009,#1282);
#1282=APPLICATION_CONTEXT(
'Core Data for Automotive Mechanical Design Process');
#1283=PRODUCT_CONTEXT('part definition',#1282,'mechanical');
#1284=PRODUCT('2026-09-30-21-13-54-322','Lower Case',$,(#1283));
#1285=PRESENTATION_STYLE_ASSIGNMENT((#1286));
#1286=SURFACE_STYLE_USAGE(.BOTH.,#1287);
#1287=SURFACE_SIDE_STYLE('',(#1288));
#1288=SURFACE_STYLE_FILL_AREA(#1289);
#1289=FILL_AREA_STYLE('Steel - Satin',(#1290));
#1290=FILL_AREA_STYLE_COLOUR('Steel - Satin',#1291);
#1291=COLOUR_RGB('Steel - Satin',0.627450980392157,0.627450980392157,0.627450980392157);
ENDSEC;
END-ISO-10303-21;
