ISO-10303-21;
HEADER;
/* Generated by software containing ST-Developer
 * from STEP Tools, Inc. (www.steptools.com) 
 */

FILE_DESCRIPTION(
/* description */ (''),
/* implementation_level */ '2;1');

FILE_NAME(
/* name */ 'Motor Plate Support Wall.step',
/* author */ (''),
/* organization */ (''),
/* preprocessor_version */ 'ST-DEVELOPER v20.2',
/* originating_system */ 'Autodesk Translation Framework v15.15.0.0',
/* authorisation */ '');

FILE_SCHEMA (('AUTOMOTIVE_DESIGN { 1 0 10303 214 3 1 1 }'));
ENDSEC;

DATA;
#10=MECHANICAL_DESIGN_GEOMETRIC_PRESENTATION_REPRESENTATION('',(#13),#855);
#11=SHAPE_REPRESENTATION_RELATIONSHIP('SRR','None',#862,#12);
#12=ADVANCED_BREP_SHAPE_REPRESENTATION('',(#14),#854);
#13=STYLED_ITEM('',(#871),#14);
#14=MANIFOLD_SOLID_BREP('Perimeter standoff wall',#539);
#15=FACE_BOUND('',#56,.T.);
#16=FACE_BOUND('',#59,.T.);
#17=FACE_BOUND('',#70,.T.);
#18=FACE_BOUND('',#73,.T.);
#19=FACE_BOUND('',#76,.T.);
#20=FACE_BOUND('',#78,.T.);
#21=FACE_OUTER_BOUND('',#47,.T.);
#22=FACE_OUTER_BOUND('',#48,.T.);
#23=FACE_OUTER_BOUND('',#49,.T.);
#24=FACE_OUTER_BOUND('',#50,.T.);
#25=FACE_OUTER_BOUND('',#51,.T.);
#26=FACE_OUTER_BOUND('',#52,.T.);
#27=FACE_OUTER_BOUND('',#53,.T.);
#28=FACE_OUTER_BOUND('',#54,.T.);
#29=FACE_OUTER_BOUND('',#55,.T.);
#30=FACE_OUTER_BOUND('',#57,.T.);
#31=FACE_OUTER_BOUND('',#58,.T.);
#32=FACE_OUTER_BOUND('',#60,.T.);
#33=FACE_OUTER_BOUND('',#61,.T.);
#34=FACE_OUTER_BOUND('',#62,.T.);
#35=FACE_OUTER_BOUND('',#63,.T.);
#36=FACE_OUTER_BOUND('',#64,.T.);
#37=FACE_OUTER_BOUND('',#65,.T.);
#38=FACE_OUTER_BOUND('',#66,.T.);
#39=FACE_OUTER_BOUND('',#67,.T.);
#40=FACE_OUTER_BOUND('',#68,.T.);
#41=FACE_OUTER_BOUND('',#69,.T.);
#42=FACE_OUTER_BOUND('',#71,.T.);
#43=FACE_OUTER_BOUND('',#72,.T.);
#44=FACE_OUTER_BOUND('',#74,.T.);
#45=FACE_OUTER_BOUND('',#75,.T.);
#46=FACE_OUTER_BOUND('',#77,.T.);
#47=EDGE_LOOP('',(#343,#344,#345,#346));
#48=EDGE_LOOP('',(#347,#348,#349,#350));
#49=EDGE_LOOP('',(#351,#352,#353,#354));
#50=EDGE_LOOP('',(#355,#356,#357,#358));
#51=EDGE_LOOP('',(#359,#360,#361,#362));
#52=EDGE_LOOP('',(#363,#364,#365,#366));
#53=EDGE_LOOP('',(#367,#368,#369,#370));
#54=EDGE_LOOP('',(#371,#372,#373,#374));
#55=EDGE_LOOP('',(#375,#376,#377,#378));
#56=EDGE_LOOP('',(#379,#380,#381,#382));
#57=EDGE_LOOP('',(#383,#384,#385,#386));
#58=EDGE_LOOP('',(#387,#388,#389,#390));
#59=EDGE_LOOP('',(#391,#392,#393,#394));
#60=EDGE_LOOP('',(#395,#396,#397,#398));
#61=EDGE_LOOP('',(#399,#400,#401,#402));
#62=EDGE_LOOP('',(#403,#404,#405,#406));
#63=EDGE_LOOP('',(#407,#408,#409,#410));
#64=EDGE_LOOP('',(#411,#412,#413,#414));
#65=EDGE_LOOP('',(#415,#416,#417,#418));
#66=EDGE_LOOP('',(#419,#420,#421,#422));
#67=EDGE_LOOP('',(#423,#424,#425,#426));
#68=EDGE_LOOP('',(#427,#428,#429,#430));
#69=EDGE_LOOP('',(#431,#432,#433,#434));
#70=EDGE_LOOP('',(#435,#436,#437,#438));
#71=EDGE_LOOP('',(#439,#440,#441,#442));
#72=EDGE_LOOP('',(#443,#444,#445,#446));
#73=EDGE_LOOP('',(#447,#448,#449,#450));
#74=EDGE_LOOP('',(#451,#452,#453,#454));
#75=EDGE_LOOP('',(#455,#456,#457,#458,#459,#460,#461,#462));
#76=EDGE_LOOP('',(#463,#464,#465,#466,#467,#468,#469,#470));
#77=EDGE_LOOP('',(#471,#472,#473,#474,#475,#476,#477,#478));
#78=EDGE_LOOP('',(#479,#480,#481,#482,#483,#484,#485,#486));
#79=LINE('',#709,#151);
#80=LINE('',#711,#152);
#81=LINE('',#713,#153);
#82=LINE('',#714,#154);
#83=LINE('',#717,#155);
#84=LINE('',#719,#156);
#85=LINE('',#720,#157);
#86=LINE('',#723,#158);
#87=LINE('',#725,#159);
#88=LINE('',#726,#160);
#89=LINE('',#728,#161);
#90=LINE('',#729,#162);
#91=LINE('',#733,#163);
#92=LINE('',#735,#164);
#93=LINE('',#737,#165);
#94=LINE('',#738,#166);
#95=LINE('',#741,#167);
#96=LINE('',#743,#168);
#97=LINE('',#744,#169);
#98=LINE('',#747,#170);
#99=LINE('',#749,#171);
#100=LINE('',#750,#172);
#101=LINE('',#752,#173);
#102=LINE('',#753,#174);
#103=LINE('',#757,#175);
#104=LINE('',#759,#176);
#105=LINE('',#761,#177);
#106=LINE('',#762,#178);
#107=LINE('',#765,#179);
#108=LINE('',#767,#180);
#109=LINE('',#768,#181);
#110=LINE('',#771,#182);
#111=LINE('',#773,#183);
#112=LINE('',#774,#184);
#113=LINE('',#777,#185);
#114=LINE('',#779,#186);
#115=LINE('',#780,#187);
#116=LINE('',#783,#188);
#117=LINE('',#785,#189);
#118=LINE('',#786,#190);
#119=LINE('',#789,#191);
#120=LINE('',#791,#192);
#121=LINE('',#792,#193);
#122=LINE('',#795,#194);
#123=LINE('',#797,#195);
#124=LINE('',#798,#196);
#125=LINE('',#800,#197);
#126=LINE('',#801,#198);
#127=LINE('',#805,#199);
#128=LINE('',#807,#200);
#129=LINE('',#809,#201);
#130=LINE('',#810,#202);
#131=LINE('',#813,#203);
#132=LINE('',#815,#204);
#133=LINE('',#816,#205);
#134=LINE('',#819,#206);
#135=LINE('',#821,#207);
#136=LINE('',#822,#208);
#137=LINE('',#825,#209);
#138=LINE('',#827,#210);
#139=LINE('',#828,#211);
#140=LINE('',#831,#212);
#141=LINE('',#833,#213);
#142=LINE('',#834,#214);
#143=LINE('',#837,#215);
#144=LINE('',#839,#216);
#145=LINE('',#840,#217);
#146=LINE('',#843,#218);
#147=LINE('',#845,#219);
#148=LINE('',#846,#220);
#149=LINE('',#848,#221);
#150=LINE('',#849,#222);
#151=VECTOR('',#583,10.);
#152=VECTOR('',#584,10.);
#153=VECTOR('',#585,10.);
#154=VECTOR('',#586,10.);
#155=VECTOR('',#589,10.);
#156=VECTOR('',#590,10.);
#157=VECTOR('',#591,10.);
#158=VECTOR('',#594,10.);
#159=VECTOR('',#595,10.);
#160=VECTOR('',#596,10.);
#161=VECTOR('',#599,10.);
#162=VECTOR('',#600,10.);
#163=VECTOR('',#603,10.);
#164=VECTOR('',#604,10.);
#165=VECTOR('',#605,10.);
#166=VECTOR('',#606,10.);
#167=VECTOR('',#609,10.);
#168=VECTOR('',#610,10.);
#169=VECTOR('',#611,10.);
#170=VECTOR('',#614,10.);
#171=VECTOR('',#615,10.);
#172=VECTOR('',#616,10.);
#173=VECTOR('',#619,10.);
#174=VECTOR('',#620,10.);
#175=VECTOR('',#623,10.);
#176=VECTOR('',#624,10.);
#177=VECTOR('',#625,10.);
#178=VECTOR('',#626,10.);
#179=VECTOR('',#629,10.);
#180=VECTOR('',#630,10.);
#181=VECTOR('',#631,10.);
#182=VECTOR('',#634,10.);
#183=VECTOR('',#635,10.);
#184=VECTOR('',#636,10.);
#185=VECTOR('',#639,10.);
#186=VECTOR('',#640,10.);
#187=VECTOR('',#641,10.);
#188=VECTOR('',#644,10.);
#189=VECTOR('',#645,10.);
#190=VECTOR('',#646,10.);
#191=VECTOR('',#649,10.);
#192=VECTOR('',#650,10.);
#193=VECTOR('',#651,10.);
#194=VECTOR('',#654,10.);
#195=VECTOR('',#655,10.);
#196=VECTOR('',#656,10.);
#197=VECTOR('',#659,10.);
#198=VECTOR('',#660,10.);
#199=VECTOR('',#663,10.);
#200=VECTOR('',#664,10.);
#201=VECTOR('',#665,10.);
#202=VECTOR('',#666,10.);
#203=VECTOR('',#669,10.);
#204=VECTOR('',#670,10.);
#205=VECTOR('',#671,10.);
#206=VECTOR('',#674,10.);
#207=VECTOR('',#675,10.);
#208=VECTOR('',#676,10.);
#209=VECTOR('',#679,10.);
#210=VECTOR('',#680,10.);
#211=VECTOR('',#681,10.);
#212=VECTOR('',#684,10.);
#213=VECTOR('',#685,10.);
#214=VECTOR('',#686,10.);
#215=VECTOR('',#689,10.);
#216=VECTOR('',#690,10.);
#217=VECTOR('',#691,10.);
#218=VECTOR('',#694,10.);
#219=VECTOR('',#695,10.);
#220=VECTOR('',#696,10.);
#221=VECTOR('',#699,10.);
#222=VECTOR('',#700,10.);
#223=VERTEX_POINT('',#707);
#224=VERTEX_POINT('',#708);
#225=VERTEX_POINT('',#710);
#226=VERTEX_POINT('',#712);
#227=VERTEX_POINT('',#716);
#228=VERTEX_POINT('',#718);
#229=VERTEX_POINT('',#722);
#230=VERTEX_POINT('',#724);
#231=VERTEX_POINT('',#731);
#232=VERTEX_POINT('',#732);
#233=VERTEX_POINT('',#734);
#234=VERTEX_POINT('',#736);
#235=VERTEX_POINT('',#740);
#236=VERTEX_POINT('',#742);
#237=VERTEX_POINT('',#746);
#238=VERTEX_POINT('',#748);
#239=VERTEX_POINT('',#755);
#240=VERTEX_POINT('',#756);
#241=VERTEX_POINT('',#758);
#242=VERTEX_POINT('',#760);
#243=VERTEX_POINT('',#764);
#244=VERTEX_POINT('',#766);
#245=VERTEX_POINT('',#770);
#246=VERTEX_POINT('',#772);
#247=VERTEX_POINT('',#776);
#248=VERTEX_POINT('',#778);
#249=VERTEX_POINT('',#782);
#250=VERTEX_POINT('',#784);
#251=VERTEX_POINT('',#788);
#252=VERTEX_POINT('',#790);
#253=VERTEX_POINT('',#794);
#254=VERTEX_POINT('',#796);
#255=VERTEX_POINT('',#803);
#256=VERTEX_POINT('',#804);
#257=VERTEX_POINT('',#806);
#258=VERTEX_POINT('',#808);
#259=VERTEX_POINT('',#812);
#260=VERTEX_POINT('',#814);
#261=VERTEX_POINT('',#818);
#262=VERTEX_POINT('',#820);
#263=VERTEX_POINT('',#824);
#264=VERTEX_POINT('',#826);
#265=VERTEX_POINT('',#830);
#266=VERTEX_POINT('',#832);
#267=VERTEX_POINT('',#836);
#268=VERTEX_POINT('',#838);
#269=VERTEX_POINT('',#842);
#270=VERTEX_POINT('',#844);
#271=EDGE_CURVE('',#223,#224,#79,.T.);
#272=EDGE_CURVE('',#223,#225,#80,.T.);
#273=EDGE_CURVE('',#226,#225,#81,.T.);
#274=EDGE_CURVE('',#224,#226,#82,.T.);
#275=EDGE_CURVE('',#224,#227,#83,.T.);
#276=EDGE_CURVE('',#228,#226,#84,.T.);
#277=EDGE_CURVE('',#227,#228,#85,.T.);
#278=EDGE_CURVE('',#227,#229,#86,.T.);
#279=EDGE_CURVE('',#230,#228,#87,.T.);
#280=EDGE_CURVE('',#229,#230,#88,.T.);
#281=EDGE_CURVE('',#229,#223,#89,.T.);
#282=EDGE_CURVE('',#225,#230,#90,.T.);
#283=EDGE_CURVE('',#231,#232,#91,.T.);
#284=EDGE_CURVE('',#231,#233,#92,.T.);
#285=EDGE_CURVE('',#234,#233,#93,.T.);
#286=EDGE_CURVE('',#232,#234,#94,.T.);
#287=EDGE_CURVE('',#232,#235,#95,.T.);
#288=EDGE_CURVE('',#236,#234,#96,.T.);
#289=EDGE_CURVE('',#235,#236,#97,.T.);
#290=EDGE_CURVE('',#235,#237,#98,.T.);
#291=EDGE_CURVE('',#238,#236,#99,.T.);
#292=EDGE_CURVE('',#237,#238,#100,.T.);
#293=EDGE_CURVE('',#237,#231,#101,.T.);
#294=EDGE_CURVE('',#233,#238,#102,.T.);
#295=EDGE_CURVE('',#239,#240,#103,.T.);
#296=EDGE_CURVE('',#239,#241,#104,.T.);
#297=EDGE_CURVE('',#242,#241,#105,.T.);
#298=EDGE_CURVE('',#240,#242,#106,.T.);
#299=EDGE_CURVE('',#240,#243,#107,.T.);
#300=EDGE_CURVE('',#244,#242,#108,.T.);
#301=EDGE_CURVE('',#243,#244,#109,.T.);
#302=EDGE_CURVE('',#243,#245,#110,.T.);
#303=EDGE_CURVE('',#246,#244,#111,.T.);
#304=EDGE_CURVE('',#245,#246,#112,.T.);
#305=EDGE_CURVE('',#245,#247,#113,.T.);
#306=EDGE_CURVE('',#248,#246,#114,.T.);
#307=EDGE_CURVE('',#247,#248,#115,.T.);
#308=EDGE_CURVE('',#247,#249,#116,.T.);
#309=EDGE_CURVE('',#250,#248,#117,.T.);
#310=EDGE_CURVE('',#249,#250,#118,.T.);
#311=EDGE_CURVE('',#249,#251,#119,.T.);
#312=EDGE_CURVE('',#252,#250,#120,.T.);
#313=EDGE_CURVE('',#251,#252,#121,.T.);
#314=EDGE_CURVE('',#251,#253,#122,.T.);
#315=EDGE_CURVE('',#254,#252,#123,.T.);
#316=EDGE_CURVE('',#253,#254,#124,.T.);
#317=EDGE_CURVE('',#253,#239,#125,.T.);
#318=EDGE_CURVE('',#241,#254,#126,.T.);
#319=EDGE_CURVE('',#255,#256,#127,.T.);
#320=EDGE_CURVE('',#255,#257,#128,.T.);
#321=EDGE_CURVE('',#258,#257,#129,.T.);
#322=EDGE_CURVE('',#256,#258,#130,.T.);
#323=EDGE_CURVE('',#256,#259,#131,.T.);
#324=EDGE_CURVE('',#260,#258,#132,.T.);
#325=EDGE_CURVE('',#259,#260,#133,.T.);
#326=EDGE_CURVE('',#259,#261,#134,.T.);
#327=EDGE_CURVE('',#262,#260,#135,.T.);
#328=EDGE_CURVE('',#261,#262,#136,.T.);
#329=EDGE_CURVE('',#261,#263,#137,.T.);
#330=EDGE_CURVE('',#264,#262,#138,.T.);
#331=EDGE_CURVE('',#263,#264,#139,.T.);
#332=EDGE_CURVE('',#263,#265,#140,.T.);
#333=EDGE_CURVE('',#266,#264,#141,.T.);
#334=EDGE_CURVE('',#265,#266,#142,.T.);
#335=EDGE_CURVE('',#265,#267,#143,.T.);
#336=EDGE_CURVE('',#268,#266,#144,.T.);
#337=EDGE_CURVE('',#267,#268,#145,.T.);
#338=EDGE_CURVE('',#267,#269,#146,.T.);
#339=EDGE_CURVE('',#270,#268,#147,.T.);
#340=EDGE_CURVE('',#269,#270,#148,.T.);
#341=EDGE_CURVE('',#269,#255,#149,.T.);
#342=EDGE_CURVE('',#257,#270,#150,.T.);
#343=ORIENTED_EDGE('',*,*,#271,.F.);
#344=ORIENTED_EDGE('',*,*,#272,.T.);
#345=ORIENTED_EDGE('',*,*,#273,.F.);
#346=ORIENTED_EDGE('',*,*,#274,.F.);
#347=ORIENTED_EDGE('',*,*,#275,.F.);
#348=ORIENTED_EDGE('',*,*,#274,.T.);
#349=ORIENTED_EDGE('',*,*,#276,.F.);
#350=ORIENTED_EDGE('',*,*,#277,.F.);
#351=ORIENTED_EDGE('',*,*,#278,.F.);
#352=ORIENTED_EDGE('',*,*,#277,.T.);
#353=ORIENTED_EDGE('',*,*,#279,.F.);
#354=ORIENTED_EDGE('',*,*,#280,.F.);
#355=ORIENTED_EDGE('',*,*,#281,.F.);
#356=ORIENTED_EDGE('',*,*,#280,.T.);
#357=ORIENTED_EDGE('',*,*,#282,.F.);
#358=ORIENTED_EDGE('',*,*,#272,.F.);
#359=ORIENTED_EDGE('',*,*,#283,.F.);
#360=ORIENTED_EDGE('',*,*,#284,.T.);
#361=ORIENTED_EDGE('',*,*,#285,.F.);
#362=ORIENTED_EDGE('',*,*,#286,.F.);
#363=ORIENTED_EDGE('',*,*,#287,.F.);
#364=ORIENTED_EDGE('',*,*,#286,.T.);
#365=ORIENTED_EDGE('',*,*,#288,.F.);
#366=ORIENTED_EDGE('',*,*,#289,.F.);
#367=ORIENTED_EDGE('',*,*,#290,.F.);
#368=ORIENTED_EDGE('',*,*,#289,.T.);
#369=ORIENTED_EDGE('',*,*,#291,.F.);
#370=ORIENTED_EDGE('',*,*,#292,.F.);
#371=ORIENTED_EDGE('',*,*,#293,.F.);
#372=ORIENTED_EDGE('',*,*,#292,.T.);
#373=ORIENTED_EDGE('',*,*,#294,.F.);
#374=ORIENTED_EDGE('',*,*,#284,.F.);
#375=ORIENTED_EDGE('',*,*,#295,.F.);
#376=ORIENTED_EDGE('',*,*,#296,.T.);
#377=ORIENTED_EDGE('',*,*,#297,.F.);
#378=ORIENTED_EDGE('',*,*,#298,.F.);
#379=ORIENTED_EDGE('',*,*,#290,.T.);
#380=ORIENTED_EDGE('',*,*,#293,.T.);
#381=ORIENTED_EDGE('',*,*,#283,.T.);
#382=ORIENTED_EDGE('',*,*,#287,.T.);
#383=ORIENTED_EDGE('',*,*,#299,.F.);
#384=ORIENTED_EDGE('',*,*,#298,.T.);
#385=ORIENTED_EDGE('',*,*,#300,.F.);
#386=ORIENTED_EDGE('',*,*,#301,.F.);
#387=ORIENTED_EDGE('',*,*,#302,.F.);
#388=ORIENTED_EDGE('',*,*,#301,.T.);
#389=ORIENTED_EDGE('',*,*,#303,.F.);
#390=ORIENTED_EDGE('',*,*,#304,.F.);
#391=ORIENTED_EDGE('',*,*,#278,.T.);
#392=ORIENTED_EDGE('',*,*,#281,.T.);
#393=ORIENTED_EDGE('',*,*,#271,.T.);
#394=ORIENTED_EDGE('',*,*,#275,.T.);
#395=ORIENTED_EDGE('',*,*,#305,.F.);
#396=ORIENTED_EDGE('',*,*,#304,.T.);
#397=ORIENTED_EDGE('',*,*,#306,.F.);
#398=ORIENTED_EDGE('',*,*,#307,.F.);
#399=ORIENTED_EDGE('',*,*,#308,.F.);
#400=ORIENTED_EDGE('',*,*,#307,.T.);
#401=ORIENTED_EDGE('',*,*,#309,.F.);
#402=ORIENTED_EDGE('',*,*,#310,.F.);
#403=ORIENTED_EDGE('',*,*,#311,.F.);
#404=ORIENTED_EDGE('',*,*,#310,.T.);
#405=ORIENTED_EDGE('',*,*,#312,.F.);
#406=ORIENTED_EDGE('',*,*,#313,.F.);
#407=ORIENTED_EDGE('',*,*,#314,.F.);
#408=ORIENTED_EDGE('',*,*,#313,.T.);
#409=ORIENTED_EDGE('',*,*,#315,.F.);
#410=ORIENTED_EDGE('',*,*,#316,.F.);
#411=ORIENTED_EDGE('',*,*,#317,.F.);
#412=ORIENTED_EDGE('',*,*,#316,.T.);
#413=ORIENTED_EDGE('',*,*,#318,.F.);
#414=ORIENTED_EDGE('',*,*,#296,.F.);
#415=ORIENTED_EDGE('',*,*,#319,.F.);
#416=ORIENTED_EDGE('',*,*,#320,.T.);
#417=ORIENTED_EDGE('',*,*,#321,.F.);
#418=ORIENTED_EDGE('',*,*,#322,.F.);
#419=ORIENTED_EDGE('',*,*,#323,.F.);
#420=ORIENTED_EDGE('',*,*,#322,.T.);
#421=ORIENTED_EDGE('',*,*,#324,.F.);
#422=ORIENTED_EDGE('',*,*,#325,.F.);
#423=ORIENTED_EDGE('',*,*,#326,.F.);
#424=ORIENTED_EDGE('',*,*,#325,.T.);
#425=ORIENTED_EDGE('',*,*,#327,.F.);
#426=ORIENTED_EDGE('',*,*,#328,.F.);
#427=ORIENTED_EDGE('',*,*,#329,.F.);
#428=ORIENTED_EDGE('',*,*,#328,.T.);
#429=ORIENTED_EDGE('',*,*,#330,.F.);
#430=ORIENTED_EDGE('',*,*,#331,.F.);
#431=ORIENTED_EDGE('',*,*,#332,.F.);
#432=ORIENTED_EDGE('',*,*,#331,.T.);
#433=ORIENTED_EDGE('',*,*,#333,.F.);
#434=ORIENTED_EDGE('',*,*,#334,.F.);
#435=ORIENTED_EDGE('',*,*,#279,.T.);
#436=ORIENTED_EDGE('',*,*,#276,.T.);
#437=ORIENTED_EDGE('',*,*,#273,.T.);
#438=ORIENTED_EDGE('',*,*,#282,.T.);
#439=ORIENTED_EDGE('',*,*,#335,.F.);
#440=ORIENTED_EDGE('',*,*,#334,.T.);
#441=ORIENTED_EDGE('',*,*,#336,.F.);
#442=ORIENTED_EDGE('',*,*,#337,.F.);
#443=ORIENTED_EDGE('',*,*,#338,.F.);
#444=ORIENTED_EDGE('',*,*,#337,.T.);
#445=ORIENTED_EDGE('',*,*,#339,.F.);
#446=ORIENTED_EDGE('',*,*,#340,.F.);
#447=ORIENTED_EDGE('',*,*,#291,.T.);
#448=ORIENTED_EDGE('',*,*,#288,.T.);
#449=ORIENTED_EDGE('',*,*,#285,.T.);
#450=ORIENTED_EDGE('',*,*,#294,.T.);
#451=ORIENTED_EDGE('',*,*,#341,.F.);
#452=ORIENTED_EDGE('',*,*,#340,.T.);
#453=ORIENTED_EDGE('',*,*,#342,.F.);
#454=ORIENTED_EDGE('',*,*,#320,.F.);
#455=ORIENTED_EDGE('',*,*,#341,.T.);
#456=ORIENTED_EDGE('',*,*,#319,.T.);
#457=ORIENTED_EDGE('',*,*,#323,.T.);
#458=ORIENTED_EDGE('',*,*,#326,.T.);
#459=ORIENTED_EDGE('',*,*,#329,.T.);
#460=ORIENTED_EDGE('',*,*,#332,.T.);
#461=ORIENTED_EDGE('',*,*,#335,.T.);
#462=ORIENTED_EDGE('',*,*,#338,.T.);
#463=ORIENTED_EDGE('',*,*,#317,.T.);
#464=ORIENTED_EDGE('',*,*,#295,.T.);
#465=ORIENTED_EDGE('',*,*,#299,.T.);
#466=ORIENTED_EDGE('',*,*,#302,.T.);
#467=ORIENTED_EDGE('',*,*,#305,.T.);
#468=ORIENTED_EDGE('',*,*,#308,.T.);
#469=ORIENTED_EDGE('',*,*,#311,.T.);
#470=ORIENTED_EDGE('',*,*,#314,.T.);
#471=ORIENTED_EDGE('',*,*,#342,.T.);
#472=ORIENTED_EDGE('',*,*,#339,.T.);
#473=ORIENTED_EDGE('',*,*,#336,.T.);
#474=ORIENTED_EDGE('',*,*,#333,.T.);
#475=ORIENTED_EDGE('',*,*,#330,.T.);
#476=ORIENTED_EDGE('',*,*,#327,.T.);
#477=ORIENTED_EDGE('',*,*,#324,.T.);
#478=ORIENTED_EDGE('',*,*,#321,.T.);
#479=ORIENTED_EDGE('',*,*,#318,.T.);
#480=ORIENTED_EDGE('',*,*,#315,.T.);
#481=ORIENTED_EDGE('',*,*,#312,.T.);
#482=ORIENTED_EDGE('',*,*,#309,.T.);
#483=ORIENTED_EDGE('',*,*,#306,.T.);
#484=ORIENTED_EDGE('',*,*,#303,.T.);
#485=ORIENTED_EDGE('',*,*,#300,.T.);
#486=ORIENTED_EDGE('',*,*,#297,.T.);
#487=PLANE('',#553);
#488=PLANE('',#554);
#489=PLANE('',#555);
#490=PLANE('',#556);
#491=PLANE('',#557);
#492=PLANE('',#558);
#493=PLANE('',#559);
#494=PLANE('',#560);
#495=PLANE('',#561);
#496=PLANE('',#562);
#497=PLANE('',#563);
#498=PLANE('',#564);
#499=PLANE('',#565);
#500=PLANE('',#566);
#501=PLANE('',#567);
#502=PLANE('',#568);
#503=PLANE('',#569);
#504=PLANE('',#570);
#505=PLANE('',#571);
#506=PLANE('',#572);
#507=PLANE('',#573);
#508=PLANE('',#574);
#509=PLANE('',#575);
#510=PLANE('',#576);
#511=PLANE('',#577);
#512=PLANE('',#578);
#513=ADVANCED_FACE('',(#21),#487,.F.);
#514=ADVANCED_FACE('',(#22),#488,.F.);
#515=ADVANCED_FACE('',(#23),#489,.F.);
#516=ADVANCED_FACE('',(#24),#490,.F.);
#517=ADVANCED_FACE('',(#25),#491,.F.);
#518=ADVANCED_FACE('',(#26),#492,.F.);
#519=ADVANCED_FACE('',(#27),#493,.F.);
#520=ADVANCED_FACE('',(#28),#494,.F.);
#521=ADVANCED_FACE('',(#29,#15),#495,.T.);
#522=ADVANCED_FACE('',(#30),#496,.T.);
#523=ADVANCED_FACE('',(#31,#16),#497,.T.);
#524=ADVANCED_FACE('',(#32),#498,.T.);
#525=ADVANCED_FACE('',(#33),#499,.T.);
#526=ADVANCED_FACE('',(#34),#500,.T.);
#527=ADVANCED_FACE('',(#35),#501,.T.);
#528=ADVANCED_FACE('',(#36),#502,.T.);
#529=ADVANCED_FACE('',(#37),#503,.T.);
#530=ADVANCED_FACE('',(#38),#504,.T.);
#531=ADVANCED_FACE('',(#39),#505,.T.);
#532=ADVANCED_FACE('',(#40),#506,.T.);
#533=ADVANCED_FACE('',(#41,#17),#507,.T.);
#534=ADVANCED_FACE('',(#42),#508,.T.);
#535=ADVANCED_FACE('',(#43,#18),#509,.T.);
#536=ADVANCED_FACE('',(#44),#510,.T.);
#537=ADVANCED_FACE('',(#45,#19),#511,.T.);
#538=ADVANCED_FACE('',(#46,#20),#512,.T.);
#539=CLOSED_SHELL('',(#513,#514,#515,#516,#517,#518,#519,#520,#521,#522,
#523,#524,#525,#526,#527,#528,#529,#530,#531,#532,#533,#534,#535,#536,#537,
#538));
#540=DERIVED_UNIT_ELEMENT(#542,1.);
#541=DERIVED_UNIT_ELEMENT(#857,-3.);
#542=(
MASS_UNIT()
NAMED_UNIT(*)
SI_UNIT(.KILO.,.GRAM.)
);
#543=DERIVED_UNIT((#540,#541));
#544=MEASURE_REPRESENTATION_ITEM('density measure',
POSITIVE_RATIO_MEASURE(7850.),#543);
#545=PROPERTY_DEFINITION_REPRESENTATION(#550,#547);
#546=PROPERTY_DEFINITION_REPRESENTATION(#551,#548);
#547=REPRESENTATION('material name',(#549),#854);
#548=REPRESENTATION('density',(#544),#854);
#549=DESCRIPTIVE_REPRESENTATION_ITEM('Steel','Steel');
#550=PROPERTY_DEFINITION('material property','material name',#864);
#551=PROPERTY_DEFINITION('material property','density of part',#864);
#552=AXIS2_PLACEMENT_3D('',#705,#579,#580);
#553=AXIS2_PLACEMENT_3D('',#706,#581,#582);
#554=AXIS2_PLACEMENT_3D('',#715,#587,#588);
#555=AXIS2_PLACEMENT_3D('',#721,#592,#593);
#556=AXIS2_PLACEMENT_3D('',#727,#597,#598);
#557=AXIS2_PLACEMENT_3D('',#730,#601,#602);
#558=AXIS2_PLACEMENT_3D('',#739,#607,#608);
#559=AXIS2_PLACEMENT_3D('',#745,#612,#613);
#560=AXIS2_PLACEMENT_3D('',#751,#617,#618);
#561=AXIS2_PLACEMENT_3D('',#754,#621,#622);
#562=AXIS2_PLACEMENT_3D('',#763,#627,#628);
#563=AXIS2_PLACEMENT_3D('',#769,#632,#633);
#564=AXIS2_PLACEMENT_3D('',#775,#637,#638);
#565=AXIS2_PLACEMENT_3D('',#781,#642,#643);
#566=AXIS2_PLACEMENT_3D('',#787,#647,#648);
#567=AXIS2_PLACEMENT_3D('',#793,#652,#653);
#568=AXIS2_PLACEMENT_3D('',#799,#657,#658);
#569=AXIS2_PLACEMENT_3D('',#802,#661,#662);
#570=AXIS2_PLACEMENT_3D('',#811,#667,#668);
#571=AXIS2_PLACEMENT_3D('',#817,#672,#673);
#572=AXIS2_PLACEMENT_3D('',#823,#677,#678);
#573=AXIS2_PLACEMENT_3D('',#829,#682,#683);
#574=AXIS2_PLACEMENT_3D('',#835,#687,#688);
#575=AXIS2_PLACEMENT_3D('',#841,#692,#693);
#576=AXIS2_PLACEMENT_3D('',#847,#697,#698);
#577=AXIS2_PLACEMENT_3D('',#850,#701,#702);
#578=AXIS2_PLACEMENT_3D('',#851,#703,#704);
#579=DIRECTION('axis',(0.,0.,1.));
#580=DIRECTION('refdir',(1.,0.,0.));
#581=DIRECTION('center_axis',(-1.,0.,0.));
#582=DIRECTION('ref_axis',(0.,0.,-1.));
#583=DIRECTION('',(0.,0.,-1.));
#584=DIRECTION('',(0.,-1.,0.));
#585=DIRECTION('',(0.,0.,1.));
#586=DIRECTION('',(0.,-1.,0.));
#587=DIRECTION('center_axis',(0.,0.,-1.));
#588=DIRECTION('ref_axis',(1.,0.,0.));
#589=DIRECTION('',(1.,0.,0.));
#590=DIRECTION('',(-1.,0.,0.));
#591=DIRECTION('',(0.,-1.,0.));
#592=DIRECTION('center_axis',(1.,0.,0.));
#593=DIRECTION('ref_axis',(0.,0.,1.));
#594=DIRECTION('',(0.,0.,1.));
#595=DIRECTION('',(0.,0.,-1.));
#596=DIRECTION('',(0.,-1.,0.));
#597=DIRECTION('center_axis',(0.,0.,1.));
#598=DIRECTION('ref_axis',(-1.,0.,0.));
#599=DIRECTION('',(-1.,0.,0.));
#600=DIRECTION('',(1.,0.,0.));
#601=DIRECTION('center_axis',(0.,0.,-1.));
#602=DIRECTION('ref_axis',(0.,1.,0.));
#603=DIRECTION('',(0.,1.,0.));
#604=DIRECTION('',(1.,0.,0.));
#605=DIRECTION('',(0.,-1.,0.));
#606=DIRECTION('',(1.,0.,0.));
#607=DIRECTION('center_axis',(0.,1.,0.));
#608=DIRECTION('ref_axis',(0.,0.,1.));
#609=DIRECTION('',(0.,0.,1.));
#610=DIRECTION('',(0.,0.,-1.));
#611=DIRECTION('',(1.,0.,0.));
#612=DIRECTION('center_axis',(0.,0.,1.));
#613=DIRECTION('ref_axis',(0.,-1.,0.));
#614=DIRECTION('',(0.,-1.,0.));
#615=DIRECTION('',(0.,1.,0.));
#616=DIRECTION('',(1.,0.,0.));
#617=DIRECTION('center_axis',(0.,-1.,0.));
#618=DIRECTION('ref_axis',(0.,0.,-1.));
#619=DIRECTION('',(0.,0.,-1.));
#620=DIRECTION('',(0.,0.,1.));
#621=DIRECTION('center_axis',(-1.,0.,0.));
#622=DIRECTION('ref_axis',(0.,1.,0.));
#623=DIRECTION('',(0.,-1.,0.));
#624=DIRECTION('',(0.,0.,-1.));
#625=DIRECTION('',(0.,1.,0.));
#626=DIRECTION('',(0.,0.,-1.));
#627=DIRECTION('center_axis',(-0.707106781186548,0.707106781186548,0.));
#628=DIRECTION('ref_axis',(0.707106781186548,0.707106781186548,0.));
#629=DIRECTION('',(-0.707106781186547,-0.707106781186547,0.));
#630=DIRECTION('',(0.707106781186547,0.707106781186547,0.));
#631=DIRECTION('',(0.,0.,-1.));
#632=DIRECTION('center_axis',(0.,1.,0.));
#633=DIRECTION('ref_axis',(1.,0.,0.));
#634=DIRECTION('',(-1.,0.,0.));
#635=DIRECTION('',(1.,0.,0.));
#636=DIRECTION('',(0.,0.,-1.));
#637=DIRECTION('center_axis',(0.707106781186548,0.707106781186548,0.));
#638=DIRECTION('ref_axis',(0.707106781186548,-0.707106781186548,0.));
#639=DIRECTION('',(-0.707106781186547,0.707106781186547,0.));
#640=DIRECTION('',(0.707106781186547,-0.707106781186547,0.));
#641=DIRECTION('',(0.,0.,-1.));
#642=DIRECTION('center_axis',(1.,0.,0.));
#643=DIRECTION('ref_axis',(0.,-1.,0.));
#644=DIRECTION('',(0.,1.,0.));
#645=DIRECTION('',(0.,-1.,0.));
#646=DIRECTION('',(0.,0.,-1.));
#647=DIRECTION('center_axis',(0.707106781186548,-0.707106781186548,0.));
#648=DIRECTION('ref_axis',(-0.707106781186548,-0.707106781186548,0.));
#649=DIRECTION('',(0.707106781186547,0.707106781186547,0.));
#650=DIRECTION('',(-0.707106781186547,-0.707106781186547,0.));
#651=DIRECTION('',(0.,0.,-1.));
#652=DIRECTION('center_axis',(0.,-1.,0.));
#653=DIRECTION('ref_axis',(-1.,0.,0.));
#654=DIRECTION('',(1.,0.,0.));
#655=DIRECTION('',(-1.,0.,0.));
#656=DIRECTION('',(0.,0.,-1.));
#657=DIRECTION('center_axis',(-0.707106781186548,-0.707106781186548,0.));
#658=DIRECTION('ref_axis',(-0.707106781186548,0.707106781186548,0.));
#659=DIRECTION('',(0.707106781186547,-0.707106781186547,0.));
#660=DIRECTION('',(-0.707106781186547,0.707106781186547,0.));
#661=DIRECTION('center_axis',(0.,1.,0.));
#662=DIRECTION('ref_axis',(1.,0.,0.));
#663=DIRECTION('',(-1.,0.,0.));
#664=DIRECTION('',(0.,0.,-1.));
#665=DIRECTION('',(1.,0.,0.));
#666=DIRECTION('',(0.,0.,-1.));
#667=DIRECTION('center_axis',(-0.707106781186548,0.707106781186548,0.));
#668=DIRECTION('ref_axis',(0.707106781186548,0.707106781186548,0.));
#669=DIRECTION('',(-0.707106781186547,-0.707106781186547,0.));
#670=DIRECTION('',(0.707106781186547,0.707106781186547,0.));
#671=DIRECTION('',(0.,0.,-1.));
#672=DIRECTION('center_axis',(-1.,0.,0.));
#673=DIRECTION('ref_axis',(0.,1.,0.));
#674=DIRECTION('',(0.,-1.,0.));
#675=DIRECTION('',(0.,1.,0.));
#676=DIRECTION('',(0.,0.,-1.));
#677=DIRECTION('center_axis',(-0.707106781186548,-0.707106781186548,0.));
#678=DIRECTION('ref_axis',(-0.707106781186548,0.707106781186548,0.));
#679=DIRECTION('',(0.707106781186547,-0.707106781186547,0.));
#680=DIRECTION('',(-0.707106781186547,0.707106781186547,0.));
#681=DIRECTION('',(0.,0.,-1.));
#682=DIRECTION('center_axis',(0.,-1.,0.));
#683=DIRECTION('ref_axis',(-1.,0.,0.));
#684=DIRECTION('',(1.,0.,0.));
#685=DIRECTION('',(-1.,0.,0.));
#686=DIRECTION('',(0.,0.,-1.));
#687=DIRECTION('center_axis',(0.707106781186548,-0.707106781186548,0.));
#688=DIRECTION('ref_axis',(-0.707106781186548,-0.707106781186548,0.));
#689=DIRECTION('',(0.707106781186547,0.707106781186547,0.));
#690=DIRECTION('',(-0.707106781186547,-0.707106781186547,0.));
#691=DIRECTION('',(0.,0.,-1.));
#692=DIRECTION('center_axis',(1.,0.,0.));
#693=DIRECTION('ref_axis',(0.,-1.,0.));
#694=DIRECTION('',(0.,1.,0.));
#695=DIRECTION('',(0.,-1.,0.));
#696=DIRECTION('',(0.,0.,-1.));
#697=DIRECTION('center_axis',(0.707106781186548,0.707106781186548,0.));
#698=DIRECTION('ref_axis',(0.707106781186548,-0.707106781186548,0.));
#699=DIRECTION('',(-0.707106781186547,0.707106781186547,0.));
#700=DIRECTION('',(0.707106781186547,-0.707106781186547,0.));
#701=DIRECTION('center_axis',(0.,0.,1.));
#702=DIRECTION('ref_axis',(1.,0.,0.));
#703=DIRECTION('center_axis',(0.,0.,-1.));
#704=DIRECTION('ref_axis',(-1.,0.,0.));
#705=CARTESIAN_POINT('',(0.,0.,0.));
#706=CARTESIAN_POINT('Origin',(-10.,0.,-10.5));
#707=CARTESIAN_POINT('',(-10.,-49.95,-10.5));
#708=CARTESIAN_POINT('',(-10.,-49.95,-23.5));
#709=CARTESIAN_POINT('',(-10.,-49.95,-5.25));
#710=CARTESIAN_POINT('',(-10.,-52.95,-10.5));
#711=CARTESIAN_POINT('',(-10.,0.,-10.5));
#712=CARTESIAN_POINT('',(-10.,-52.95,-23.5));
#713=CARTESIAN_POINT('',(-10.,-52.95,-5.25));
#714=CARTESIAN_POINT('',(-10.,0.,-23.5));
#715=CARTESIAN_POINT('Origin',(-10.,0.,-23.5));
#716=CARTESIAN_POINT('',(10.,-49.95,-23.5));
#717=CARTESIAN_POINT('',(-26.9754310985676,-49.95,-23.5));
#718=CARTESIAN_POINT('',(10.,-52.95,-23.5));
#719=CARTESIAN_POINT('',(17.5967514421272,-52.95,-23.5));
#720=CARTESIAN_POINT('',(10.,0.,-23.5));
#721=CARTESIAN_POINT('Origin',(10.,0.,-23.5));
#722=CARTESIAN_POINT('',(10.,-49.95,-10.5));
#723=CARTESIAN_POINT('',(10.,-49.95,-11.75));
#724=CARTESIAN_POINT('',(10.,-52.95,-10.5));
#725=CARTESIAN_POINT('',(10.,-52.95,-11.75));
#726=CARTESIAN_POINT('',(10.,0.,-10.5));
#727=CARTESIAN_POINT('Origin',(10.,0.,-10.5));
#728=CARTESIAN_POINT('',(-16.9754310985676,-49.95,-10.5));
#729=CARTESIAN_POINT('',(27.5967514421272,-52.95,-10.5));
#730=CARTESIAN_POINT('Origin',(0.,-7.,-20.));
#731=CARTESIAN_POINT('',(49.95,-7.,-20.));
#732=CARTESIAN_POINT('',(49.95,7.,-20.));
#733=CARTESIAN_POINT('',(49.95,-25.4754310985676,-20.));
#734=CARTESIAN_POINT('',(52.95,-7.,-20.));
#735=CARTESIAN_POINT('',(0.,-7.,-20.));
#736=CARTESIAN_POINT('',(52.95,7.,-20.));
#737=CARTESIAN_POINT('',(52.95,19.0967514421272,-20.));
#738=CARTESIAN_POINT('',(0.,7.,-20.));
#739=CARTESIAN_POINT('Origin',(0.,7.,-20.));
#740=CARTESIAN_POINT('',(49.95,7.,-11.8));
#741=CARTESIAN_POINT('',(49.95,7.,-10.));
#742=CARTESIAN_POINT('',(52.95,7.,-11.8));
#743=CARTESIAN_POINT('',(52.95,7.,-10.));
#744=CARTESIAN_POINT('',(0.,7.,-11.8));
#745=CARTESIAN_POINT('Origin',(0.,7.,-11.8));
#746=CARTESIAN_POINT('',(49.95,-7.,-11.8));
#747=CARTESIAN_POINT('',(49.95,-18.4754310985676,-11.8));
#748=CARTESIAN_POINT('',(52.95,-7.,-11.8));
#749=CARTESIAN_POINT('',(52.95,26.0967514421272,-11.8));
#750=CARTESIAN_POINT('',(0.,-7.,-11.8));
#751=CARTESIAN_POINT('Origin',(0.,-7.,-11.8));
#752=CARTESIAN_POINT('',(49.95,-7.,-5.9));
#753=CARTESIAN_POINT('',(52.95,-7.,-5.9));
#754=CARTESIAN_POINT('Origin',(49.95,-43.9508621971352,0.));
#755=CARTESIAN_POINT('',(49.95,43.9508621971352,0.));
#756=CARTESIAN_POINT('',(49.95,-43.9508621971352,0.));
#757=CARTESIAN_POINT('',(49.95,-43.9508621971352,0.));
#758=CARTESIAN_POINT('',(49.95,43.9508621971352,-30.));
#759=CARTESIAN_POINT('',(49.95,43.9508621971352,0.));
#760=CARTESIAN_POINT('',(49.95,-43.9508621971352,-30.));
#761=CARTESIAN_POINT('',(49.95,-43.9508621971352,-30.));
#762=CARTESIAN_POINT('',(49.95,-43.9508621971352,0.));
#763=CARTESIAN_POINT('Origin',(43.9508621971352,-49.95,0.));
#764=CARTESIAN_POINT('',(43.9508621971352,-49.95,0.));
#765=CARTESIAN_POINT('',(43.9508621971352,-49.95,0.));
#766=CARTESIAN_POINT('',(43.9508621971352,-49.95,-30.));
#767=CARTESIAN_POINT('',(43.9508621971352,-49.95,-30.));
#768=CARTESIAN_POINT('',(43.9508621971352,-49.95,0.));
#769=CARTESIAN_POINT('Origin',(-43.9508621971352,-49.95,0.));
#770=CARTESIAN_POINT('',(-43.9508621971352,-49.95,0.));
#771=CARTESIAN_POINT('',(-43.9508621971352,-49.95,0.));
#772=CARTESIAN_POINT('',(-43.9508621971352,-49.95,-30.));
#773=CARTESIAN_POINT('',(-43.9508621971352,-49.95,-30.));
#774=CARTESIAN_POINT('',(-43.9508621971352,-49.95,0.));
#775=CARTESIAN_POINT('Origin',(-49.95,-43.9508621971352,0.));
#776=CARTESIAN_POINT('',(-49.95,-43.9508621971352,0.));
#777=CARTESIAN_POINT('',(-49.95,-43.9508621971352,0.));
#778=CARTESIAN_POINT('',(-49.95,-43.9508621971352,-30.));
#779=CARTESIAN_POINT('',(-49.95,-43.9508621971352,-30.));
#780=CARTESIAN_POINT('',(-49.95,-43.9508621971352,0.));
#781=CARTESIAN_POINT('Origin',(-49.95,43.9508621971352,0.));
#782=CARTESIAN_POINT('',(-49.95,43.9508621971352,0.));
#783=CARTESIAN_POINT('',(-49.95,43.9508621971352,0.));
#784=CARTESIAN_POINT('',(-49.95,43.9508621971352,-30.));
#785=CARTESIAN_POINT('',(-49.95,43.9508621971352,-30.));
#786=CARTESIAN_POINT('',(-49.95,43.9508621971352,0.));
#787=CARTESIAN_POINT('Origin',(-43.9508621971352,49.95,0.));
#788=CARTESIAN_POINT('',(-43.9508621971352,49.95,0.));
#789=CARTESIAN_POINT('',(-43.9508621971352,49.95,0.));
#790=CARTESIAN_POINT('',(-43.9508621971352,49.95,-30.));
#791=CARTESIAN_POINT('',(-43.9508621971352,49.95,-30.));
#792=CARTESIAN_POINT('',(-43.9508621971352,49.95,0.));
#793=CARTESIAN_POINT('Origin',(43.9508621971352,49.95,0.));
#794=CARTESIAN_POINT('',(43.9508621971352,49.95,0.));
#795=CARTESIAN_POINT('',(43.9508621971352,49.95,0.));
#796=CARTESIAN_POINT('',(43.9508621971352,49.95,-30.));
#797=CARTESIAN_POINT('',(43.9508621971352,49.95,-30.));
#798=CARTESIAN_POINT('',(43.9508621971352,49.95,0.));
#799=CARTESIAN_POINT('Origin',(49.95,43.9508621971352,0.));
#800=CARTESIAN_POINT('',(49.95,43.9508621971352,0.));
#801=CARTESIAN_POINT('',(49.95,43.9508621971352,-30.));
#802=CARTESIAN_POINT('Origin',(-45.1935028842544,52.95,0.));
#803=CARTESIAN_POINT('',(45.1935028842544,52.95,0.));
#804=CARTESIAN_POINT('',(-45.1935028842544,52.95,0.));
#805=CARTESIAN_POINT('',(45.1935028842544,52.95,0.));
#806=CARTESIAN_POINT('',(45.1935028842544,52.95,-30.));
#807=CARTESIAN_POINT('',(45.1935028842544,52.95,0.));
#808=CARTESIAN_POINT('',(-45.1935028842544,52.95,-30.));
#809=CARTESIAN_POINT('',(45.1935028842544,52.95,-30.));
#810=CARTESIAN_POINT('',(-45.1935028842544,52.95,0.));
#811=CARTESIAN_POINT('Origin',(-52.95,45.1935028842544,0.));
#812=CARTESIAN_POINT('',(-52.95,45.1935028842544,0.));
#813=CARTESIAN_POINT('',(-45.1935028842544,52.95,0.));
#814=CARTESIAN_POINT('',(-52.95,45.1935028842544,-30.));
#815=CARTESIAN_POINT('',(-45.1935028842544,52.95,-30.));
#816=CARTESIAN_POINT('',(-52.95,45.1935028842544,0.));
#817=CARTESIAN_POINT('Origin',(-52.95,-45.1935028842544,0.));
#818=CARTESIAN_POINT('',(-52.95,-45.1935028842544,0.));
#819=CARTESIAN_POINT('',(-52.95,45.1935028842544,0.));
#820=CARTESIAN_POINT('',(-52.95,-45.1935028842544,-30.));
#821=CARTESIAN_POINT('',(-52.95,45.1935028842544,-30.));
#822=CARTESIAN_POINT('',(-52.95,-45.1935028842544,0.));
#823=CARTESIAN_POINT('Origin',(-45.1935028842544,-52.95,0.));
#824=CARTESIAN_POINT('',(-45.1935028842544,-52.95,0.));
#825=CARTESIAN_POINT('',(-52.95,-45.1935028842544,0.));
#826=CARTESIAN_POINT('',(-45.1935028842544,-52.95,-30.));
#827=CARTESIAN_POINT('',(-52.95,-45.1935028842544,-30.));
#828=CARTESIAN_POINT('',(-45.1935028842544,-52.95,0.));
#829=CARTESIAN_POINT('Origin',(45.1935028842544,-52.95,0.));
#830=CARTESIAN_POINT('',(45.1935028842544,-52.95,0.));
#831=CARTESIAN_POINT('',(-45.1935028842544,-52.95,0.));
#832=CARTESIAN_POINT('',(45.1935028842544,-52.95,-30.));
#833=CARTESIAN_POINT('',(-45.1935028842544,-52.95,-30.));
#834=CARTESIAN_POINT('',(45.1935028842544,-52.95,0.));
#835=CARTESIAN_POINT('Origin',(52.95,-45.1935028842544,0.));
#836=CARTESIAN_POINT('',(52.95,-45.1935028842544,0.));
#837=CARTESIAN_POINT('',(45.1935028842544,-52.95,0.));
#838=CARTESIAN_POINT('',(52.95,-45.1935028842544,-30.));
#839=CARTESIAN_POINT('',(45.1935028842544,-52.95,-30.));
#840=CARTESIAN_POINT('',(52.95,-45.1935028842544,0.));
#841=CARTESIAN_POINT('Origin',(52.95,45.1935028842544,0.));
#842=CARTESIAN_POINT('',(52.95,45.1935028842544,0.));
#843=CARTESIAN_POINT('',(52.95,-45.1935028842544,0.));
#844=CARTESIAN_POINT('',(52.95,45.1935028842544,-30.));
#845=CARTESIAN_POINT('',(52.95,-45.1935028842544,-30.));
#846=CARTESIAN_POINT('',(52.95,45.1935028842544,0.));
#847=CARTESIAN_POINT('Origin',(45.1935028842544,52.95,0.));
#848=CARTESIAN_POINT('',(52.95,45.1935028842544,0.));
#849=CARTESIAN_POINT('',(52.95,45.1935028842544,-30.));
#850=CARTESIAN_POINT('Origin',(0.,0.,0.));
#851=CARTESIAN_POINT('Origin',(0.,0.,-30.));
#852=UNCERTAINTY_MEASURE_WITH_UNIT(LENGTH_MEASURE(0.01),#856,
'DISTANCE_ACCURACY_VALUE',
'Maximum model space distance between geometric entities at asserted c
onnectivities');
#853=UNCERTAINTY_MEASURE_WITH_UNIT(LENGTH_MEASURE(0.01),#856,
'DISTANCE_ACCURACY_VALUE',
'Maximum model space distance between geometric entities at asserted c
onnectivities');
#854=(
GEOMETRIC_REPRESENTATION_CONTEXT(3)
GLOBAL_UNCERTAINTY_ASSIGNED_CONTEXT((#852))
GLOBAL_UNIT_ASSIGNED_CONTEXT((#856,#858,#859))
REPRESENTATION_CONTEXT('','3D')
);
#855=(
GEOMETRIC_REPRESENTATION_CONTEXT(3)
GLOBAL_UNCERTAINTY_ASSIGNED_CONTEXT((#853))
GLOBAL_UNIT_ASSIGNED_CONTEXT((#856,#858,#859))
REPRESENTATION_CONTEXT('','3D')
);
#856=(
LENGTH_UNIT()
NAMED_UNIT(*)
SI_UNIT(.MILLI.,.METRE.)
);
#857=(
LENGTH_UNIT()
NAMED_UNIT(*)
SI_UNIT($,.METRE.)
);
#858=(
NAMED_UNIT(*)
PLANE_ANGLE_UNIT()
SI_UNIT($,.RADIAN.)
);
#859=(
NAMED_UNIT(*)
SI_UNIT($,.STERADIAN.)
SOLID_ANGLE_UNIT()
);
#860=SHAPE_DEFINITION_REPRESENTATION(#861,#862);
#861=PRODUCT_DEFINITION_SHAPE('',$,#864);
#862=SHAPE_REPRESENTATION('',(#552),#854);
#863=PRODUCT_DEFINITION_CONTEXT('part definition',#868,'design');
#864=PRODUCT_DEFINITION('2026-09-30-21-20-31-199',
'Motor Plate Support Wall',#865,#863);
#865=PRODUCT_DEFINITION_FORMATION('',$,#870);
#866=PRODUCT_RELATED_PRODUCT_CATEGORY('Motor Plate Support Wall',
'Motor Plate Support Wall',(#870));
#867=APPLICATION_PROTOCOL_DEFINITION('international standard',
'automotive_design',2009,#868);
#868=APPLICATION_CONTEXT(
'Core Data for Automotive Mechanical Design Process');
#869=PRODUCT_CONTEXT('part definition',#868,'mechanical');
#870=PRODUCT('2026-09-30-21-20-31-199','Motor Plate Support Wall',$,(#869));
#871=PRESENTATION_STYLE_ASSIGNMENT((#872));
#872=SURFACE_STYLE_USAGE(.BOTH.,#873);
#873=SURFACE_SIDE_STYLE('',(#874));
#874=SURFACE_STYLE_FILL_AREA(#875);
#875=FILL_AREA_STYLE('Steel - Satin',(#876));
#876=FILL_AREA_STYLE_COLOUR('Steel - Satin',#877);
#877=COLOUR_RGB('Steel - Satin',0.627450980392157,0.627450980392157,0.627450980392157);
ENDSEC;
END-ISO-10303-21;
