ISO-10303-21;
HEADER;
/* Generated by software containing ST-Developer
 * from STEP Tools, Inc. (www.steptools.com) 
 */

FILE_DESCRIPTION(
/* description */ (''),
/* implementation_level */ '2;1');

FILE_NAME(
/* name */ 'Outer Dial Face.step',
/* author */ (''),
/* organization */ (''),
/* preprocessor_version */ 'ST-DEVELOPER v20.2',
/* originating_system */ 'Autodesk Translation Framework v15.15.0.0',
/* authorisation */ '');

FILE_SCHEMA (('AUTOMOTIVE_DESIGN { 1 0 10303 214 3 1 1 }'));
ENDSEC;

DATA;
#10=MECHANICAL_DESIGN_GEOMETRIC_PRESENTATION_REPRESENTATION('',(#13),#1909);
#11=SHAPE_REPRESENTATION_RELATIONSHIP('SRR','None',#1916,#12);
#12=ADVANCED_BREP_SHAPE_REPRESENTATION('',(#14),#1908);
#13=STYLED_ITEM('',(#1925),#14);
#14=MANIFOLD_SOLID_BREP('Outer dial face for FDM',#1125);
#15=FACE_BOUND('',#133,.T.);
#16=FACE_BOUND('',#134,.T.);
#17=FACE_BOUND('',#135,.T.);
#18=FACE_BOUND('',#136,.T.);
#19=FACE_BOUND('',#137,.T.);
#20=FACE_BOUND('',#138,.T.);
#21=FACE_BOUND('',#139,.T.);
#22=FACE_BOUND('',#181,.T.);
#23=FACE_BOUND('',#183,.T.);
#24=FACE_BOUND('',#186,.T.);
#25=FACE_BOUND('',#188,.T.);
#26=FACE_BOUND('',#190,.T.);
#27=FACE_BOUND('',#201,.T.);
#28=FACE_BOUND('',#202,.T.);
#29=FACE_BOUND('',#203,.T.);
#30=FACE_BOUND('',#204,.T.);
#31=FACE_BOUND('',#205,.T.);
#32=PLANE('',#1151);
#33=PLANE('',#1173);
#34=PLANE('',#1178);
#35=PLANE('',#1179);
#36=PLANE('',#1182);
#37=PLANE('',#1185);
#38=PLANE('',#1186);
#39=PLANE('',#1197);
#40=PLANE('',#1198);
#41=PLANE('',#1199);
#42=PLANE('',#1200);
#43=PLANE('',#1205);
#44=PLANE('',#1208);
#45=PLANE('',#1219);
#46=PLANE('',#1222);
#47=PLANE('',#1223);
#48=PLANE('',#1224);
#49=PLANE('',#1225);
#50=PLANE('',#1232);
#51=PLANE('',#1233);
#52=PLANE('',#1234);
#53=PLANE('',#1235);
#54=PLANE('',#1236);
#55=PLANE('',#1237);
#56=PLANE('',#1238);
#57=PLANE('',#1240);
#58=PLANE('',#1243);
#59=PLANE('',#1244);
#60=PLANE('',#1245);
#61=PLANE('',#1246);
#62=PLANE('',#1247);
#63=PLANE('',#1248);
#64=PLANE('',#1249);
#65=PLANE('',#1250);
#66=PLANE('',#1251);
#67=FACE_OUTER_BOUND('',#128,.T.);
#68=FACE_OUTER_BOUND('',#129,.T.);
#69=FACE_OUTER_BOUND('',#130,.T.);
#70=FACE_OUTER_BOUND('',#131,.T.);
#71=FACE_OUTER_BOUND('',#132,.T.);
#72=FACE_OUTER_BOUND('',#140,.T.);
#73=FACE_OUTER_BOUND('',#141,.T.);
#74=FACE_OUTER_BOUND('',#142,.T.);
#75=FACE_OUTER_BOUND('',#143,.T.);
#76=FACE_OUTER_BOUND('',#144,.T.);
#77=FACE_OUTER_BOUND('',#145,.T.);
#78=FACE_OUTER_BOUND('',#146,.T.);
#79=FACE_OUTER_BOUND('',#147,.T.);
#80=FACE_OUTER_BOUND('',#148,.T.);
#81=FACE_OUTER_BOUND('',#149,.T.);
#82=FACE_OUTER_BOUND('',#150,.T.);
#83=FACE_OUTER_BOUND('',#151,.T.);
#84=FACE_OUTER_BOUND('',#152,.T.);
#85=FACE_OUTER_BOUND('',#153,.T.);
#86=FACE_OUTER_BOUND('',#154,.T.);
#87=FACE_OUTER_BOUND('',#155,.T.);
#88=FACE_OUTER_BOUND('',#156,.T.);
#89=FACE_OUTER_BOUND('',#157,.T.);
#90=FACE_OUTER_BOUND('',#158,.T.);
#91=FACE_OUTER_BOUND('',#159,.T.);
#92=FACE_OUTER_BOUND('',#160,.T.);
#93=FACE_OUTER_BOUND('',#161,.T.);
#94=FACE_OUTER_BOUND('',#162,.T.);
#95=FACE_OUTER_BOUND('',#163,.T.);
#96=FACE_OUTER_BOUND('',#164,.T.);
#97=FACE_OUTER_BOUND('',#165,.T.);
#98=FACE_OUTER_BOUND('',#166,.T.);
#99=FACE_OUTER_BOUND('',#167,.T.);
#100=FACE_OUTER_BOUND('',#168,.T.);
#101=FACE_OUTER_BOUND('',#169,.T.);
#102=FACE_OUTER_BOUND('',#170,.T.);
#103=FACE_OUTER_BOUND('',#171,.T.);
#104=FACE_OUTER_BOUND('',#172,.T.);
#105=FACE_OUTER_BOUND('',#173,.T.);
#106=FACE_OUTER_BOUND('',#174,.T.);
#107=FACE_OUTER_BOUND('',#175,.T.);
#108=FACE_OUTER_BOUND('',#176,.T.);
#109=FACE_OUTER_BOUND('',#177,.T.);
#110=FACE_OUTER_BOUND('',#178,.T.);
#111=FACE_OUTER_BOUND('',#179,.T.);
#112=FACE_OUTER_BOUND('',#180,.T.);
#113=FACE_OUTER_BOUND('',#182,.T.);
#114=FACE_OUTER_BOUND('',#184,.T.);
#115=FACE_OUTER_BOUND('',#185,.T.);
#116=FACE_OUTER_BOUND('',#187,.T.);
#117=FACE_OUTER_BOUND('',#189,.T.);
#118=FACE_OUTER_BOUND('',#191,.T.);
#119=FACE_OUTER_BOUND('',#192,.T.);
#120=FACE_OUTER_BOUND('',#193,.T.);
#121=FACE_OUTER_BOUND('',#194,.T.);
#122=FACE_OUTER_BOUND('',#195,.T.);
#123=FACE_OUTER_BOUND('',#196,.T.);
#124=FACE_OUTER_BOUND('',#197,.T.);
#125=FACE_OUTER_BOUND('',#198,.T.);
#126=FACE_OUTER_BOUND('',#199,.T.);
#127=FACE_OUTER_BOUND('',#200,.T.);
#128=EDGE_LOOP('',(#726,#727,#728,#729));
#129=EDGE_LOOP('',(#730,#731,#732,#733));
#130=EDGE_LOOP('',(#734,#735,#736,#737));
#131=EDGE_LOOP('',(#738,#739,#740,#741));
#132=EDGE_LOOP('',(#742,#743,#744,#745,#746,#747,#748,#749));
#133=EDGE_LOOP('',(#750,#751,#752,#753));
#134=EDGE_LOOP('',(#754,#755,#756,#757,#758,#759,#760,#761,#762,#763,#764));
#135=EDGE_LOOP('',(#765,#766,#767,#768,#769,#770,#771));
#136=EDGE_LOOP('',(#772,#773,#774,#775));
#137=EDGE_LOOP('',(#776,#777,#778,#779,#780,#781,#782));
#138=EDGE_LOOP('',(#783));
#139=EDGE_LOOP('',(#784,#785,#786,#787,#788));
#140=EDGE_LOOP('',(#789,#790,#791,#792));
#141=EDGE_LOOP('',(#793,#794,#795,#796));
#142=EDGE_LOOP('',(#797,#798,#799,#800));
#143=EDGE_LOOP('',(#801,#802,#803,#804));
#144=EDGE_LOOP('',(#805,#806,#807,#808));
#145=EDGE_LOOP('',(#809,#810,#811,#812));
#146=EDGE_LOOP('',(#813,#814,#815,#816));
#147=EDGE_LOOP('',(#817,#818,#819,#820));
#148=EDGE_LOOP('',(#821,#822,#823,#824));
#149=EDGE_LOOP('',(#825,#826,#827,#828));
#150=EDGE_LOOP('',(#829,#830,#831,#832));
#151=EDGE_LOOP('',(#833,#834,#835,#836));
#152=EDGE_LOOP('',(#837,#838,#839,#840));
#153=EDGE_LOOP('',(#841,#842,#843,#844));
#154=EDGE_LOOP('',(#845,#846,#847,#848));
#155=EDGE_LOOP('',(#849,#850,#851,#852));
#156=EDGE_LOOP('',(#853,#854,#855,#856));
#157=EDGE_LOOP('',(#857,#858,#859,#860));
#158=EDGE_LOOP('',(#861,#862,#863,#864));
#159=EDGE_LOOP('',(#865,#866,#867,#868));
#160=EDGE_LOOP('',(#869,#870,#871,#872));
#161=EDGE_LOOP('',(#873,#874,#875,#876));
#162=EDGE_LOOP('',(#877,#878,#879,#880));
#163=EDGE_LOOP('',(#881,#882,#883,#884));
#164=EDGE_LOOP('',(#885,#886,#887,#888));
#165=EDGE_LOOP('',(#889,#890,#891,#892));
#166=EDGE_LOOP('',(#893,#894,#895,#896));
#167=EDGE_LOOP('',(#897,#898,#899,#900));
#168=EDGE_LOOP('',(#901,#902,#903,#904));
#169=EDGE_LOOP('',(#905,#906,#907,#908));
#170=EDGE_LOOP('',(#909,#910,#911,#912));
#171=EDGE_LOOP('',(#913,#914,#915,#916));
#172=EDGE_LOOP('',(#917,#918,#919,#920));
#173=EDGE_LOOP('',(#921,#922,#923,#924));
#174=EDGE_LOOP('',(#925,#926,#927,#928));
#175=EDGE_LOOP('',(#929,#930,#931,#932));
#176=EDGE_LOOP('',(#933,#934,#935,#936));
#177=EDGE_LOOP('',(#937,#938,#939,#940));
#178=EDGE_LOOP('',(#941,#942,#943,#944));
#179=EDGE_LOOP('',(#945,#946,#947,#948));
#180=EDGE_LOOP('',(#949,#950,#951,#952,#953));
#181=EDGE_LOOP('',(#954));
#182=EDGE_LOOP('',(#955,#956,#957,#958,#959,#960,#961));
#183=EDGE_LOOP('',(#962));
#184=EDGE_LOOP('',(#963,#964,#965,#966));
#185=EDGE_LOOP('',(#967,#968,#969,#970,#971,#972,#973));
#186=EDGE_LOOP('',(#974));
#187=EDGE_LOOP('',(#975));
#188=EDGE_LOOP('',(#976));
#189=EDGE_LOOP('',(#977,#978,#979,#980,#981,#982,#983,#984,#985,#986,#987));
#190=EDGE_LOOP('',(#988));
#191=EDGE_LOOP('',(#989,#990,#991,#992));
#192=EDGE_LOOP('',(#993,#994,#995,#996));
#193=EDGE_LOOP('',(#997,#998,#999,#1000));
#194=EDGE_LOOP('',(#1001,#1002,#1003,#1004));
#195=EDGE_LOOP('',(#1005,#1006,#1007,#1008));
#196=EDGE_LOOP('',(#1009,#1010,#1011,#1012));
#197=EDGE_LOOP('',(#1013,#1014,#1015,#1016));
#198=EDGE_LOOP('',(#1017,#1018,#1019,#1020));
#199=EDGE_LOOP('',(#1021,#1022,#1023,#1024));
#200=EDGE_LOOP('',(#1025,#1026,#1027,#1028,#1029,#1030,#1031,#1032));
#201=EDGE_LOOP('',(#1033));
#202=EDGE_LOOP('',(#1034));
#203=EDGE_LOOP('',(#1035));
#204=EDGE_LOOP('',(#1036));
#205=EDGE_LOOP('',(#1037));
#206=LINE('',#1589,#310);
#207=LINE('',#1595,#311);
#208=LINE('',#1601,#312);
#209=LINE('',#1607,#313);
#210=LINE('',#1612,#314);
#211=LINE('',#1614,#315);
#212=LINE('',#1616,#316);
#213=LINE('',#1618,#317);
#214=LINE('',#1620,#318);
#215=LINE('',#1622,#319);
#216=LINE('',#1624,#320);
#217=LINE('',#1625,#321);
#218=LINE('',#1628,#322);
#219=LINE('',#1638,#323);
#220=LINE('',#1640,#324);
#221=LINE('',#1648,#325);
#222=LINE('',#1650,#326);
#223=LINE('',#1654,#327);
#224=LINE('',#1655,#328);
#225=LINE('',#1662,#329);
#226=LINE('',#1664,#330);
#227=LINE('',#1677,#331);
#228=LINE('',#1680,#332);
#229=LINE('',#1688,#333);
#230=LINE('',#1690,#334);
#231=LINE('',#1691,#335);
#232=LINE('',#1698,#336);
#233=LINE('',#1700,#337);
#234=LINE('',#1702,#338);
#235=LINE('',#1703,#339);
#236=LINE('',#1706,#340);
#237=LINE('',#1708,#341);
#238=LINE('',#1709,#342);
#239=LINE('',#1712,#343);
#240=LINE('',#1715,#344);
#241=LINE('',#1719,#345);
#242=LINE('',#1722,#346);
#243=LINE('',#1723,#347);
#244=LINE('',#1726,#348);
#245=LINE('',#1727,#349);
#246=LINE('',#1731,#350);
#247=LINE('',#1733,#351);
#248=LINE('',#1737,#352);
#249=LINE('',#1740,#353);
#250=LINE('',#1741,#354);
#251=LINE('',#1744,#355);
#252=LINE('',#1745,#356);
#253=LINE('',#1751,#357);
#254=LINE('',#1754,#358);
#255=LINE('',#1757,#359);
#256=LINE('',#1761,#360);
#257=LINE('',#1765,#361);
#258=LINE('',#1768,#362);
#259=LINE('',#1769,#363);
#260=LINE('',#1772,#364);
#261=LINE('',#1773,#365);
#262=LINE('',#1776,#366);
#263=LINE('',#1777,#367);
#264=LINE('',#1779,#368);
#265=LINE('',#1782,#369);
#266=LINE('',#1785,#370);
#267=LINE('',#1789,#371);
#268=LINE('',#1792,#372);
#269=LINE('',#1793,#373);
#270=LINE('',#1798,#374);
#271=LINE('',#1800,#375);
#272=LINE('',#1801,#376);
#273=LINE('',#1805,#377);
#274=LINE('',#1809,#378);
#275=LINE('',#1813,#379);
#276=LINE('',#1817,#380);
#277=LINE('',#1821,#381);
#278=LINE('',#1823,#382);
#279=LINE('',#1826,#383);
#280=LINE('',#1829,#384);
#281=LINE('',#1832,#385);
#282=LINE('',#1833,#386);
#283=LINE('',#1836,#387);
#284=LINE('',#1837,#388);
#285=LINE('',#1840,#389);
#286=LINE('',#1841,#390);
#287=LINE('',#1843,#391);
#288=LINE('',#1846,#392);
#289=LINE('',#1849,#393);
#290=LINE('',#1853,#394);
#291=LINE('',#1857,#395);
#292=LINE('',#1859,#396);
#293=LINE('',#1871,#397);
#294=LINE('',#1876,#398);
#295=LINE('',#1877,#399);
#296=LINE('',#1878,#400);
#297=LINE('',#1881,#401);
#298=LINE('',#1882,#402);
#299=LINE('',#1885,#403);
#300=LINE('',#1886,#404);
#301=LINE('',#1889,#405);
#302=LINE('',#1890,#406);
#303=LINE('',#1893,#407);
#304=LINE('',#1894,#408);
#305=LINE('',#1897,#409);
#306=LINE('',#1898,#410);
#307=LINE('',#1901,#411);
#308=LINE('',#1902,#412);
#309=LINE('',#1904,#413);
#310=VECTOR('',#1258,1.3);
#311=VECTOR('',#1265,1.3);
#312=VECTOR('',#1272,1.30000000000001);
#313=VECTOR('',#1279,1.30000000000001);
#314=VECTOR('',#1284,10.);
#315=VECTOR('',#1285,10.);
#316=VECTOR('',#1286,10.);
#317=VECTOR('',#1287,10.);
#318=VECTOR('',#1288,10.);
#319=VECTOR('',#1289,10.);
#320=VECTOR('',#1290,10.);
#321=VECTOR('',#1291,10.);
#322=VECTOR('',#1292,10.);
#323=VECTOR('',#1301,10.);
#324=VECTOR('',#1302,10.);
#325=VECTOR('',#1309,10.);
#326=VECTOR('',#1310,10.);
#327=VECTOR('',#1313,10.);
#328=VECTOR('',#1314,10.);
#329=VECTOR('',#1319,10.);
#330=VECTOR('',#1320,10.);
#331=VECTOR('',#1333,10.);
#332=VECTOR('',#1334,10.);
#333=VECTOR('',#1341,10.);
#334=VECTOR('',#1342,10.);
#335=VECTOR('',#1343,10.);
#336=VECTOR('',#1348,10.);
#337=VECTOR('',#1349,10.);
#338=VECTOR('',#1350,10.);
#339=VECTOR('',#1351,10.);
#340=VECTOR('',#1354,10.);
#341=VECTOR('',#1355,10.);
#342=VECTOR('',#1356,10.);
#343=VECTOR('',#1359,10.);
#344=VECTOR('',#1362,10.);
#345=VECTOR('',#1367,10.);
#346=VECTOR('',#1370,10.);
#347=VECTOR('',#1371,10.);
#348=VECTOR('',#1374,10.);
#349=VECTOR('',#1375,10.);
#350=VECTOR('',#1380,10.);
#351=VECTOR('',#1383,10.);
#352=VECTOR('',#1388,10.);
#353=VECTOR('',#1391,10.);
#354=VECTOR('',#1392,10.);
#355=VECTOR('',#1395,10.);
#356=VECTOR('',#1396,10.);
#357=VECTOR('',#1405,46.1104424357958);
#358=VECTOR('',#1408,10.);
#359=VECTOR('',#1411,10.);
#360=VECTOR('',#1416,10.);
#361=VECTOR('',#1421,10.);
#362=VECTOR('',#1424,10.);
#363=VECTOR('',#1425,10.);
#364=VECTOR('',#1428,10.);
#365=VECTOR('',#1429,10.);
#366=VECTOR('',#1432,10.);
#367=VECTOR('',#1433,10.);
#368=VECTOR('',#1436,10.);
#369=VECTOR('',#1439,10.);
#370=VECTOR('',#1442,10.);
#371=VECTOR('',#1447,10.);
#372=VECTOR('',#1450,10.);
#373=VECTOR('',#1451,10.);
#374=VECTOR('',#1458,10.);
#375=VECTOR('',#1459,10.);
#376=VECTOR('',#1460,10.);
#377=VECTOR('',#1465,10.);
#378=VECTOR('',#1470,10.);
#379=VECTOR('',#1475,10.);
#380=VECTOR('',#1480,10.);
#381=VECTOR('',#1485,10.);
#382=VECTOR('',#1488,10.);
#383=VECTOR('',#1491,10.);
#384=VECTOR('',#1494,10.);
#385=VECTOR('',#1497,10.);
#386=VECTOR('',#1498,10.);
#387=VECTOR('',#1501,10.);
#388=VECTOR('',#1502,10.);
#389=VECTOR('',#1505,10.);
#390=VECTOR('',#1506,10.);
#391=VECTOR('',#1509,10.);
#392=VECTOR('',#1512,10.);
#393=VECTOR('',#1515,10.);
#394=VECTOR('',#1520,10.);
#395=VECTOR('',#1525,10.);
#396=VECTOR('',#1528,10.);
#397=VECTOR('',#1547,45.6766341789332);
#398=VECTOR('',#1552,10.);
#399=VECTOR('',#1553,10.);
#400=VECTOR('',#1554,10.);
#401=VECTOR('',#1557,10.);
#402=VECTOR('',#1558,10.);
#403=VECTOR('',#1561,10.);
#404=VECTOR('',#1562,10.);
#405=VECTOR('',#1565,10.);
#406=VECTOR('',#1566,10.);
#407=VECTOR('',#1569,10.);
#408=VECTOR('',#1570,10.);
#409=VECTOR('',#1573,10.);
#410=VECTOR('',#1574,10.);
#411=VECTOR('',#1577,10.);
#412=VECTOR('',#1578,10.);
#413=VECTOR('',#1581,10.);
#414=CIRCLE('',#1140,1.3);
#415=CIRCLE('',#1141,1.3);
#416=CIRCLE('',#1143,1.3);
#417=CIRCLE('',#1144,1.3);
#418=CIRCLE('',#1146,1.30000000000001);
#419=CIRCLE('',#1147,1.30000000000001);
#420=CIRCLE('',#1149,1.30000000000001);
#421=CIRCLE('',#1150,1.30000000000001);
#422=CIRCLE('',#1152,195.173272701776);
#423=CIRCLE('',#1153,48.);
#424=CIRCLE('',#1154,212.586898323294);
#425=CIRCLE('',#1155,1.00000000000001);
#426=CIRCLE('',#1156,212.586898323293);
#427=CIRCLE('',#1157,48.);
#428=CIRCLE('',#1158,195.173272701776);
#429=CIRCLE('',#1159,212.586898323293);
#430=CIRCLE('',#1160,0.540732248269116);
#431=CIRCLE('',#1161,202.117522181003);
#432=CIRCLE('',#1162,193.815088372671);
#433=CIRCLE('',#1163,48.);
#434=CIRCLE('',#1164,202.117522181003);
#435=CIRCLE('',#1165,202.117522181);
#436=CIRCLE('',#1166,48.);
#437=CIRCLE('',#1167,193.815088372671);
#438=CIRCLE('',#1168,213.028371948435);
#439=CIRCLE('',#1169,48.);
#440=CIRCLE('',#1170,213.028371948435);
#441=CIRCLE('',#1171,46.1104424357958);
#442=CIRCLE('',#1172,212.882175497552);
#443=CIRCLE('',#1175,48.);
#444=CIRCLE('',#1177,195.173272701776);
#445=CIRCLE('',#1181,212.586898323293);
#446=CIRCLE('',#1184,1.00000000000001);
#447=CIRCLE('',#1188,212.586898323293);
#448=CIRCLE('',#1190,46.1104424357958);
#449=CIRCLE('',#1192,213.028371948435);
#450=CIRCLE('',#1194,48.);
#451=CIRCLE('',#1196,213.028371948435);
#452=CIRCLE('',#1202,48.);
#453=CIRCLE('',#1204,193.815088372671);
#454=CIRCLE('',#1207,202.117522181);
#455=CIRCLE('',#1210,193.815088372671);
#456=CIRCLE('',#1212,48.);
#457=CIRCLE('',#1214,202.117522181003);
#458=CIRCLE('',#1216,0.540732248269116);
#459=CIRCLE('',#1218,202.117522181003);
#460=CIRCLE('',#1221,212.882175497552);
#461=CIRCLE('',#1227,195.173272701776);
#462=CIRCLE('',#1229,48.);
#463=CIRCLE('',#1231,212.586898323294);
#464=CIRCLE('',#1239,45.6766341789332);
#465=CIRCLE('',#1242,45.6766341789332);
#466=VERTEX_POINT('',#1586);
#467=VERTEX_POINT('',#1588);
#468=VERTEX_POINT('',#1592);
#469=VERTEX_POINT('',#1594);
#470=VERTEX_POINT('',#1598);
#471=VERTEX_POINT('',#1600);
#472=VERTEX_POINT('',#1604);
#473=VERTEX_POINT('',#1606);
#474=VERTEX_POINT('',#1610);
#475=VERTEX_POINT('',#1611);
#476=VERTEX_POINT('',#1613);
#477=VERTEX_POINT('',#1615);
#478=VERTEX_POINT('',#1617);
#479=VERTEX_POINT('',#1619);
#480=VERTEX_POINT('',#1621);
#481=VERTEX_POINT('',#1623);
#482=VERTEX_POINT('',#1626);
#483=VERTEX_POINT('',#1627);
#484=VERTEX_POINT('',#1629);
#485=VERTEX_POINT('',#1631);
#486=VERTEX_POINT('',#1634);
#487=VERTEX_POINT('',#1635);
#488=VERTEX_POINT('',#1637);
#489=VERTEX_POINT('',#1639);
#490=VERTEX_POINT('',#1641);
#491=VERTEX_POINT('',#1643);
#492=VERTEX_POINT('',#1645);
#493=VERTEX_POINT('',#1647);
#494=VERTEX_POINT('',#1649);
#495=VERTEX_POINT('',#1651);
#496=VERTEX_POINT('',#1653);
#497=VERTEX_POINT('',#1656);
#498=VERTEX_POINT('',#1657);
#499=VERTEX_POINT('',#1659);
#500=VERTEX_POINT('',#1661);
#501=VERTEX_POINT('',#1663);
#502=VERTEX_POINT('',#1665);
#503=VERTEX_POINT('',#1667);
#504=VERTEX_POINT('',#1670);
#505=VERTEX_POINT('',#1671);
#506=VERTEX_POINT('',#1673);
#507=VERTEX_POINT('',#1675);
#508=VERTEX_POINT('',#1678);
#509=VERTEX_POINT('',#1679);
#510=VERTEX_POINT('',#1681);
#511=VERTEX_POINT('',#1683);
#512=VERTEX_POINT('',#1685);
#513=VERTEX_POINT('',#1687);
#514=VERTEX_POINT('',#1689);
#515=VERTEX_POINT('',#1692);
#516=VERTEX_POINT('',#1694);
#517=VERTEX_POINT('',#1695);
#518=VERTEX_POINT('',#1697);
#519=VERTEX_POINT('',#1699);
#520=VERTEX_POINT('',#1701);
#521=VERTEX_POINT('',#1705);
#522=VERTEX_POINT('',#1707);
#523=VERTEX_POINT('',#1711);
#524=VERTEX_POINT('',#1713);
#525=VERTEX_POINT('',#1717);
#526=VERTEX_POINT('',#1721);
#527=VERTEX_POINT('',#1725);
#528=VERTEX_POINT('',#1729);
#529=VERTEX_POINT('',#1735);
#530=VERTEX_POINT('',#1739);
#531=VERTEX_POINT('',#1743);
#532=VERTEX_POINT('',#1749);
#533=VERTEX_POINT('',#1753);
#534=VERTEX_POINT('',#1755);
#535=VERTEX_POINT('',#1759);
#536=VERTEX_POINT('',#1763);
#537=VERTEX_POINT('',#1767);
#538=VERTEX_POINT('',#1771);
#539=VERTEX_POINT('',#1775);
#540=VERTEX_POINT('',#1781);
#541=VERTEX_POINT('',#1783);
#542=VERTEX_POINT('',#1787);
#543=VERTEX_POINT('',#1791);
#544=VERTEX_POINT('',#1797);
#545=VERTEX_POINT('',#1799);
#546=VERTEX_POINT('',#1803);
#547=VERTEX_POINT('',#1807);
#548=VERTEX_POINT('',#1811);
#549=VERTEX_POINT('',#1815);
#550=VERTEX_POINT('',#1819);
#551=VERTEX_POINT('',#1825);
#552=VERTEX_POINT('',#1827);
#553=VERTEX_POINT('',#1831);
#554=VERTEX_POINT('',#1835);
#555=VERTEX_POINT('',#1839);
#556=VERTEX_POINT('',#1845);
#557=VERTEX_POINT('',#1847);
#558=VERTEX_POINT('',#1851);
#559=VERTEX_POINT('',#1855);
#560=VERTEX_POINT('',#1866);
#561=VERTEX_POINT('',#1870);
#562=VERTEX_POINT('',#1874);
#563=VERTEX_POINT('',#1875);
#564=VERTEX_POINT('',#1880);
#565=VERTEX_POINT('',#1884);
#566=VERTEX_POINT('',#1888);
#567=VERTEX_POINT('',#1892);
#568=VERTEX_POINT('',#1896);
#569=VERTEX_POINT('',#1900);
#570=EDGE_CURVE('',#466,#466,#414,.T.);
#571=EDGE_CURVE('',#466,#467,#206,.T.);
#572=EDGE_CURVE('',#467,#467,#415,.T.);
#573=EDGE_CURVE('',#468,#468,#416,.T.);
#574=EDGE_CURVE('',#468,#469,#207,.T.);
#575=EDGE_CURVE('',#469,#469,#417,.T.);
#576=EDGE_CURVE('',#470,#470,#418,.T.);
#577=EDGE_CURVE('',#470,#471,#208,.T.);
#578=EDGE_CURVE('',#471,#471,#419,.T.);
#579=EDGE_CURVE('',#472,#472,#420,.T.);
#580=EDGE_CURVE('',#472,#473,#209,.T.);
#581=EDGE_CURVE('',#473,#473,#421,.T.);
#582=EDGE_CURVE('',#474,#475,#210,.T.);
#583=EDGE_CURVE('',#475,#476,#211,.T.);
#584=EDGE_CURVE('',#476,#477,#212,.T.);
#585=EDGE_CURVE('',#477,#478,#213,.T.);
#586=EDGE_CURVE('',#478,#479,#214,.T.);
#587=EDGE_CURVE('',#480,#479,#215,.F.);
#588=EDGE_CURVE('',#480,#481,#216,.T.);
#589=EDGE_CURVE('',#474,#481,#217,.F.);
#590=EDGE_CURVE('',#482,#483,#218,.T.);
#591=EDGE_CURVE('',#483,#484,#422,.T.);
#592=EDGE_CURVE('',#484,#485,#423,.T.);
#593=EDGE_CURVE('',#485,#482,#424,.T.);
#594=EDGE_CURVE('',#486,#487,#425,.T.);
#595=EDGE_CURVE('',#487,#488,#219,.T.);
#596=EDGE_CURVE('',#488,#489,#220,.T.);
#597=EDGE_CURVE('',#489,#490,#426,.T.);
#598=EDGE_CURVE('',#490,#491,#427,.T.);
#599=EDGE_CURVE('',#491,#492,#428,.T.);
#600=EDGE_CURVE('',#492,#493,#221,.T.);
#601=EDGE_CURVE('',#493,#494,#222,.T.);
#602=EDGE_CURVE('',#494,#495,#429,.T.);
#603=EDGE_CURVE('',#495,#496,#223,.T.);
#604=EDGE_CURVE('',#496,#486,#224,.T.);
#605=EDGE_CURVE('',#497,#498,#430,.T.);
#606=EDGE_CURVE('',#498,#499,#431,.T.);
#607=EDGE_CURVE('',#499,#500,#225,.T.);
#608=EDGE_CURVE('',#500,#501,#226,.T.);
#609=EDGE_CURVE('',#501,#502,#432,.T.);
#610=EDGE_CURVE('',#502,#503,#433,.T.);
#611=EDGE_CURVE('',#503,#497,#434,.T.);
#612=EDGE_CURVE('',#504,#505,#435,.T.);
#613=EDGE_CURVE('',#505,#506,#436,.T.);
#614=EDGE_CURVE('',#506,#507,#437,.T.);
#615=EDGE_CURVE('',#507,#504,#227,.T.);
#616=EDGE_CURVE('',#508,#509,#228,.T.);
#617=EDGE_CURVE('',#509,#510,#438,.T.);
#618=EDGE_CURVE('',#510,#511,#439,.T.);
#619=EDGE_CURVE('',#511,#512,#440,.T.);
#620=EDGE_CURVE('',#512,#513,#229,.T.);
#621=EDGE_CURVE('',#513,#514,#230,.T.);
#622=EDGE_CURVE('',#514,#508,#231,.T.);
#623=EDGE_CURVE('',#515,#515,#441,.T.);
#624=EDGE_CURVE('',#516,#517,#442,.T.);
#625=EDGE_CURVE('',#517,#518,#232,.T.);
#626=EDGE_CURVE('',#518,#519,#233,.T.);
#627=EDGE_CURVE('',#519,#520,#234,.T.);
#628=EDGE_CURVE('',#520,#516,#235,.T.);
#629=EDGE_CURVE('',#521,#486,#236,.T.);
#630=EDGE_CURVE('',#496,#522,#237,.T.);
#631=EDGE_CURVE('',#521,#522,#238,.T.);
#632=EDGE_CURVE('',#490,#523,#239,.T.);
#633=EDGE_CURVE('',#524,#523,#443,.T.);
#634=EDGE_CURVE('',#491,#524,#240,.T.);
#635=EDGE_CURVE('',#525,#524,#444,.T.);
#636=EDGE_CURVE('',#492,#525,#241,.T.);
#637=EDGE_CURVE('',#526,#525,#242,.T.);
#638=EDGE_CURVE('',#493,#526,#243,.T.);
#639=EDGE_CURVE('',#527,#526,#244,.T.);
#640=EDGE_CURVE('',#494,#527,#245,.T.);
#641=EDGE_CURVE('',#528,#527,#445,.T.);
#642=EDGE_CURVE('',#495,#528,#246,.T.);
#643=EDGE_CURVE('',#522,#528,#247,.T.);
#644=EDGE_CURVE('',#529,#521,#446,.T.);
#645=EDGE_CURVE('',#487,#529,#248,.T.);
#646=EDGE_CURVE('',#530,#529,#249,.T.);
#647=EDGE_CURVE('',#488,#530,#250,.T.);
#648=EDGE_CURVE('',#531,#530,#251,.T.);
#649=EDGE_CURVE('',#489,#531,#252,.T.);
#650=EDGE_CURVE('',#523,#531,#447,.T.);
#651=EDGE_CURVE('',#532,#532,#448,.T.);
#652=EDGE_CURVE('',#532,#515,#253,.T.);
#653=EDGE_CURVE('',#509,#533,#254,.T.);
#654=EDGE_CURVE('',#534,#533,#449,.T.);
#655=EDGE_CURVE('',#510,#534,#255,.T.);
#656=EDGE_CURVE('',#535,#534,#450,.T.);
#657=EDGE_CURVE('',#511,#535,#256,.T.);
#658=EDGE_CURVE('',#536,#535,#451,.T.);
#659=EDGE_CURVE('',#512,#536,#257,.T.);
#660=EDGE_CURVE('',#537,#536,#258,.T.);
#661=EDGE_CURVE('',#513,#537,#259,.T.);
#662=EDGE_CURVE('',#538,#537,#260,.T.);
#663=EDGE_CURVE('',#514,#538,#261,.T.);
#664=EDGE_CURVE('',#539,#538,#262,.T.);
#665=EDGE_CURVE('',#508,#539,#263,.T.);
#666=EDGE_CURVE('',#533,#539,#264,.T.);
#667=EDGE_CURVE('',#505,#540,#265,.T.);
#668=EDGE_CURVE('',#541,#540,#452,.T.);
#669=EDGE_CURVE('',#506,#541,#266,.T.);
#670=EDGE_CURVE('',#542,#541,#453,.T.);
#671=EDGE_CURVE('',#507,#542,#267,.T.);
#672=EDGE_CURVE('',#543,#542,#268,.T.);
#673=EDGE_CURVE('',#504,#543,#269,.T.);
#674=EDGE_CURVE('',#540,#543,#454,.T.);
#675=EDGE_CURVE('',#500,#544,#270,.T.);
#676=EDGE_CURVE('',#545,#544,#271,.T.);
#677=EDGE_CURVE('',#501,#545,#272,.T.);
#678=EDGE_CURVE('',#546,#545,#455,.T.);
#679=EDGE_CURVE('',#502,#546,#273,.T.);
#680=EDGE_CURVE('',#547,#546,#456,.T.);
#681=EDGE_CURVE('',#503,#547,#274,.T.);
#682=EDGE_CURVE('',#548,#547,#457,.T.);
#683=EDGE_CURVE('',#497,#548,#275,.T.);
#684=EDGE_CURVE('',#549,#548,#458,.T.);
#685=EDGE_CURVE('',#498,#549,#276,.T.);
#686=EDGE_CURVE('',#550,#549,#459,.T.);
#687=EDGE_CURVE('',#499,#550,#277,.T.);
#688=EDGE_CURVE('',#544,#550,#278,.T.);
#689=EDGE_CURVE('',#516,#551,#279,.T.);
#690=EDGE_CURVE('',#552,#551,#460,.T.);
#691=EDGE_CURVE('',#517,#552,#280,.T.);
#692=EDGE_CURVE('',#553,#552,#281,.T.);
#693=EDGE_CURVE('',#518,#553,#282,.T.);
#694=EDGE_CURVE('',#554,#553,#283,.T.);
#695=EDGE_CURVE('',#519,#554,#284,.T.);
#696=EDGE_CURVE('',#555,#554,#285,.T.);
#697=EDGE_CURVE('',#520,#555,#286,.T.);
#698=EDGE_CURVE('',#551,#555,#287,.T.);
#699=EDGE_CURVE('',#483,#556,#288,.T.);
#700=EDGE_CURVE('',#557,#556,#461,.T.);
#701=EDGE_CURVE('',#484,#557,#289,.T.);
#702=EDGE_CURVE('',#558,#557,#462,.T.);
#703=EDGE_CURVE('',#485,#558,#290,.T.);
#704=EDGE_CURVE('',#559,#558,#463,.T.);
#705=EDGE_CURVE('',#482,#559,#291,.T.);
#706=EDGE_CURVE('',#556,#559,#292,.T.);
#707=EDGE_CURVE('',#560,#560,#464,.F.);
#708=EDGE_CURVE('',#560,#561,#293,.T.);
#709=EDGE_CURVE('',#561,#561,#465,.T.);
#710=EDGE_CURVE('',#562,#563,#294,.T.);
#711=EDGE_CURVE('',#563,#479,#295,.T.);
#712=EDGE_CURVE('',#562,#478,#296,.T.);
#713=EDGE_CURVE('',#564,#562,#297,.T.);
#714=EDGE_CURVE('',#564,#477,#298,.T.);
#715=EDGE_CURVE('',#565,#564,#299,.T.);
#716=EDGE_CURVE('',#565,#476,#300,.T.);
#717=EDGE_CURVE('',#566,#565,#301,.T.);
#718=EDGE_CURVE('',#566,#475,#302,.T.);
#719=EDGE_CURVE('',#567,#566,#303,.T.);
#720=EDGE_CURVE('',#567,#474,#304,.T.);
#721=EDGE_CURVE('',#568,#567,#305,.T.);
#722=EDGE_CURVE('',#568,#481,#306,.T.);
#723=EDGE_CURVE('',#569,#568,#307,.T.);
#724=EDGE_CURVE('',#569,#480,#308,.T.);
#725=EDGE_CURVE('',#563,#569,#309,.T.);
#726=ORIENTED_EDGE('',*,*,#570,.F.);
#727=ORIENTED_EDGE('',*,*,#571,.T.);
#728=ORIENTED_EDGE('',*,*,#572,.F.);
#729=ORIENTED_EDGE('',*,*,#571,.F.);
#730=ORIENTED_EDGE('',*,*,#573,.F.);
#731=ORIENTED_EDGE('',*,*,#574,.T.);
#732=ORIENTED_EDGE('',*,*,#575,.F.);
#733=ORIENTED_EDGE('',*,*,#574,.F.);
#734=ORIENTED_EDGE('',*,*,#576,.F.);
#735=ORIENTED_EDGE('',*,*,#577,.T.);
#736=ORIENTED_EDGE('',*,*,#578,.F.);
#737=ORIENTED_EDGE('',*,*,#577,.F.);
#738=ORIENTED_EDGE('',*,*,#579,.F.);
#739=ORIENTED_EDGE('',*,*,#580,.T.);
#740=ORIENTED_EDGE('',*,*,#581,.F.);
#741=ORIENTED_EDGE('',*,*,#580,.F.);
#742=ORIENTED_EDGE('',*,*,#582,.T.);
#743=ORIENTED_EDGE('',*,*,#583,.T.);
#744=ORIENTED_EDGE('',*,*,#584,.T.);
#745=ORIENTED_EDGE('',*,*,#585,.T.);
#746=ORIENTED_EDGE('',*,*,#586,.T.);
#747=ORIENTED_EDGE('',*,*,#587,.F.);
#748=ORIENTED_EDGE('',*,*,#588,.T.);
#749=ORIENTED_EDGE('',*,*,#589,.F.);
#750=ORIENTED_EDGE('',*,*,#590,.T.);
#751=ORIENTED_EDGE('',*,*,#591,.T.);
#752=ORIENTED_EDGE('',*,*,#592,.T.);
#753=ORIENTED_EDGE('',*,*,#593,.T.);
#754=ORIENTED_EDGE('',*,*,#594,.T.);
#755=ORIENTED_EDGE('',*,*,#595,.T.);
#756=ORIENTED_EDGE('',*,*,#596,.T.);
#757=ORIENTED_EDGE('',*,*,#597,.T.);
#758=ORIENTED_EDGE('',*,*,#598,.T.);
#759=ORIENTED_EDGE('',*,*,#599,.T.);
#760=ORIENTED_EDGE('',*,*,#600,.T.);
#761=ORIENTED_EDGE('',*,*,#601,.T.);
#762=ORIENTED_EDGE('',*,*,#602,.T.);
#763=ORIENTED_EDGE('',*,*,#603,.T.);
#764=ORIENTED_EDGE('',*,*,#604,.T.);
#765=ORIENTED_EDGE('',*,*,#605,.T.);
#766=ORIENTED_EDGE('',*,*,#606,.T.);
#767=ORIENTED_EDGE('',*,*,#607,.T.);
#768=ORIENTED_EDGE('',*,*,#608,.T.);
#769=ORIENTED_EDGE('',*,*,#609,.T.);
#770=ORIENTED_EDGE('',*,*,#610,.T.);
#771=ORIENTED_EDGE('',*,*,#611,.T.);
#772=ORIENTED_EDGE('',*,*,#612,.T.);
#773=ORIENTED_EDGE('',*,*,#613,.T.);
#774=ORIENTED_EDGE('',*,*,#614,.T.);
#775=ORIENTED_EDGE('',*,*,#615,.T.);
#776=ORIENTED_EDGE('',*,*,#616,.T.);
#777=ORIENTED_EDGE('',*,*,#617,.T.);
#778=ORIENTED_EDGE('',*,*,#618,.T.);
#779=ORIENTED_EDGE('',*,*,#619,.T.);
#780=ORIENTED_EDGE('',*,*,#620,.T.);
#781=ORIENTED_EDGE('',*,*,#621,.T.);
#782=ORIENTED_EDGE('',*,*,#622,.T.);
#783=ORIENTED_EDGE('',*,*,#623,.T.);
#784=ORIENTED_EDGE('',*,*,#624,.T.);
#785=ORIENTED_EDGE('',*,*,#625,.T.);
#786=ORIENTED_EDGE('',*,*,#626,.T.);
#787=ORIENTED_EDGE('',*,*,#627,.T.);
#788=ORIENTED_EDGE('',*,*,#628,.T.);
#789=ORIENTED_EDGE('',*,*,#629,.T.);
#790=ORIENTED_EDGE('',*,*,#604,.F.);
#791=ORIENTED_EDGE('',*,*,#630,.T.);
#792=ORIENTED_EDGE('',*,*,#631,.F.);
#793=ORIENTED_EDGE('',*,*,#598,.F.);
#794=ORIENTED_EDGE('',*,*,#632,.T.);
#795=ORIENTED_EDGE('',*,*,#633,.F.);
#796=ORIENTED_EDGE('',*,*,#634,.F.);
#797=ORIENTED_EDGE('',*,*,#599,.F.);
#798=ORIENTED_EDGE('',*,*,#634,.T.);
#799=ORIENTED_EDGE('',*,*,#635,.F.);
#800=ORIENTED_EDGE('',*,*,#636,.F.);
#801=ORIENTED_EDGE('',*,*,#600,.F.);
#802=ORIENTED_EDGE('',*,*,#636,.T.);
#803=ORIENTED_EDGE('',*,*,#637,.F.);
#804=ORIENTED_EDGE('',*,*,#638,.F.);
#805=ORIENTED_EDGE('',*,*,#601,.F.);
#806=ORIENTED_EDGE('',*,*,#638,.T.);
#807=ORIENTED_EDGE('',*,*,#639,.F.);
#808=ORIENTED_EDGE('',*,*,#640,.F.);
#809=ORIENTED_EDGE('',*,*,#602,.F.);
#810=ORIENTED_EDGE('',*,*,#640,.T.);
#811=ORIENTED_EDGE('',*,*,#641,.F.);
#812=ORIENTED_EDGE('',*,*,#642,.F.);
#813=ORIENTED_EDGE('',*,*,#603,.F.);
#814=ORIENTED_EDGE('',*,*,#642,.T.);
#815=ORIENTED_EDGE('',*,*,#643,.F.);
#816=ORIENTED_EDGE('',*,*,#630,.F.);
#817=ORIENTED_EDGE('',*,*,#594,.F.);
#818=ORIENTED_EDGE('',*,*,#629,.F.);
#819=ORIENTED_EDGE('',*,*,#644,.F.);
#820=ORIENTED_EDGE('',*,*,#645,.F.);
#821=ORIENTED_EDGE('',*,*,#595,.F.);
#822=ORIENTED_EDGE('',*,*,#645,.T.);
#823=ORIENTED_EDGE('',*,*,#646,.F.);
#824=ORIENTED_EDGE('',*,*,#647,.F.);
#825=ORIENTED_EDGE('',*,*,#596,.F.);
#826=ORIENTED_EDGE('',*,*,#647,.T.);
#827=ORIENTED_EDGE('',*,*,#648,.F.);
#828=ORIENTED_EDGE('',*,*,#649,.F.);
#829=ORIENTED_EDGE('',*,*,#597,.F.);
#830=ORIENTED_EDGE('',*,*,#649,.T.);
#831=ORIENTED_EDGE('',*,*,#650,.F.);
#832=ORIENTED_EDGE('',*,*,#632,.F.);
#833=ORIENTED_EDGE('',*,*,#651,.F.);
#834=ORIENTED_EDGE('',*,*,#652,.T.);
#835=ORIENTED_EDGE('',*,*,#623,.F.);
#836=ORIENTED_EDGE('',*,*,#652,.F.);
#837=ORIENTED_EDGE('',*,*,#617,.F.);
#838=ORIENTED_EDGE('',*,*,#653,.T.);
#839=ORIENTED_EDGE('',*,*,#654,.F.);
#840=ORIENTED_EDGE('',*,*,#655,.F.);
#841=ORIENTED_EDGE('',*,*,#618,.F.);
#842=ORIENTED_EDGE('',*,*,#655,.T.);
#843=ORIENTED_EDGE('',*,*,#656,.F.);
#844=ORIENTED_EDGE('',*,*,#657,.F.);
#845=ORIENTED_EDGE('',*,*,#619,.F.);
#846=ORIENTED_EDGE('',*,*,#657,.T.);
#847=ORIENTED_EDGE('',*,*,#658,.F.);
#848=ORIENTED_EDGE('',*,*,#659,.F.);
#849=ORIENTED_EDGE('',*,*,#620,.F.);
#850=ORIENTED_EDGE('',*,*,#659,.T.);
#851=ORIENTED_EDGE('',*,*,#660,.F.);
#852=ORIENTED_EDGE('',*,*,#661,.F.);
#853=ORIENTED_EDGE('',*,*,#621,.F.);
#854=ORIENTED_EDGE('',*,*,#661,.T.);
#855=ORIENTED_EDGE('',*,*,#662,.F.);
#856=ORIENTED_EDGE('',*,*,#663,.F.);
#857=ORIENTED_EDGE('',*,*,#622,.F.);
#858=ORIENTED_EDGE('',*,*,#663,.T.);
#859=ORIENTED_EDGE('',*,*,#664,.F.);
#860=ORIENTED_EDGE('',*,*,#665,.F.);
#861=ORIENTED_EDGE('',*,*,#616,.F.);
#862=ORIENTED_EDGE('',*,*,#665,.T.);
#863=ORIENTED_EDGE('',*,*,#666,.F.);
#864=ORIENTED_EDGE('',*,*,#653,.F.);
#865=ORIENTED_EDGE('',*,*,#613,.F.);
#866=ORIENTED_EDGE('',*,*,#667,.T.);
#867=ORIENTED_EDGE('',*,*,#668,.F.);
#868=ORIENTED_EDGE('',*,*,#669,.F.);
#869=ORIENTED_EDGE('',*,*,#614,.F.);
#870=ORIENTED_EDGE('',*,*,#669,.T.);
#871=ORIENTED_EDGE('',*,*,#670,.F.);
#872=ORIENTED_EDGE('',*,*,#671,.F.);
#873=ORIENTED_EDGE('',*,*,#615,.F.);
#874=ORIENTED_EDGE('',*,*,#671,.T.);
#875=ORIENTED_EDGE('',*,*,#672,.F.);
#876=ORIENTED_EDGE('',*,*,#673,.F.);
#877=ORIENTED_EDGE('',*,*,#612,.F.);
#878=ORIENTED_EDGE('',*,*,#673,.T.);
#879=ORIENTED_EDGE('',*,*,#674,.F.);
#880=ORIENTED_EDGE('',*,*,#667,.F.);
#881=ORIENTED_EDGE('',*,*,#608,.F.);
#882=ORIENTED_EDGE('',*,*,#675,.T.);
#883=ORIENTED_EDGE('',*,*,#676,.F.);
#884=ORIENTED_EDGE('',*,*,#677,.F.);
#885=ORIENTED_EDGE('',*,*,#609,.F.);
#886=ORIENTED_EDGE('',*,*,#677,.T.);
#887=ORIENTED_EDGE('',*,*,#678,.F.);
#888=ORIENTED_EDGE('',*,*,#679,.F.);
#889=ORIENTED_EDGE('',*,*,#610,.F.);
#890=ORIENTED_EDGE('',*,*,#679,.T.);
#891=ORIENTED_EDGE('',*,*,#680,.F.);
#892=ORIENTED_EDGE('',*,*,#681,.F.);
#893=ORIENTED_EDGE('',*,*,#611,.F.);
#894=ORIENTED_EDGE('',*,*,#681,.T.);
#895=ORIENTED_EDGE('',*,*,#682,.F.);
#896=ORIENTED_EDGE('',*,*,#683,.F.);
#897=ORIENTED_EDGE('',*,*,#605,.F.);
#898=ORIENTED_EDGE('',*,*,#683,.T.);
#899=ORIENTED_EDGE('',*,*,#684,.F.);
#900=ORIENTED_EDGE('',*,*,#685,.F.);
#901=ORIENTED_EDGE('',*,*,#606,.F.);
#902=ORIENTED_EDGE('',*,*,#685,.T.);
#903=ORIENTED_EDGE('',*,*,#686,.F.);
#904=ORIENTED_EDGE('',*,*,#687,.F.);
#905=ORIENTED_EDGE('',*,*,#607,.F.);
#906=ORIENTED_EDGE('',*,*,#687,.T.);
#907=ORIENTED_EDGE('',*,*,#688,.F.);
#908=ORIENTED_EDGE('',*,*,#675,.F.);
#909=ORIENTED_EDGE('',*,*,#624,.F.);
#910=ORIENTED_EDGE('',*,*,#689,.T.);
#911=ORIENTED_EDGE('',*,*,#690,.F.);
#912=ORIENTED_EDGE('',*,*,#691,.F.);
#913=ORIENTED_EDGE('',*,*,#625,.F.);
#914=ORIENTED_EDGE('',*,*,#691,.T.);
#915=ORIENTED_EDGE('',*,*,#692,.F.);
#916=ORIENTED_EDGE('',*,*,#693,.F.);
#917=ORIENTED_EDGE('',*,*,#626,.F.);
#918=ORIENTED_EDGE('',*,*,#693,.T.);
#919=ORIENTED_EDGE('',*,*,#694,.F.);
#920=ORIENTED_EDGE('',*,*,#695,.F.);
#921=ORIENTED_EDGE('',*,*,#627,.F.);
#922=ORIENTED_EDGE('',*,*,#695,.T.);
#923=ORIENTED_EDGE('',*,*,#696,.F.);
#924=ORIENTED_EDGE('',*,*,#697,.F.);
#925=ORIENTED_EDGE('',*,*,#628,.F.);
#926=ORIENTED_EDGE('',*,*,#697,.T.);
#927=ORIENTED_EDGE('',*,*,#698,.F.);
#928=ORIENTED_EDGE('',*,*,#689,.F.);
#929=ORIENTED_EDGE('',*,*,#591,.F.);
#930=ORIENTED_EDGE('',*,*,#699,.T.);
#931=ORIENTED_EDGE('',*,*,#700,.F.);
#932=ORIENTED_EDGE('',*,*,#701,.F.);
#933=ORIENTED_EDGE('',*,*,#592,.F.);
#934=ORIENTED_EDGE('',*,*,#701,.T.);
#935=ORIENTED_EDGE('',*,*,#702,.F.);
#936=ORIENTED_EDGE('',*,*,#703,.F.);
#937=ORIENTED_EDGE('',*,*,#593,.F.);
#938=ORIENTED_EDGE('',*,*,#703,.T.);
#939=ORIENTED_EDGE('',*,*,#704,.F.);
#940=ORIENTED_EDGE('',*,*,#705,.F.);
#941=ORIENTED_EDGE('',*,*,#590,.F.);
#942=ORIENTED_EDGE('',*,*,#705,.T.);
#943=ORIENTED_EDGE('',*,*,#706,.F.);
#944=ORIENTED_EDGE('',*,*,#699,.F.);
#945=ORIENTED_EDGE('',*,*,#700,.T.);
#946=ORIENTED_EDGE('',*,*,#706,.T.);
#947=ORIENTED_EDGE('',*,*,#704,.T.);
#948=ORIENTED_EDGE('',*,*,#702,.T.);
#949=ORIENTED_EDGE('',*,*,#690,.T.);
#950=ORIENTED_EDGE('',*,*,#698,.T.);
#951=ORIENTED_EDGE('',*,*,#696,.T.);
#952=ORIENTED_EDGE('',*,*,#694,.T.);
#953=ORIENTED_EDGE('',*,*,#692,.T.);
#954=ORIENTED_EDGE('',*,*,#576,.T.);
#955=ORIENTED_EDGE('',*,*,#676,.T.);
#956=ORIENTED_EDGE('',*,*,#688,.T.);
#957=ORIENTED_EDGE('',*,*,#686,.T.);
#958=ORIENTED_EDGE('',*,*,#684,.T.);
#959=ORIENTED_EDGE('',*,*,#682,.T.);
#960=ORIENTED_EDGE('',*,*,#680,.T.);
#961=ORIENTED_EDGE('',*,*,#678,.T.);
#962=ORIENTED_EDGE('',*,*,#570,.T.);
#963=ORIENTED_EDGE('',*,*,#668,.T.);
#964=ORIENTED_EDGE('',*,*,#674,.T.);
#965=ORIENTED_EDGE('',*,*,#672,.T.);
#966=ORIENTED_EDGE('',*,*,#670,.T.);
#967=ORIENTED_EDGE('',*,*,#654,.T.);
#968=ORIENTED_EDGE('',*,*,#666,.T.);
#969=ORIENTED_EDGE('',*,*,#664,.T.);
#970=ORIENTED_EDGE('',*,*,#662,.T.);
#971=ORIENTED_EDGE('',*,*,#660,.T.);
#972=ORIENTED_EDGE('',*,*,#658,.T.);
#973=ORIENTED_EDGE('',*,*,#656,.T.);
#974=ORIENTED_EDGE('',*,*,#579,.T.);
#975=ORIENTED_EDGE('',*,*,#651,.T.);
#976=ORIENTED_EDGE('',*,*,#707,.T.);
#977=ORIENTED_EDGE('',*,*,#644,.T.);
#978=ORIENTED_EDGE('',*,*,#631,.T.);
#979=ORIENTED_EDGE('',*,*,#643,.T.);
#980=ORIENTED_EDGE('',*,*,#641,.T.);
#981=ORIENTED_EDGE('',*,*,#639,.T.);
#982=ORIENTED_EDGE('',*,*,#637,.T.);
#983=ORIENTED_EDGE('',*,*,#635,.T.);
#984=ORIENTED_EDGE('',*,*,#633,.T.);
#985=ORIENTED_EDGE('',*,*,#650,.T.);
#986=ORIENTED_EDGE('',*,*,#648,.T.);
#987=ORIENTED_EDGE('',*,*,#646,.T.);
#988=ORIENTED_EDGE('',*,*,#573,.T.);
#989=ORIENTED_EDGE('',*,*,#707,.F.);
#990=ORIENTED_EDGE('',*,*,#708,.T.);
#991=ORIENTED_EDGE('',*,*,#709,.F.);
#992=ORIENTED_EDGE('',*,*,#708,.F.);
#993=ORIENTED_EDGE('',*,*,#710,.T.);
#994=ORIENTED_EDGE('',*,*,#711,.T.);
#995=ORIENTED_EDGE('',*,*,#586,.F.);
#996=ORIENTED_EDGE('',*,*,#712,.F.);
#997=ORIENTED_EDGE('',*,*,#713,.T.);
#998=ORIENTED_EDGE('',*,*,#712,.T.);
#999=ORIENTED_EDGE('',*,*,#585,.F.);
#1000=ORIENTED_EDGE('',*,*,#714,.F.);
#1001=ORIENTED_EDGE('',*,*,#715,.T.);
#1002=ORIENTED_EDGE('',*,*,#714,.T.);
#1003=ORIENTED_EDGE('',*,*,#584,.F.);
#1004=ORIENTED_EDGE('',*,*,#716,.F.);
#1005=ORIENTED_EDGE('',*,*,#717,.T.);
#1006=ORIENTED_EDGE('',*,*,#716,.T.);
#1007=ORIENTED_EDGE('',*,*,#583,.F.);
#1008=ORIENTED_EDGE('',*,*,#718,.F.);
#1009=ORIENTED_EDGE('',*,*,#719,.T.);
#1010=ORIENTED_EDGE('',*,*,#718,.T.);
#1011=ORIENTED_EDGE('',*,*,#582,.F.);
#1012=ORIENTED_EDGE('',*,*,#720,.F.);
#1013=ORIENTED_EDGE('',*,*,#721,.T.);
#1014=ORIENTED_EDGE('',*,*,#720,.T.);
#1015=ORIENTED_EDGE('',*,*,#589,.T.);
#1016=ORIENTED_EDGE('',*,*,#722,.F.);
#1017=ORIENTED_EDGE('',*,*,#723,.T.);
#1018=ORIENTED_EDGE('',*,*,#722,.T.);
#1019=ORIENTED_EDGE('',*,*,#588,.F.);
#1020=ORIENTED_EDGE('',*,*,#724,.F.);
#1021=ORIENTED_EDGE('',*,*,#725,.T.);
#1022=ORIENTED_EDGE('',*,*,#724,.T.);
#1023=ORIENTED_EDGE('',*,*,#587,.T.);
#1024=ORIENTED_EDGE('',*,*,#711,.F.);
#1025=ORIENTED_EDGE('',*,*,#725,.F.);
#1026=ORIENTED_EDGE('',*,*,#710,.F.);
#1027=ORIENTED_EDGE('',*,*,#713,.F.);
#1028=ORIENTED_EDGE('',*,*,#715,.F.);
#1029=ORIENTED_EDGE('',*,*,#717,.F.);
#1030=ORIENTED_EDGE('',*,*,#719,.F.);
#1031=ORIENTED_EDGE('',*,*,#721,.F.);
#1032=ORIENTED_EDGE('',*,*,#723,.F.);
#1033=ORIENTED_EDGE('',*,*,#709,.T.);
#1034=ORIENTED_EDGE('',*,*,#581,.T.);
#1035=ORIENTED_EDGE('',*,*,#578,.T.);
#1036=ORIENTED_EDGE('',*,*,#575,.T.);
#1037=ORIENTED_EDGE('',*,*,#572,.T.);
#1038=CYLINDRICAL_SURFACE('',#1139,1.3);
#1039=CYLINDRICAL_SURFACE('',#1142,1.3);
#1040=CYLINDRICAL_SURFACE('',#1145,1.30000000000001);
#1041=CYLINDRICAL_SURFACE('',#1148,1.30000000000001);
#1042=CYLINDRICAL_SURFACE('',#1174,48.);
#1043=CYLINDRICAL_SURFACE('',#1176,195.173272701776);
#1044=CYLINDRICAL_SURFACE('',#1180,212.586898323293);
#1045=CYLINDRICAL_SURFACE('',#1183,1.00000000000001);
#1046=CYLINDRICAL_SURFACE('',#1187,212.586898323293);
#1047=CYLINDRICAL_SURFACE('',#1189,46.1104424357958);
#1048=CYLINDRICAL_SURFACE('',#1191,213.028371948435);
#1049=CYLINDRICAL_SURFACE('',#1193,48.);
#1050=CYLINDRICAL_SURFACE('',#1195,213.028371948435);
#1051=CYLINDRICAL_SURFACE('',#1201,48.);
#1052=CYLINDRICAL_SURFACE('',#1203,193.815088372671);
#1053=CYLINDRICAL_SURFACE('',#1206,202.117522181);
#1054=CYLINDRICAL_SURFACE('',#1209,193.815088372671);
#1055=CYLINDRICAL_SURFACE('',#1211,48.);
#1056=CYLINDRICAL_SURFACE('',#1213,202.117522181003);
#1057=CYLINDRICAL_SURFACE('',#1215,0.540732248269116);
#1058=CYLINDRICAL_SURFACE('',#1217,202.117522181003);
#1059=CYLINDRICAL_SURFACE('',#1220,212.882175497552);
#1060=CYLINDRICAL_SURFACE('',#1226,195.173272701776);
#1061=CYLINDRICAL_SURFACE('',#1228,48.);
#1062=CYLINDRICAL_SURFACE('',#1230,212.586898323294);
#1063=CYLINDRICAL_SURFACE('',#1241,45.6766341789332);
#1064=ADVANCED_FACE('',(#67),#1038,.F.);
#1065=ADVANCED_FACE('',(#68),#1039,.F.);
#1066=ADVANCED_FACE('',(#69),#1040,.F.);
#1067=ADVANCED_FACE('',(#70),#1041,.F.);
#1068=ADVANCED_FACE('',(#71,#15,#16,#17,#18,#19,#20,#21),#32,.T.);
#1069=ADVANCED_FACE('',(#72),#33,.T.);
#1070=ADVANCED_FACE('',(#73),#1042,.T.);
#1071=ADVANCED_FACE('',(#74),#1043,.T.);
#1072=ADVANCED_FACE('',(#75),#34,.T.);
#1073=ADVANCED_FACE('',(#76),#35,.T.);
#1074=ADVANCED_FACE('',(#77),#1044,.F.);
#1075=ADVANCED_FACE('',(#78),#36,.T.);
#1076=ADVANCED_FACE('',(#79),#1045,.T.);
#1077=ADVANCED_FACE('',(#80),#37,.T.);
#1078=ADVANCED_FACE('',(#81),#38,.T.);
#1079=ADVANCED_FACE('',(#82),#1046,.F.);
#1080=ADVANCED_FACE('',(#83),#1047,.F.);
#1081=ADVANCED_FACE('',(#84),#1048,.T.);
#1082=ADVANCED_FACE('',(#85),#1049,.T.);
#1083=ADVANCED_FACE('',(#86),#1050,.T.);
#1084=ADVANCED_FACE('',(#87),#39,.T.);
#1085=ADVANCED_FACE('',(#88),#40,.T.);
#1086=ADVANCED_FACE('',(#89),#41,.T.);
#1087=ADVANCED_FACE('',(#90),#42,.T.);
#1088=ADVANCED_FACE('',(#91),#1051,.T.);
#1089=ADVANCED_FACE('',(#92),#1052,.F.);
#1090=ADVANCED_FACE('',(#93),#43,.T.);
#1091=ADVANCED_FACE('',(#94),#1053,.F.);
#1092=ADVANCED_FACE('',(#95),#44,.T.);
#1093=ADVANCED_FACE('',(#96),#1054,.F.);
#1094=ADVANCED_FACE('',(#97),#1055,.T.);
#1095=ADVANCED_FACE('',(#98),#1056,.F.);
#1096=ADVANCED_FACE('',(#99),#1057,.T.);
#1097=ADVANCED_FACE('',(#100),#1058,.F.);
#1098=ADVANCED_FACE('',(#101),#45,.T.);
#1099=ADVANCED_FACE('',(#102),#1059,.T.);
#1100=ADVANCED_FACE('',(#103),#46,.T.);
#1101=ADVANCED_FACE('',(#104),#47,.T.);
#1102=ADVANCED_FACE('',(#105),#48,.T.);
#1103=ADVANCED_FACE('',(#106),#49,.T.);
#1104=ADVANCED_FACE('',(#107),#1060,.T.);
#1105=ADVANCED_FACE('',(#108),#1061,.T.);
#1106=ADVANCED_FACE('',(#109),#1062,.F.);
#1107=ADVANCED_FACE('',(#110),#50,.T.);
#1108=ADVANCED_FACE('',(#111),#51,.F.);
#1109=ADVANCED_FACE('',(#112,#22),#52,.F.);
#1110=ADVANCED_FACE('',(#113,#23),#53,.F.);
#1111=ADVANCED_FACE('',(#114),#54,.F.);
#1112=ADVANCED_FACE('',(#115,#24),#55,.F.);
#1113=ADVANCED_FACE('',(#116,#25),#56,.F.);
#1114=ADVANCED_FACE('',(#117,#26),#57,.F.);
#1115=ADVANCED_FACE('',(#118),#1063,.F.);
#1116=ADVANCED_FACE('',(#119),#58,.T.);
#1117=ADVANCED_FACE('',(#120),#59,.T.);
#1118=ADVANCED_FACE('',(#121),#60,.T.);
#1119=ADVANCED_FACE('',(#122),#61,.T.);
#1120=ADVANCED_FACE('',(#123),#62,.T.);
#1121=ADVANCED_FACE('',(#124),#63,.T.);
#1122=ADVANCED_FACE('',(#125),#64,.T.);
#1123=ADVANCED_FACE('',(#126),#65,.T.);
#1124=ADVANCED_FACE('',(#127,#27,#28,#29,#30,#31),#66,.T.);
#1125=CLOSED_SHELL('',(#1064,#1065,#1066,#1067,#1068,#1069,#1070,#1071,
#1072,#1073,#1074,#1075,#1076,#1077,#1078,#1079,#1080,#1081,#1082,#1083,
#1084,#1085,#1086,#1087,#1088,#1089,#1090,#1091,#1092,#1093,#1094,#1095,
#1096,#1097,#1098,#1099,#1100,#1101,#1102,#1103,#1104,#1105,#1106,#1107,
#1108,#1109,#1110,#1111,#1112,#1113,#1114,#1115,#1116,#1117,#1118,#1119,
#1120,#1121,#1122,#1123,#1124));
#1126=DERIVED_UNIT_ELEMENT(#1128,1.);
#1127=DERIVED_UNIT_ELEMENT(#1911,-3.);
#1128=(
MASS_UNIT()
NAMED_UNIT(*)
SI_UNIT(.KILO.,.GRAM.)
);
#1129=DERIVED_UNIT((#1126,#1127));
#1130=MEASURE_REPRESENTATION_ITEM('density measure',
POSITIVE_RATIO_MEASURE(7850.),#1129);
#1131=PROPERTY_DEFINITION_REPRESENTATION(#1136,#1133);
#1132=PROPERTY_DEFINITION_REPRESENTATION(#1137,#1134);
#1133=REPRESENTATION('material name',(#1135),#1908);
#1134=REPRESENTATION('density',(#1130),#1908);
#1135=DESCRIPTIVE_REPRESENTATION_ITEM('Steel','Steel');
#1136=PROPERTY_DEFINITION('material property','material name',#1918);
#1137=PROPERTY_DEFINITION('material property','density of part',#1918);
#1138=AXIS2_PLACEMENT_3D('',#1584,#1252,#1253);
#1139=AXIS2_PLACEMENT_3D('',#1585,#1254,#1255);
#1140=AXIS2_PLACEMENT_3D('',#1587,#1256,#1257);
#1141=AXIS2_PLACEMENT_3D('',#1590,#1259,#1260);
#1142=AXIS2_PLACEMENT_3D('',#1591,#1261,#1262);
#1143=AXIS2_PLACEMENT_3D('',#1593,#1263,#1264);
#1144=AXIS2_PLACEMENT_3D('',#1596,#1266,#1267);
#1145=AXIS2_PLACEMENT_3D('',#1597,#1268,#1269);
#1146=AXIS2_PLACEMENT_3D('',#1599,#1270,#1271);
#1147=AXIS2_PLACEMENT_3D('',#1602,#1273,#1274);
#1148=AXIS2_PLACEMENT_3D('',#1603,#1275,#1276);
#1149=AXIS2_PLACEMENT_3D('',#1605,#1277,#1278);
#1150=AXIS2_PLACEMENT_3D('',#1608,#1280,#1281);
#1151=AXIS2_PLACEMENT_3D('',#1609,#1282,#1283);
#1152=AXIS2_PLACEMENT_3D('',#1630,#1293,#1294);
#1153=AXIS2_PLACEMENT_3D('',#1632,#1295,#1296);
#1154=AXIS2_PLACEMENT_3D('',#1633,#1297,#1298);
#1155=AXIS2_PLACEMENT_3D('',#1636,#1299,#1300);
#1156=AXIS2_PLACEMENT_3D('',#1642,#1303,#1304);
#1157=AXIS2_PLACEMENT_3D('',#1644,#1305,#1306);
#1158=AXIS2_PLACEMENT_3D('',#1646,#1307,#1308);
#1159=AXIS2_PLACEMENT_3D('',#1652,#1311,#1312);
#1160=AXIS2_PLACEMENT_3D('',#1658,#1315,#1316);
#1161=AXIS2_PLACEMENT_3D('',#1660,#1317,#1318);
#1162=AXIS2_PLACEMENT_3D('',#1666,#1321,#1322);
#1163=AXIS2_PLACEMENT_3D('',#1668,#1323,#1324);
#1164=AXIS2_PLACEMENT_3D('',#1669,#1325,#1326);
#1165=AXIS2_PLACEMENT_3D('',#1672,#1327,#1328);
#1166=AXIS2_PLACEMENT_3D('',#1674,#1329,#1330);
#1167=AXIS2_PLACEMENT_3D('',#1676,#1331,#1332);
#1168=AXIS2_PLACEMENT_3D('',#1682,#1335,#1336);
#1169=AXIS2_PLACEMENT_3D('',#1684,#1337,#1338);
#1170=AXIS2_PLACEMENT_3D('',#1686,#1339,#1340);
#1171=AXIS2_PLACEMENT_3D('',#1693,#1344,#1345);
#1172=AXIS2_PLACEMENT_3D('',#1696,#1346,#1347);
#1173=AXIS2_PLACEMENT_3D('',#1704,#1352,#1353);
#1174=AXIS2_PLACEMENT_3D('',#1710,#1357,#1358);
#1175=AXIS2_PLACEMENT_3D('',#1714,#1360,#1361);
#1176=AXIS2_PLACEMENT_3D('',#1716,#1363,#1364);
#1177=AXIS2_PLACEMENT_3D('',#1718,#1365,#1366);
#1178=AXIS2_PLACEMENT_3D('',#1720,#1368,#1369);
#1179=AXIS2_PLACEMENT_3D('',#1724,#1372,#1373);
#1180=AXIS2_PLACEMENT_3D('',#1728,#1376,#1377);
#1181=AXIS2_PLACEMENT_3D('',#1730,#1378,#1379);
#1182=AXIS2_PLACEMENT_3D('',#1732,#1381,#1382);
#1183=AXIS2_PLACEMENT_3D('',#1734,#1384,#1385);
#1184=AXIS2_PLACEMENT_3D('',#1736,#1386,#1387);
#1185=AXIS2_PLACEMENT_3D('',#1738,#1389,#1390);
#1186=AXIS2_PLACEMENT_3D('',#1742,#1393,#1394);
#1187=AXIS2_PLACEMENT_3D('',#1746,#1397,#1398);
#1188=AXIS2_PLACEMENT_3D('',#1747,#1399,#1400);
#1189=AXIS2_PLACEMENT_3D('',#1748,#1401,#1402);
#1190=AXIS2_PLACEMENT_3D('',#1750,#1403,#1404);
#1191=AXIS2_PLACEMENT_3D('',#1752,#1406,#1407);
#1192=AXIS2_PLACEMENT_3D('',#1756,#1409,#1410);
#1193=AXIS2_PLACEMENT_3D('',#1758,#1412,#1413);
#1194=AXIS2_PLACEMENT_3D('',#1760,#1414,#1415);
#1195=AXIS2_PLACEMENT_3D('',#1762,#1417,#1418);
#1196=AXIS2_PLACEMENT_3D('',#1764,#1419,#1420);
#1197=AXIS2_PLACEMENT_3D('',#1766,#1422,#1423);
#1198=AXIS2_PLACEMENT_3D('',#1770,#1426,#1427);
#1199=AXIS2_PLACEMENT_3D('',#1774,#1430,#1431);
#1200=AXIS2_PLACEMENT_3D('',#1778,#1434,#1435);
#1201=AXIS2_PLACEMENT_3D('',#1780,#1437,#1438);
#1202=AXIS2_PLACEMENT_3D('',#1784,#1440,#1441);
#1203=AXIS2_PLACEMENT_3D('',#1786,#1443,#1444);
#1204=AXIS2_PLACEMENT_3D('',#1788,#1445,#1446);
#1205=AXIS2_PLACEMENT_3D('',#1790,#1448,#1449);
#1206=AXIS2_PLACEMENT_3D('',#1794,#1452,#1453);
#1207=AXIS2_PLACEMENT_3D('',#1795,#1454,#1455);
#1208=AXIS2_PLACEMENT_3D('',#1796,#1456,#1457);
#1209=AXIS2_PLACEMENT_3D('',#1802,#1461,#1462);
#1210=AXIS2_PLACEMENT_3D('',#1804,#1463,#1464);
#1211=AXIS2_PLACEMENT_3D('',#1806,#1466,#1467);
#1212=AXIS2_PLACEMENT_3D('',#1808,#1468,#1469);
#1213=AXIS2_PLACEMENT_3D('',#1810,#1471,#1472);
#1214=AXIS2_PLACEMENT_3D('',#1812,#1473,#1474);
#1215=AXIS2_PLACEMENT_3D('',#1814,#1476,#1477);
#1216=AXIS2_PLACEMENT_3D('',#1816,#1478,#1479);
#1217=AXIS2_PLACEMENT_3D('',#1818,#1481,#1482);
#1218=AXIS2_PLACEMENT_3D('',#1820,#1483,#1484);
#1219=AXIS2_PLACEMENT_3D('',#1822,#1486,#1487);
#1220=AXIS2_PLACEMENT_3D('',#1824,#1489,#1490);
#1221=AXIS2_PLACEMENT_3D('',#1828,#1492,#1493);
#1222=AXIS2_PLACEMENT_3D('',#1830,#1495,#1496);
#1223=AXIS2_PLACEMENT_3D('',#1834,#1499,#1500);
#1224=AXIS2_PLACEMENT_3D('',#1838,#1503,#1504);
#1225=AXIS2_PLACEMENT_3D('',#1842,#1507,#1508);
#1226=AXIS2_PLACEMENT_3D('',#1844,#1510,#1511);
#1227=AXIS2_PLACEMENT_3D('',#1848,#1513,#1514);
#1228=AXIS2_PLACEMENT_3D('',#1850,#1516,#1517);
#1229=AXIS2_PLACEMENT_3D('',#1852,#1518,#1519);
#1230=AXIS2_PLACEMENT_3D('',#1854,#1521,#1522);
#1231=AXIS2_PLACEMENT_3D('',#1856,#1523,#1524);
#1232=AXIS2_PLACEMENT_3D('',#1858,#1526,#1527);
#1233=AXIS2_PLACEMENT_3D('',#1860,#1529,#1530);
#1234=AXIS2_PLACEMENT_3D('',#1861,#1531,#1532);
#1235=AXIS2_PLACEMENT_3D('',#1862,#1533,#1534);
#1236=AXIS2_PLACEMENT_3D('',#1863,#1535,#1536);
#1237=AXIS2_PLACEMENT_3D('',#1864,#1537,#1538);
#1238=AXIS2_PLACEMENT_3D('',#1865,#1539,#1540);
#1239=AXIS2_PLACEMENT_3D('',#1867,#1541,#1542);
#1240=AXIS2_PLACEMENT_3D('',#1868,#1543,#1544);
#1241=AXIS2_PLACEMENT_3D('',#1869,#1545,#1546);
#1242=AXIS2_PLACEMENT_3D('',#1872,#1548,#1549);
#1243=AXIS2_PLACEMENT_3D('',#1873,#1550,#1551);
#1244=AXIS2_PLACEMENT_3D('',#1879,#1555,#1556);
#1245=AXIS2_PLACEMENT_3D('',#1883,#1559,#1560);
#1246=AXIS2_PLACEMENT_3D('',#1887,#1563,#1564);
#1247=AXIS2_PLACEMENT_3D('',#1891,#1567,#1568);
#1248=AXIS2_PLACEMENT_3D('',#1895,#1571,#1572);
#1249=AXIS2_PLACEMENT_3D('',#1899,#1575,#1576);
#1250=AXIS2_PLACEMENT_3D('',#1903,#1579,#1580);
#1251=AXIS2_PLACEMENT_3D('',#1905,#1582,#1583);
#1252=DIRECTION('axis',(0.,0.,1.));
#1253=DIRECTION('refdir',(1.,0.,0.));
#1254=DIRECTION('center_axis',(0.,0.,-1.));
#1255=DIRECTION('ref_axis',(1.,0.,0.));
#1256=DIRECTION('center_axis',(0.,0.,-1.));
#1257=DIRECTION('ref_axis',(1.,0.,0.));
#1258=DIRECTION('',(0.,0.,-1.));
#1259=DIRECTION('center_axis',(0.,0.,1.));
#1260=DIRECTION('ref_axis',(1.,0.,0.));
#1261=DIRECTION('center_axis',(0.,0.,-1.));
#1262=DIRECTION('ref_axis',(1.,0.,0.));
#1263=DIRECTION('center_axis',(0.,0.,-1.));
#1264=DIRECTION('ref_axis',(1.,0.,0.));
#1265=DIRECTION('',(0.,0.,-1.));
#1266=DIRECTION('center_axis',(0.,0.,1.));
#1267=DIRECTION('ref_axis',(1.,0.,0.));
#1268=DIRECTION('center_axis',(0.,0.,-1.));
#1269=DIRECTION('ref_axis',(1.,0.,0.));
#1270=DIRECTION('center_axis',(0.,0.,-1.));
#1271=DIRECTION('ref_axis',(1.,0.,0.));
#1272=DIRECTION('',(0.,0.,-1.));
#1273=DIRECTION('center_axis',(0.,0.,1.));
#1274=DIRECTION('ref_axis',(1.,0.,0.));
#1275=DIRECTION('center_axis',(0.,0.,-1.));
#1276=DIRECTION('ref_axis',(1.,0.,0.));
#1277=DIRECTION('center_axis',(0.,0.,-1.));
#1278=DIRECTION('ref_axis',(1.,0.,0.));
#1279=DIRECTION('',(0.,0.,-1.));
#1280=DIRECTION('center_axis',(0.,0.,1.));
#1281=DIRECTION('ref_axis',(1.,0.,0.));
#1282=DIRECTION('center_axis',(0.,0.,1.));
#1283=DIRECTION('ref_axis',(-1.,0.,0.));
#1284=DIRECTION('',(0.,1.,0.));
#1285=DIRECTION('',(-0.707106781186534,0.707106781186561,0.));
#1286=DIRECTION('',(-1.,0.,0.));
#1287=DIRECTION('',(-0.707106781186548,-0.707106781186548,0.));
#1288=DIRECTION('',(3.40050437767469E-15,-1.,0.));
#1289=DIRECTION('',(0.707106781186551,-0.707106781186544,0.));
#1290=DIRECTION('',(1.,1.9855400760321E-16,0.));
#1291=DIRECTION('',(0.707106781186592,0.707106781186503,0.));
#1292=DIRECTION('',(0.,-1.,0.));
#1293=DIRECTION('center_axis',(0.,0.,1.));
#1294=DIRECTION('ref_axis',(0.121281675802048,0.992618131566539,0.));
#1295=DIRECTION('center_axis',(0.,0.,1.));
#1296=DIRECTION('ref_axis',(0.999099614640556,0.0424259357597693,0.));
#1297=DIRECTION('center_axis',(0.,0.,-1.));
#1298=DIRECTION('ref_axis',(0.329321818097623,0.944217739785096,0.));
#1299=DIRECTION('center_axis',(0.,0.,1.));
#1300=DIRECTION('ref_axis',(0.495927631086665,-0.86836385503127,0.));
#1301=DIRECTION('',(0.993357182310588,0.115071753058554,0.));
#1302=DIRECTION('',(0.990992430410318,0.133917896001435,0.));
#1303=DIRECTION('center_axis',(0.,0.,-1.));
#1304=DIRECTION('ref_axis',(0.0211353497072464,0.999776623547856,0.));
#1305=DIRECTION('center_axis',(0.,0.,1.));
#1306=DIRECTION('ref_axis',(-0.29176480603011,0.95649009297651,0.));
#1307=DIRECTION('center_axis',(0.,0.,1.));
#1308=DIRECTION('ref_axis',(-0.381212422159234,0.924487473788309,0.));
#1309=DIRECTION('',(-3.40050437767469E-15,1.,0.));
#1310=DIRECTION('',(0.707106781186548,0.707106781186547,0.));
#1311=DIRECTION('center_axis',(0.,0.,-1.));
#1312=DIRECTION('ref_axis',(-0.123618666663876,0.992329796616148,0.));
#1313=DIRECTION('',(-0.115071753117108,0.993357182303805,0.));
#1314=DIRECTION('',(0.993357182310567,0.11507175305874,0.));
#1315=DIRECTION('center_axis',(0.,0.,1.));
#1316=DIRECTION('ref_axis',(0.490076754375458,0.871679284382058,0.));
#1317=DIRECTION('center_axis',(0.,0.,-1.));
#1318=DIRECTION('ref_axis',(-0.167663848281886,-0.985844223992467,0.));
#1319=DIRECTION('',(-0.707106781186551,0.707106781186544,0.));
#1320=DIRECTION('',(-3.40050437767469E-15,1.,0.));
#1321=DIRECTION('center_axis',(0.,0.,-1.));
#1322=DIRECTION('ref_axis',(-0.379169306165214,0.925327313582708,0.));
#1323=DIRECTION('center_axis',(0.,0.,1.));
#1324=DIRECTION('ref_axis',(-0.957935600947109,-0.28698324766108,0.));
#1325=DIRECTION('center_axis',(0.,0.,-1.));
#1326=DIRECTION('ref_axis',(-0.140981858908505,-0.990012179449678,0.));
#1327=DIRECTION('center_axis',(0.,0.,-1.));
#1328=DIRECTION('ref_axis',(0.187605724467194,-0.982244415686411,0.));
#1329=DIRECTION('center_axis',(0.,0.,1.));
#1330=DIRECTION('ref_axis',(0.465372926565241,-0.88511470399045,0.));
#1331=DIRECTION('center_axis',(0.,0.,-1.));
#1332=DIRECTION('ref_axis',(0.1238493411182,0.992301033308233,0.));
#1333=DIRECTION('',(0.,-1.,0.));
#1334=DIRECTION('',(-0.707106781186551,0.707106781186544,0.));
#1335=DIRECTION('center_axis',(0.,0.,1.));
#1336=DIRECTION('ref_axis',(-0.140689142065699,-0.990053819398126,0.));
#1337=DIRECTION('center_axis',(0.,0.,1.));
#1338=DIRECTION('ref_axis',(-0.0867763276848952,-0.99622781980505,0.));
#1339=DIRECTION('center_axis',(0.,0.,1.));
#1340=DIRECTION('ref_axis',(0.143752320136102,-0.989613697588856,0.));
#1341=DIRECTION('',(0.,-1.,0.));
#1342=DIRECTION('',(-0.707106781186593,-0.707106781186502,0.));
#1343=DIRECTION('',(-1.,-1.9855400760321E-16,0.));
#1344=DIRECTION('center_axis',(0.,0.,-1.));
#1345=DIRECTION('ref_axis',(-1.,0.,0.));
#1346=DIRECTION('center_axis',(0.,0.,1.));
#1347=DIRECTION('ref_axis',(0.322743779874227,0.946486372090215,0.));
#1348=DIRECTION('',(0.707106781186548,0.707106781186547,0.));
#1349=DIRECTION('',(1.,0.,0.));
#1350=DIRECTION('',(0.707106781186534,-0.707106781186561,0.));
#1351=DIRECTION('',(0.,-1.,0.));
#1352=DIRECTION('center_axis',(0.115071753058739,-0.993357182310567,0.));
#1353=DIRECTION('ref_axis',(-0.993357182310567,-0.11507175305874,0.));
#1354=DIRECTION('',(0.,0.,1.));
#1355=DIRECTION('',(0.,0.,-1.));
#1356=DIRECTION('',(-0.993357182310567,-0.11507175305874,0.));
#1357=DIRECTION('center_axis',(0.,0.,-1.));
#1358=DIRECTION('ref_axis',(-0.29176480603011,0.95649009297651,0.));
#1359=DIRECTION('',(0.,0.,-1.));
#1360=DIRECTION('center_axis',(0.,0.,-1.));
#1361=DIRECTION('ref_axis',(-0.29176480603011,0.95649009297651,0.));
#1362=DIRECTION('',(0.,0.,-1.));
#1363=DIRECTION('center_axis',(0.,0.,-1.));
#1364=DIRECTION('ref_axis',(-0.381212422159234,0.924487473788309,0.));
#1365=DIRECTION('center_axis',(0.,0.,-1.));
#1366=DIRECTION('ref_axis',(-0.381212422159234,0.924487473788309,0.));
#1367=DIRECTION('',(0.,0.,-1.));
#1368=DIRECTION('center_axis',(1.,3.40050437767469E-15,0.));
#1369=DIRECTION('ref_axis',(3.40050437767469E-15,-1.,0.));
#1370=DIRECTION('',(3.40050437767469E-15,-1.,0.));
#1371=DIRECTION('',(0.,0.,-1.));
#1372=DIRECTION('center_axis',(0.707106781186547,-0.707106781186548,0.));
#1373=DIRECTION('ref_axis',(-0.707106781186548,-0.707106781186547,0.));
#1374=DIRECTION('',(-0.707106781186548,-0.707106781186547,0.));
#1375=DIRECTION('',(0.,0.,-1.));
#1376=DIRECTION('center_axis',(0.,0.,-1.));
#1377=DIRECTION('ref_axis',(-0.123618666663876,0.992329796616148,0.));
#1378=DIRECTION('center_axis',(0.,0.,1.));
#1379=DIRECTION('ref_axis',(-0.123618666663876,0.992329796616148,0.));
#1380=DIRECTION('',(0.,0.,-1.));
#1381=DIRECTION('center_axis',(0.993357182303805,0.115071753117108,0.));
#1382=DIRECTION('ref_axis',(0.115071753117108,-0.993357182303805,0.));
#1383=DIRECTION('',(0.115071753117108,-0.993357182303805,0.));
#1384=DIRECTION('center_axis',(0.,0.,-1.));
#1385=DIRECTION('ref_axis',(0.495927631086665,-0.86836385503127,0.));
#1386=DIRECTION('center_axis',(0.,0.,-1.));
#1387=DIRECTION('ref_axis',(1.,0.,0.));
#1388=DIRECTION('',(0.,0.,-1.));
#1389=DIRECTION('center_axis',(0.115071753058554,-0.993357182310588,0.));
#1390=DIRECTION('ref_axis',(-0.993357182310588,-0.115071753058554,0.));
#1391=DIRECTION('',(-0.993357182310588,-0.115071753058554,0.));
#1392=DIRECTION('',(0.,0.,-1.));
#1393=DIRECTION('center_axis',(0.133917896001435,-0.990992430410318,0.));
#1394=DIRECTION('ref_axis',(-0.990992430410318,-0.133917896001435,0.));
#1395=DIRECTION('',(-0.990992430410318,-0.133917896001435,0.));
#1396=DIRECTION('',(0.,0.,-1.));
#1397=DIRECTION('center_axis',(0.,0.,-1.));
#1398=DIRECTION('ref_axis',(0.0211353497072464,0.999776623547856,0.));
#1399=DIRECTION('center_axis',(0.,0.,1.));
#1400=DIRECTION('ref_axis',(0.0211353497072464,0.999776623547856,0.));
#1401=DIRECTION('center_axis',(0.,0.,-1.));
#1402=DIRECTION('ref_axis',(-1.,0.,0.));
#1403=DIRECTION('center_axis',(0.,0.,1.));
#1404=DIRECTION('ref_axis',(-1.,0.,0.));
#1405=DIRECTION('',(0.,0.,1.));
#1406=DIRECTION('center_axis',(0.,0.,-1.));
#1407=DIRECTION('ref_axis',(-0.140689142065699,-0.990053819398126,0.));
#1408=DIRECTION('',(0.,0.,-1.));
#1409=DIRECTION('center_axis',(0.,0.,-1.));
#1410=DIRECTION('ref_axis',(-0.140689142065699,-0.990053819398126,0.));
#1411=DIRECTION('',(0.,0.,-1.));
#1412=DIRECTION('center_axis',(0.,0.,-1.));
#1413=DIRECTION('ref_axis',(-0.0867763276848952,-0.99622781980505,0.));
#1414=DIRECTION('center_axis',(0.,0.,-1.));
#1415=DIRECTION('ref_axis',(-0.0867763276848952,-0.99622781980505,0.));
#1416=DIRECTION('',(0.,0.,-1.));
#1417=DIRECTION('center_axis',(0.,0.,-1.));
#1418=DIRECTION('ref_axis',(0.143752320136102,-0.989613697588856,0.));
#1419=DIRECTION('center_axis',(0.,0.,-1.));
#1420=DIRECTION('ref_axis',(0.143752320136102,-0.989613697588856,0.));
#1421=DIRECTION('',(0.,0.,-1.));
#1422=DIRECTION('center_axis',(-1.,0.,0.));
#1423=DIRECTION('ref_axis',(0.,1.,0.));
#1424=DIRECTION('',(0.,1.,0.));
#1425=DIRECTION('',(0.,0.,-1.));
#1426=DIRECTION('center_axis',(-0.707106781186503,0.707106781186593,0.));
#1427=DIRECTION('ref_axis',(0.707106781186593,0.707106781186502,0.));
#1428=DIRECTION('',(0.707106781186593,0.707106781186502,0.));
#1429=DIRECTION('',(0.,0.,-1.));
#1430=DIRECTION('center_axis',(-1.9855400760321E-16,1.,0.));
#1431=DIRECTION('ref_axis',(1.,1.9855400760321E-16,0.));
#1432=DIRECTION('',(1.,1.9855400760321E-16,0.));
#1433=DIRECTION('',(0.,0.,-1.));
#1434=DIRECTION('center_axis',(0.707106781186544,0.707106781186551,0.));
#1435=DIRECTION('ref_axis',(0.707106781186551,-0.707106781186544,0.));
#1436=DIRECTION('',(0.707106781186551,-0.707106781186544,0.));
#1437=DIRECTION('center_axis',(0.,0.,-1.));
#1438=DIRECTION('ref_axis',(0.465372926565241,-0.88511470399045,0.));
#1439=DIRECTION('',(0.,0.,-1.));
#1440=DIRECTION('center_axis',(0.,0.,-1.));
#1441=DIRECTION('ref_axis',(0.465372926565241,-0.88511470399045,0.));
#1442=DIRECTION('',(0.,0.,-1.));
#1443=DIRECTION('center_axis',(0.,0.,-1.));
#1444=DIRECTION('ref_axis',(0.1238493411182,0.992301033308233,0.));
#1445=DIRECTION('center_axis',(0.,0.,1.));
#1446=DIRECTION('ref_axis',(0.1238493411182,0.992301033308233,0.));
#1447=DIRECTION('',(0.,0.,-1.));
#1448=DIRECTION('center_axis',(-1.,0.,0.));
#1449=DIRECTION('ref_axis',(0.,1.,0.));
#1450=DIRECTION('',(0.,1.,0.));
#1451=DIRECTION('',(0.,0.,-1.));
#1452=DIRECTION('center_axis',(0.,0.,-1.));
#1453=DIRECTION('ref_axis',(0.187605724467194,-0.982244415686411,0.));
#1454=DIRECTION('center_axis',(0.,0.,1.));
#1455=DIRECTION('ref_axis',(0.187605724467194,-0.982244415686411,0.));
#1456=DIRECTION('center_axis',(1.,3.40050437767469E-15,0.));
#1457=DIRECTION('ref_axis',(3.40050437767469E-15,-1.,0.));
#1458=DIRECTION('',(0.,0.,-1.));
#1459=DIRECTION('',(3.40050437767469E-15,-1.,0.));
#1460=DIRECTION('',(0.,0.,-1.));
#1461=DIRECTION('center_axis',(0.,0.,-1.));
#1462=DIRECTION('ref_axis',(-0.379169306165214,0.925327313582708,0.));
#1463=DIRECTION('center_axis',(0.,0.,1.));
#1464=DIRECTION('ref_axis',(-0.379169306165214,0.925327313582708,0.));
#1465=DIRECTION('',(0.,0.,-1.));
#1466=DIRECTION('center_axis',(0.,0.,-1.));
#1467=DIRECTION('ref_axis',(-0.957935600947109,-0.28698324766108,0.));
#1468=DIRECTION('center_axis',(0.,0.,-1.));
#1469=DIRECTION('ref_axis',(-0.957935600947109,-0.28698324766108,0.));
#1470=DIRECTION('',(0.,0.,-1.));
#1471=DIRECTION('center_axis',(0.,0.,-1.));
#1472=DIRECTION('ref_axis',(-0.140981858908505,-0.990012179449678,0.));
#1473=DIRECTION('center_axis',(0.,0.,1.));
#1474=DIRECTION('ref_axis',(-0.140981858908505,-0.990012179449678,0.));
#1475=DIRECTION('',(0.,0.,-1.));
#1476=DIRECTION('center_axis',(0.,0.,-1.));
#1477=DIRECTION('ref_axis',(0.490076754375458,0.871679284382058,0.));
#1478=DIRECTION('center_axis',(0.,0.,-1.));
#1479=DIRECTION('ref_axis',(0.490076754375458,0.871679284382058,0.));
#1480=DIRECTION('',(0.,0.,-1.));
#1481=DIRECTION('center_axis',(0.,0.,-1.));
#1482=DIRECTION('ref_axis',(-0.167663848281886,-0.985844223992467,0.));
#1483=DIRECTION('center_axis',(0.,0.,1.));
#1484=DIRECTION('ref_axis',(-0.167663848281886,-0.985844223992467,0.));
#1485=DIRECTION('',(0.,0.,-1.));
#1486=DIRECTION('center_axis',(0.707106781186544,0.707106781186551,0.));
#1487=DIRECTION('ref_axis',(0.707106781186551,-0.707106781186544,0.));
#1488=DIRECTION('',(0.707106781186551,-0.707106781186544,0.));
#1489=DIRECTION('center_axis',(0.,0.,-1.));
#1490=DIRECTION('ref_axis',(0.322743779874227,0.946486372090215,0.));
#1491=DIRECTION('',(0.,0.,-1.));
#1492=DIRECTION('center_axis',(0.,0.,-1.));
#1493=DIRECTION('ref_axis',(0.322743779874227,0.946486372090215,0.));
#1494=DIRECTION('',(0.,0.,-1.));
#1495=DIRECTION('center_axis',(0.707106781186547,-0.707106781186548,0.));
#1496=DIRECTION('ref_axis',(-0.707106781186548,-0.707106781186547,0.));
#1497=DIRECTION('',(-0.707106781186548,-0.707106781186547,0.));
#1498=DIRECTION('',(0.,0.,-1.));
#1499=DIRECTION('center_axis',(0.,-1.,0.));
#1500=DIRECTION('ref_axis',(-1.,0.,0.));
#1501=DIRECTION('',(-1.,0.,0.));
#1502=DIRECTION('',(0.,0.,-1.));
#1503=DIRECTION('center_axis',(-0.707106781186561,-0.707106781186534,0.));
#1504=DIRECTION('ref_axis',(-0.707106781186534,0.707106781186561,0.));
#1505=DIRECTION('',(-0.707106781186534,0.707106781186561,0.));
#1506=DIRECTION('',(0.,0.,-1.));
#1507=DIRECTION('center_axis',(-1.,0.,0.));
#1508=DIRECTION('ref_axis',(0.,1.,0.));
#1509=DIRECTION('',(0.,1.,0.));
#1510=DIRECTION('center_axis',(0.,0.,-1.));
#1511=DIRECTION('ref_axis',(0.121281675802048,0.992618131566539,0.));
#1512=DIRECTION('',(0.,0.,-1.));
#1513=DIRECTION('center_axis',(0.,0.,-1.));
#1514=DIRECTION('ref_axis',(0.121281675802048,0.992618131566539,0.));
#1515=DIRECTION('',(0.,0.,-1.));
#1516=DIRECTION('center_axis',(0.,0.,-1.));
#1517=DIRECTION('ref_axis',(0.999099614640556,0.0424259357597693,0.));
#1518=DIRECTION('center_axis',(0.,0.,-1.));
#1519=DIRECTION('ref_axis',(0.999099614640556,0.0424259357597693,0.));
#1520=DIRECTION('',(0.,0.,-1.));
#1521=DIRECTION('center_axis',(0.,0.,-1.));
#1522=DIRECTION('ref_axis',(0.329321818097623,0.944217739785096,0.));
#1523=DIRECTION('center_axis',(0.,0.,1.));
#1524=DIRECTION('ref_axis',(0.329321818097623,0.944217739785096,0.));
#1525=DIRECTION('',(0.,0.,-1.));
#1526=DIRECTION('center_axis',(-1.,0.,0.));
#1527=DIRECTION('ref_axis',(0.,1.,0.));
#1528=DIRECTION('',(0.,1.,0.));
#1529=DIRECTION('center_axis',(0.,0.,-1.));
#1530=DIRECTION('ref_axis',(1.,0.,0.));
#1531=DIRECTION('center_axis',(0.,0.,-1.));
#1532=DIRECTION('ref_axis',(1.,0.,0.));
#1533=DIRECTION('center_axis',(0.,0.,-1.));
#1534=DIRECTION('ref_axis',(1.,0.,0.));
#1535=DIRECTION('center_axis',(0.,0.,-1.));
#1536=DIRECTION('ref_axis',(1.,0.,0.));
#1537=DIRECTION('center_axis',(0.,0.,-1.));
#1538=DIRECTION('ref_axis',(1.,0.,0.));
#1539=DIRECTION('center_axis',(0.,0.,-1.));
#1540=DIRECTION('ref_axis',(1.,0.,0.));
#1541=DIRECTION('center_axis',(0.,0.,1.));
#1542=DIRECTION('ref_axis',(-1.,0.,0.));
#1543=DIRECTION('center_axis',(0.,0.,-1.));
#1544=DIRECTION('ref_axis',(1.,0.,0.));
#1545=DIRECTION('center_axis',(0.,0.,1.));
#1546=DIRECTION('ref_axis',(-1.,0.,0.));
#1547=DIRECTION('',(0.,0.,-1.));
#1548=DIRECTION('center_axis',(0.,0.,1.));
#1549=DIRECTION('ref_axis',(-1.,0.,0.));
#1550=DIRECTION('center_axis',(-1.,-3.40050437767469E-15,0.));
#1551=DIRECTION('ref_axis',(3.40050437767469E-15,-1.,0.));
#1552=DIRECTION('',(3.40050437767469E-15,-1.,0.));
#1553=DIRECTION('',(0.,0.,1.));
#1554=DIRECTION('',(0.,0.,1.));
#1555=DIRECTION('center_axis',(-0.707106781186548,0.707106781186548,0.));
#1556=DIRECTION('ref_axis',(-0.707106781186548,-0.707106781186548,0.));
#1557=DIRECTION('',(-0.707106781186547,-0.707106781186547,0.));
#1558=DIRECTION('',(0.,0.,1.));
#1559=DIRECTION('center_axis',(0.,1.,0.));
#1560=DIRECTION('ref_axis',(-1.,0.,0.));
#1561=DIRECTION('',(-1.,0.,0.));
#1562=DIRECTION('',(0.,0.,1.));
#1563=DIRECTION('center_axis',(0.707106781186561,0.707106781186534,0.));
#1564=DIRECTION('ref_axis',(-0.707106781186534,0.707106781186561,0.));
#1565=DIRECTION('',(-0.707106781186534,0.707106781186561,0.));
#1566=DIRECTION('',(0.,0.,1.));
#1567=DIRECTION('center_axis',(1.,0.,0.));
#1568=DIRECTION('ref_axis',(0.,1.,0.));
#1569=DIRECTION('',(0.,1.,0.));
#1570=DIRECTION('',(0.,0.,1.));
#1571=DIRECTION('center_axis',(0.707106781186503,-0.707106781186592,0.));
#1572=DIRECTION('ref_axis',(0.707106781186592,0.707106781186503,0.));
#1573=DIRECTION('',(0.707106781186592,0.707106781186503,0.));
#1574=DIRECTION('',(0.,0.,1.));
#1575=DIRECTION('center_axis',(1.9855400760321E-16,-1.,0.));
#1576=DIRECTION('ref_axis',(1.,1.9855400760321E-16,0.));
#1577=DIRECTION('',(1.,1.9855400760321E-16,0.));
#1578=DIRECTION('',(0.,0.,1.));
#1579=DIRECTION('center_axis',(-0.707106781186544,-0.707106781186551,0.));
#1580=DIRECTION('ref_axis',(0.707106781186551,-0.707106781186544,0.));
#1581=DIRECTION('',(0.707106781186551,-0.707106781186544,0.));
#1582=DIRECTION('center_axis',(0.,0.,-1.));
#1583=DIRECTION('ref_axis',(1.,0.,0.));
#1584=CARTESIAN_POINT('',(0.,0.,0.));
#1585=CARTESIAN_POINT('Origin',(-42.4264068711929,-42.4264068711928,1.40000000000001));
#1586=CARTESIAN_POINT('',(-43.7264068711929,-42.4264068711928,0.800000000000001));
#1587=CARTESIAN_POINT('Origin',(-42.4264068711929,-42.4264068711928,0.800000000000001));
#1588=CARTESIAN_POINT('',(-43.7264068711929,-42.4264068711928,0.));
#1589=CARTESIAN_POINT('',(-43.7264068711929,-42.4264068711928,1.40000000000001));
#1590=CARTESIAN_POINT('Origin',(-42.4264068711929,-42.4264068711928,0.));
#1591=CARTESIAN_POINT('Origin',(-42.4264068711928,42.4264068711929,1.40000000000001));
#1592=CARTESIAN_POINT('',(-43.7264068711929,42.4264068711929,0.800000000000001));
#1593=CARTESIAN_POINT('Origin',(-42.4264068711928,42.4264068711929,0.800000000000001));
#1594=CARTESIAN_POINT('',(-43.7264068711929,42.4264068711929,0.));
#1595=CARTESIAN_POINT('',(-43.7264068711929,42.4264068711929,1.40000000000001));
#1596=CARTESIAN_POINT('Origin',(-42.4264068711928,42.4264068711929,0.));
#1597=CARTESIAN_POINT('Origin',(42.4264068711929,42.4264068711928,1.40000000000001));
#1598=CARTESIAN_POINT('',(41.1264068711928,42.4264068711928,0.800000000000001));
#1599=CARTESIAN_POINT('Origin',(42.4264068711929,42.4264068711928,0.800000000000001));
#1600=CARTESIAN_POINT('',(41.1264068711928,42.4264068711928,0.));
#1601=CARTESIAN_POINT('',(41.1264068711928,42.4264068711928,1.40000000000001));
#1602=CARTESIAN_POINT('Origin',(42.4264068711929,42.4264068711928,0.));
#1603=CARTESIAN_POINT('Origin',(42.4264068711928,-42.4264068711929,1.40000000000001));
#1604=CARTESIAN_POINT('',(41.1264068711928,-42.4264068711929,0.800000000000001));
#1605=CARTESIAN_POINT('Origin',(42.4264068711928,-42.4264068711929,0.800000000000001));
#1606=CARTESIAN_POINT('',(41.1264068711928,-42.4264068711929,0.));
#1607=CARTESIAN_POINT('',(41.1264068711928,-42.4264068711929,1.40000000000001));
#1608=CARTESIAN_POINT('Origin',(42.4264068711928,-42.4264068711929,0.));
#1609=CARTESIAN_POINT('Origin',(0.47169472782965,0.130600372031688,1.4));
#1610=CARTESIAN_POINT('',(52.4116947308749,-45.3717336876801,1.4));
#1611=CARTESIAN_POINT('',(52.4116947308749,45.6329344317421,1.4));
#1612=CARTESIAN_POINT('',(52.4116947308749,22.8817674018869,1.4));
#1613=CARTESIAN_POINT('',(45.7540287875408,52.2906003750765,1.4));
#1614=CARTESIAN_POINT('',(47.4734452733746,50.5711838892426,1.4));
#1615=CARTESIAN_POINT('',(-43.7106393318818,52.2906003750765,1.4));
#1616=CARTESIAN_POINT('',(-21.6194723020261,52.2906003750765,1.4));
#1617=CARTESIAN_POINT('',(-51.4683052752156,44.5329344317427,1.4));
#1618=CARTESIAN_POINT('',(-49.5838887893821,46.4173509175763,1.4));
#1619=CARTESIAN_POINT('',(-51.4683052752153,-44.2717336876793,1.4));
#1620=CARTESIAN_POINT('',(-51.4683052752154,-22.0705666578239,1.4));
#1621=CARTESIAN_POINT('',(-43.7106393318815,-52.0293996310131,1.4));
#1622=CARTESIAN_POINT('',(-45.7050558177148,-50.0349831451798,1.4));
#1623=CARTESIAN_POINT('',(45.7540287875411,-52.0293996310131,1.4));
#1624=CARTESIAN_POINT('',(23.1128617576854,-52.0293996310131,1.4));
#1625=CARTESIAN_POINT('',(50.8022782450399,-46.9811501735149,1.4));
#1626=CARTESIAN_POINT('',(50.0116947308749,34.6173296845982,1.4));
#1627=CARTESIAN_POINT('',(50.0116947308749,1.81251127451814,1.4));
#1628=CARTESIAN_POINT('',(50.0116947308749,0.971555823274919,1.4));
#1629=CARTESIAN_POINT('',(47.9567815027467,2.03644491646893,1.4));
#1630=CARTESIAN_POINT('Origin',(27.8407531458334,-192.097405249507,1.4));
#1631=CARTESIAN_POINT('',(23.7331593216789,41.7221421862757,1.4));
#1632=CARTESIAN_POINT('Origin',(0.,0.,1.4));
#1633=CARTESIAN_POINT('Origin',(-18.4978091286869,-166.627886953301,1.4));
#1634=CARTESIAN_POINT('',(-44.7532877867342,44.3320676588229,1.40000000000002));
#1635=CARTESIAN_POINT('',(-43.9717352863768,44.4226036894925,1.4));
#1636=CARTESIAN_POINT('Origin',(-44.4683052752155,45.2906003750765,1.4));
#1637=CARTESIAN_POINT('',(-43.9572040207222,44.4242870096948,1.4));
#1638=CARTESIAN_POINT('',(-24.56845448676,46.6703042915114,1.4));
#1639=CARTESIAN_POINT('',(-43.6482945517397,44.4660315325308,1.4));
#1640=CARTESIAN_POINT('',(-24.9258373928319,46.9960933107618,1.4));
#1641=CARTESIAN_POINT('',(-14.0047106894453,45.9115244628725,1.4));
#1642=CARTESIAN_POINT('Origin',(-18.4978091286869,-166.627886953301,1.4));
#1643=CARTESIAN_POINT('',(-46.5617228815554,-11.6621594184456,1.4));
#1644=CARTESIAN_POINT('Origin',(0.,0.,1.4));
#1645=CARTESIAN_POINT('',(-48.4683052752154,-12.4601764242585,1.4));
#1646=CARTESIAN_POINT('Origin',(27.8407531458334,-192.097405249507,1.4));
#1647=CARTESIAN_POINT('',(-48.4683052752156,43.2902937446234,1.4));
#1648=CARTESIAN_POINT('',(-48.4683052752156,21.7104470583275,1.4));
#1649=CARTESIAN_POINT('',(-47.8333712110171,43.925227808822,1.4));
#1650=CARTESIAN_POINT('',(-46.705761585503,45.0528374343361,1.4));
#1651=CARTESIAN_POINT('',(-44.7775180496214,44.3284266231097,1.4));
#1652=CARTESIAN_POINT('Origin',(-18.4978091286869,-166.627886953301,1.4));
#1653=CARTESIAN_POINT('',(-44.7776134015453,44.32924974882,1.4));
#1654=CARTESIAN_POINT('',(-41.9519135596585,19.9363891471713,1.4));
#1655=CARTESIAN_POINT('',(-24.7318482201902,46.6513765546653,1.4));
#1656=CARTESIAN_POINT('',(-44.0754076962078,-44.0555069562636,1.4));
#1657=CARTESIAN_POINT('',(-44.4622807927228,-44.0000329337099,1.4));
#1658=CARTESIAN_POINT('Origin',(-44.3404080014257,-44.5268520554771,1.4));
#1659=CARTESIAN_POINT('',(-48.0479487509164,-43.4494495248589,1.4));
#1660=CARTESIAN_POINT('Origin',(-15.580503701149,156.04330168312,1.4));
#1661=CARTESIAN_POINT('',(-48.4683052752153,-43.02909300056,1.4));
#1662=CARTESIAN_POINT('',(-47.0232286176019,-44.4741696581735,1.4));
#1663=CARTESIAN_POINT('',(-48.4683052752154,-14.8147129486848,1.4));
#1664=CARTESIAN_POINT('',(-48.4683052752155,-7.34205628832661,1.4));
#1665=CARTESIAN_POINT('',(-45.9809088454612,-13.7751958877318,1.4));
#1666=CARTESIAN_POINT('Origin',(27.5078237371538,-193.11759094341,1.4));
#1667=CARTESIAN_POINT('',(-13.4965229100787,-46.0634765224878,1.4));
#1668=CARTESIAN_POINT('Origin',(0.,0.,1.4));
#1669=CARTESIAN_POINT('Origin',(-15.580503701149,156.04330168312,1.4));
#1670=CARTESIAN_POINT('',(50.0116947308749,-35.1350346352009,1.4));
#1671=CARTESIAN_POINT('',(22.3379004751316,-42.4855057915416,1.4));
#1672=CARTESIAN_POINT('Origin',(-15.580503701149,156.04330168312,1.4));
#1673=CARTESIAN_POINT('',(47.9984261081906,-0.388704433426472,1.4));
#1674=CARTESIAN_POINT('Origin',(0.,0.,1.4));
#1675=CARTESIAN_POINT('',(50.0116947308749,-0.613398076854512,1.4));
#1676=CARTESIAN_POINT('Origin',(27.5078237371538,-193.11759094341,1.4));
#1677=CARTESIAN_POINT('',(50.0116947308749,-17.5022171315846,1.4));
#1678=CARTESIAN_POINT('',(-42.4679986447622,-49.0293996310131,1.4));
#1679=CARTESIAN_POINT('',(-45.1919057380435,-46.3054925377318,1.4));
#1680=CARTESIAN_POINT('',(-45.385028849016,-46.1123694267593,1.4));
#1681=CARTESIAN_POINT('',(-4.16526372887497,-47.8189353506424,1.4));
#1682=CARTESIAN_POINT('Origin',(-16.862009052712,164.830729387355,1.4));
#1683=CARTESIAN_POINT('',(13.7613136696922,-45.9850654678706,1.4));
#1684=CARTESIAN_POINT('Origin',(0.,0.,1.4));
#1685=CARTESIAN_POINT('',(50.0116947308749,-37.428992251102,1.4));
#1686=CARTESIAN_POINT('Origin',(-16.862009052712,164.830729387355,1.4));
#1687=CARTESIAN_POINT('',(50.0116947308749,-43.5290930005608,1.4));
#1688=CARTESIAN_POINT('',(50.0116947308749,-21.6992463142645,1.4));
#1689=CARTESIAN_POINT('',(44.5113881004219,-49.0293996310131,1.4));
#1690=CARTESIAN_POINT('',(45.7914647580336,-47.7493229734015,1.4));
#1691=CARTESIAN_POINT('',(-20.9981519584663,-49.0293996310131,1.4));
#1692=CARTESIAN_POINT('',(46.1104424357958,-8.88178419700125E-15,1.4));
#1693=CARTESIAN_POINT('Origin',(0.,0.,1.4));
#1694=CARTESIAN_POINT('',(50.0116947308749,37.1664423265565,1.4));
#1695=CARTESIAN_POINT('',(-45.6103177988183,46.1482812210207,1.4));
#1696=CARTESIAN_POINT('Origin',(-17.1947032570537,-164.828905922007,1.4));
#1697=CARTESIAN_POINT('',(-42.4679986447626,49.2906003750765,1.4));
#1698=CARTESIAN_POINT('',(-44.0230753023757,47.7355237174634,1.4));
#1699=CARTESIAN_POINT('',(44.5113881004215,49.2906003750765,1.4));
#1700=CARTESIAN_POINT('',(22.4915414141256,49.2906003750765,1.4));
#1701=CARTESIAN_POINT('',(50.0116947308749,43.7902937446228,1.4));
#1702=CARTESIAN_POINT('',(48.5416180732619,45.260370402236,1.4));
#1703=CARTESIAN_POINT('',(50.0116947308749,18.6485213492941,1.4));
#1704=CARTESIAN_POINT('Origin',(-44.2839914875726,44.3864315359964,1.3));
#1705=CARTESIAN_POINT('',(-44.7532877867342,44.3320676588229,0.800000000000018));
#1706=CARTESIAN_POINT('',(-44.7532877867342,44.3320676588229,0.800000000000018));
#1707=CARTESIAN_POINT('',(-44.7776134015453,44.32924974882,0.800000000000001));
#1708=CARTESIAN_POINT('',(-44.7776134015453,44.32924974882,1.3));
#1709=CARTESIAN_POINT('',(-24.7318482201902,46.6513765546653,0.800000000000001));
#1710=CARTESIAN_POINT('Origin',(0.,0.,1.3));
#1711=CARTESIAN_POINT('',(-14.0047106894453,45.9115244628725,0.800000000000001));
#1712=CARTESIAN_POINT('',(-14.0047106894453,45.9115244628725,1.3));
#1713=CARTESIAN_POINT('',(-46.5617228815554,-11.6621594184456,0.800000000000001));
#1714=CARTESIAN_POINT('Origin',(0.,0.,0.800000000000001));
#1715=CARTESIAN_POINT('',(-46.5617228815554,-11.6621594184456,1.3));
#1716=CARTESIAN_POINT('Origin',(27.8407531458334,-192.097405249507,1.3));
#1717=CARTESIAN_POINT('',(-48.4683052752154,-12.4601764242585,0.800000000000001));
#1718=CARTESIAN_POINT('Origin',(27.8407531458334,-192.097405249507,0.800000000000001));
#1719=CARTESIAN_POINT('',(-48.4683052752154,-12.4601764242585,1.3));
#1720=CARTESIAN_POINT('Origin',(-48.4683052752156,43.2902937446234,1.3));
#1721=CARTESIAN_POINT('',(-48.4683052752156,43.2902937446234,0.800000000000001));
#1722=CARTESIAN_POINT('',(-48.4683052752156,21.7104470583275,0.800000000000001));
#1723=CARTESIAN_POINT('',(-48.4683052752156,43.2902937446234,1.3));
#1724=CARTESIAN_POINT('Origin',(-47.8333712110171,43.925227808822,1.3));
#1725=CARTESIAN_POINT('',(-47.8333712110171,43.925227808822,0.800000000000001));
#1726=CARTESIAN_POINT('',(-46.705761585503,45.0528374343361,0.800000000000001));
#1727=CARTESIAN_POINT('',(-47.8333712110171,43.925227808822,1.3));
#1728=CARTESIAN_POINT('Origin',(-18.4978091286869,-166.627886953301,1.3));
#1729=CARTESIAN_POINT('',(-44.7775180496214,44.3284266231097,0.800000000000001));
#1730=CARTESIAN_POINT('Origin',(-18.4978091286869,-166.627886953301,0.800000000000001));
#1731=CARTESIAN_POINT('',(-44.7775180496214,44.3284266231097,1.3));
#1732=CARTESIAN_POINT('Origin',(-44.7776134015453,44.32924974882,1.3));
#1733=CARTESIAN_POINT('',(-41.9519135596585,19.9363891471713,0.800000000000001));
#1734=CARTESIAN_POINT('Origin',(-44.4683052752155,45.2906003750765,1.3));
#1735=CARTESIAN_POINT('',(-43.9717352863768,44.4226036894925,0.800000000000001));
#1736=CARTESIAN_POINT('Origin',(-44.4683052752155,45.2906003750765,0.800000000000001));
#1737=CARTESIAN_POINT('',(-43.9717352863768,44.4226036894925,1.3));
#1738=CARTESIAN_POINT('Origin',(-43.9572040207222,44.4242870096948,1.3));
#1739=CARTESIAN_POINT('',(-43.9572040207222,44.4242870096948,0.800000000000001));
#1740=CARTESIAN_POINT('',(-24.56845448676,46.6703042915114,0.800000000000001));
#1741=CARTESIAN_POINT('',(-43.9572040207222,44.4242870096948,1.3));
#1742=CARTESIAN_POINT('Origin',(-43.6482945517399,44.4660315325303,1.3));
#1743=CARTESIAN_POINT('',(-43.6482945517397,44.4660315325308,0.800000000000001));
#1744=CARTESIAN_POINT('',(-24.9258373928319,46.9960933107618,0.800000000000001));
#1745=CARTESIAN_POINT('',(-43.6482945517397,44.4660315325308,1.3));
#1746=CARTESIAN_POINT('Origin',(-18.4978091286869,-166.627886953301,1.3));
#1747=CARTESIAN_POINT('Origin',(-18.4978091286869,-166.627886953301,0.800000000000001));
#1748=CARTESIAN_POINT('Origin',(0.,0.,1.3));
#1749=CARTESIAN_POINT('',(46.1104424357958,8.88178419700125E-15,0.800000000000001));
#1750=CARTESIAN_POINT('Origin',(0.,0.,0.800000000000001));
#1751=CARTESIAN_POINT('',(46.1104424357958,-5.64690057362656E-15,1.3));
#1752=CARTESIAN_POINT('Origin',(-16.862009052712,164.830729387355,1.3));
#1753=CARTESIAN_POINT('',(-45.1919057380435,-46.3054925377318,0.800000000000001));
#1754=CARTESIAN_POINT('',(-45.1919057380435,-46.3054925377318,1.3));
#1755=CARTESIAN_POINT('',(-4.16526372887497,-47.8189353506424,0.800000000000001));
#1756=CARTESIAN_POINT('Origin',(-16.862009052712,164.830729387355,0.800000000000001));
#1757=CARTESIAN_POINT('',(-4.16526372887497,-47.8189353506424,1.3));
#1758=CARTESIAN_POINT('Origin',(0.,0.,1.3));
#1759=CARTESIAN_POINT('',(13.7613136696922,-45.9850654678706,0.800000000000001));
#1760=CARTESIAN_POINT('Origin',(0.,0.,0.800000000000001));
#1761=CARTESIAN_POINT('',(13.7613136696922,-45.9850654678706,1.3));
#1762=CARTESIAN_POINT('Origin',(-16.862009052712,164.830729387355,1.3));
#1763=CARTESIAN_POINT('',(50.0116947308749,-37.428992251102,0.800000000000001));
#1764=CARTESIAN_POINT('Origin',(-16.862009052712,164.830729387355,0.800000000000001));
#1765=CARTESIAN_POINT('',(50.0116947308749,-37.428992251102,1.3));
#1766=CARTESIAN_POINT('Origin',(50.0116947308749,-43.5290930005608,1.3));
#1767=CARTESIAN_POINT('',(50.0116947308749,-43.5290930005608,0.800000000000001));
#1768=CARTESIAN_POINT('',(50.0116947308749,-21.6992463142645,0.800000000000001));
#1769=CARTESIAN_POINT('',(50.0116947308749,-43.5290930005608,1.3));
#1770=CARTESIAN_POINT('Origin',(44.5113881004219,-49.0293996310131,1.3));
#1771=CARTESIAN_POINT('',(44.5113881004219,-49.0293996310131,0.800000000000001));
#1772=CARTESIAN_POINT('',(45.7914647580336,-47.7493229734015,0.800000000000001));
#1773=CARTESIAN_POINT('',(44.5113881004219,-49.0293996310131,1.3));
#1774=CARTESIAN_POINT('Origin',(-42.4679986447622,-49.0293996310131,1.3));
#1775=CARTESIAN_POINT('',(-42.4679986447622,-49.0293996310131,0.800000000000001));
#1776=CARTESIAN_POINT('',(-20.9981519584663,-49.0293996310131,0.800000000000001));
#1777=CARTESIAN_POINT('',(-42.4679986447622,-49.0293996310131,1.3));
#1778=CARTESIAN_POINT('Origin',(-45.1919057380435,-46.3054925377318,1.3));
#1779=CARTESIAN_POINT('',(-45.385028849016,-46.1123694267593,0.800000000000001));
#1780=CARTESIAN_POINT('Origin',(0.,0.,1.3));
#1781=CARTESIAN_POINT('',(22.3379004751316,-42.4855057915416,0.800000000000001));
#1782=CARTESIAN_POINT('',(22.3379004751316,-42.4855057915416,1.3));
#1783=CARTESIAN_POINT('',(47.9984261081906,-0.388704433426472,0.800000000000001));
#1784=CARTESIAN_POINT('Origin',(0.,0.,0.800000000000001));
#1785=CARTESIAN_POINT('',(47.9984261081906,-0.388704433426472,1.3));
#1786=CARTESIAN_POINT('Origin',(27.5078237371538,-193.11759094341,1.3));
#1787=CARTESIAN_POINT('',(50.0116947308749,-0.613398076854512,0.800000000000001));
#1788=CARTESIAN_POINT('Origin',(27.5078237371538,-193.11759094341,0.800000000000001));
#1789=CARTESIAN_POINT('',(50.0116947308749,-0.613398076854512,1.3));
#1790=CARTESIAN_POINT('Origin',(50.0116947308749,-35.1350346352009,1.3));
#1791=CARTESIAN_POINT('',(50.0116947308749,-35.1350346352009,0.800000000000001));
#1792=CARTESIAN_POINT('',(50.0116947308749,-17.5022171315846,0.800000000000001));
#1793=CARTESIAN_POINT('',(50.0116947308749,-35.1350346352009,1.3));
#1794=CARTESIAN_POINT('Origin',(-15.580503701149,156.04330168312,1.3));
#1795=CARTESIAN_POINT('Origin',(-15.580503701149,156.04330168312,0.800000000000001));
#1796=CARTESIAN_POINT('Origin',(-48.4683052752154,-14.8147129486848,1.3));
#1797=CARTESIAN_POINT('',(-48.4683052752153,-43.02909300056,0.800000000000001));
#1798=CARTESIAN_POINT('',(-48.4683052752153,-43.02909300056,1.3));
#1799=CARTESIAN_POINT('',(-48.4683052752154,-14.8147129486848,0.800000000000001));
#1800=CARTESIAN_POINT('',(-48.4683052752155,-7.34205628832661,0.800000000000001));
#1801=CARTESIAN_POINT('',(-48.4683052752154,-14.8147129486848,1.3));
#1802=CARTESIAN_POINT('Origin',(27.5078237371538,-193.11759094341,1.3));
#1803=CARTESIAN_POINT('',(-45.9809088454612,-13.7751958877318,0.800000000000001));
#1804=CARTESIAN_POINT('Origin',(27.5078237371538,-193.11759094341,0.800000000000001));
#1805=CARTESIAN_POINT('',(-45.9809088454612,-13.7751958877318,1.3));
#1806=CARTESIAN_POINT('Origin',(0.,0.,1.3));
#1807=CARTESIAN_POINT('',(-13.4965229100787,-46.0634765224878,0.800000000000001));
#1808=CARTESIAN_POINT('Origin',(0.,0.,0.800000000000001));
#1809=CARTESIAN_POINT('',(-13.4965229100787,-46.0634765224878,1.3));
#1810=CARTESIAN_POINT('Origin',(-15.580503701149,156.04330168312,1.3));
#1811=CARTESIAN_POINT('',(-44.0754076962078,-44.0555069562636,0.800000000000001));
#1812=CARTESIAN_POINT('Origin',(-15.580503701149,156.04330168312,0.800000000000001));
#1813=CARTESIAN_POINT('',(-44.0754076962078,-44.0555069562636,1.3));
#1814=CARTESIAN_POINT('Origin',(-44.3404080014257,-44.5268520554771,1.3));
#1815=CARTESIAN_POINT('',(-44.4622807927228,-44.0000329337099,0.800000000000001));
#1816=CARTESIAN_POINT('Origin',(-44.3404080014257,-44.5268520554771,0.800000000000001));
#1817=CARTESIAN_POINT('',(-44.4622807927228,-44.0000329337099,1.3));
#1818=CARTESIAN_POINT('Origin',(-15.580503701149,156.04330168312,1.3));
#1819=CARTESIAN_POINT('',(-48.0479487509164,-43.4494495248589,0.800000000000001));
#1820=CARTESIAN_POINT('Origin',(-15.580503701149,156.04330168312,0.800000000000001));
#1821=CARTESIAN_POINT('',(-48.0479487509164,-43.4494495248589,1.3));
#1822=CARTESIAN_POINT('Origin',(-48.4683052752153,-43.02909300056,1.3));
#1823=CARTESIAN_POINT('',(-47.0232286176019,-44.4741696581735,0.800000000000001));
#1824=CARTESIAN_POINT('Origin',(-17.1947032570537,-164.828905922007,1.3));
#1825=CARTESIAN_POINT('',(50.0116947308749,37.1664423265565,0.800000000000001));
#1826=CARTESIAN_POINT('',(50.0116947308749,37.1664423265565,1.3));
#1827=CARTESIAN_POINT('',(-45.6103177988183,46.1482812210207,0.800000000000001));
#1828=CARTESIAN_POINT('Origin',(-17.1947032570537,-164.828905922007,0.800000000000001));
#1829=CARTESIAN_POINT('',(-45.6103177988183,46.1482812210207,1.3));
#1830=CARTESIAN_POINT('Origin',(-42.4679986447626,49.2906003750765,1.3));
#1831=CARTESIAN_POINT('',(-42.4679986447626,49.2906003750765,0.800000000000001));
#1832=CARTESIAN_POINT('',(-44.0230753023757,47.7355237174633,0.800000000000001));
#1833=CARTESIAN_POINT('',(-42.4679986447626,49.2906003750765,1.3));
#1834=CARTESIAN_POINT('Origin',(44.5113881004215,49.2906003750765,1.3));
#1835=CARTESIAN_POINT('',(44.5113881004215,49.2906003750765,0.800000000000001));
#1836=CARTESIAN_POINT('',(22.4915414141256,49.2906003750765,0.800000000000001));
#1837=CARTESIAN_POINT('',(44.5113881004215,49.2906003750765,1.3));
#1838=CARTESIAN_POINT('Origin',(50.0116947308749,43.7902937446228,1.3));
#1839=CARTESIAN_POINT('',(50.0116947308749,43.7902937446228,0.800000000000001));
#1840=CARTESIAN_POINT('',(48.5416180732619,45.260370402236,0.800000000000001));
#1841=CARTESIAN_POINT('',(50.0116947308749,43.7902937446228,1.3));
#1842=CARTESIAN_POINT('Origin',(50.0116947308749,37.1664423265565,1.3));
#1843=CARTESIAN_POINT('',(50.0116947308749,18.6485213492941,0.800000000000001));
#1844=CARTESIAN_POINT('Origin',(27.8407531458334,-192.097405249507,1.3));
#1845=CARTESIAN_POINT('',(50.0116947308749,1.81251127451814,0.800000000000001));
#1846=CARTESIAN_POINT('',(50.0116947308749,1.81251127451814,1.3));
#1847=CARTESIAN_POINT('',(47.9567815027467,2.03644491646893,0.800000000000001));
#1848=CARTESIAN_POINT('Origin',(27.8407531458334,-192.097405249507,0.800000000000001));
#1849=CARTESIAN_POINT('',(47.9567815027467,2.03644491646893,1.3));
#1850=CARTESIAN_POINT('Origin',(0.,0.,1.3));
#1851=CARTESIAN_POINT('',(23.7331593216789,41.7221421862757,0.800000000000001));
#1852=CARTESIAN_POINT('Origin',(0.,0.,0.800000000000001));
#1853=CARTESIAN_POINT('',(23.7331593216789,41.7221421862757,1.3));
#1854=CARTESIAN_POINT('Origin',(-18.4978091286869,-166.627886953301,1.3));
#1855=CARTESIAN_POINT('',(50.0116947308749,34.6173296845982,0.800000000000001));
#1856=CARTESIAN_POINT('Origin',(-18.4978091286869,-166.627886953301,0.800000000000001));
#1857=CARTESIAN_POINT('',(50.0116947308749,34.6173296845982,1.3));
#1858=CARTESIAN_POINT('Origin',(50.0116947308749,1.81251127451814,1.3));
#1859=CARTESIAN_POINT('',(50.0116947308749,0.971555823274919,0.800000000000001));
#1860=CARTESIAN_POINT('Origin',(0.47169472782965,0.130600372031688,0.800000000000001));
#1861=CARTESIAN_POINT('Origin',(0.47169472782965,0.130600372031688,0.800000000000001));
#1862=CARTESIAN_POINT('Origin',(0.47169472782965,0.130600372031688,0.800000000000001));
#1863=CARTESIAN_POINT('Origin',(0.47169472782965,0.130600372031688,0.800000000000001));
#1864=CARTESIAN_POINT('Origin',(0.47169472782965,0.130600372031688,0.800000000000001));
#1865=CARTESIAN_POINT('Origin',(0.47169472782965,0.130600372031688,0.800000000000001));
#1866=CARTESIAN_POINT('',(45.6766341789332,8.88178419700125E-15,0.800000000000001));
#1867=CARTESIAN_POINT('Origin',(0.,0.,0.800000000000001));
#1868=CARTESIAN_POINT('Origin',(0.47169472782965,0.130600372031688,0.800000000000001));
#1869=CARTESIAN_POINT('Origin',(0.,0.,0.));
#1870=CARTESIAN_POINT('',(45.6766341789332,8.88178419700125E-15,0.));
#1871=CARTESIAN_POINT('',(45.6766341789332,5.59377438430552E-15,0.));
#1872=CARTESIAN_POINT('Origin',(0.,0.,0.));
#1873=CARTESIAN_POINT('Origin',(-51.4683052752156,44.5329344317427,0.));
#1874=CARTESIAN_POINT('',(-51.4683052752156,44.5329344317427,0.));
#1875=CARTESIAN_POINT('',(-51.4683052752153,-44.2717336876793,0.));
#1876=CARTESIAN_POINT('',(-51.4683052752156,44.5329344317427,0.));
#1877=CARTESIAN_POINT('',(-51.4683052752153,-44.2717336876793,0.));
#1878=CARTESIAN_POINT('',(-51.4683052752156,44.5329344317427,0.));
#1879=CARTESIAN_POINT('Origin',(-43.7106393318818,52.2906003750765,0.));
#1880=CARTESIAN_POINT('',(-43.7106393318818,52.2906003750765,0.));
#1881=CARTESIAN_POINT('',(-43.7106393318818,52.2906003750765,0.));
#1882=CARTESIAN_POINT('',(-43.7106393318818,52.2906003750765,0.));
#1883=CARTESIAN_POINT('Origin',(45.7540287875408,52.2906003750765,0.));
#1884=CARTESIAN_POINT('',(45.7540287875408,52.2906003750765,0.));
#1885=CARTESIAN_POINT('',(45.7540287875408,52.2906003750765,0.));
#1886=CARTESIAN_POINT('',(45.7540287875408,52.2906003750765,0.));
#1887=CARTESIAN_POINT('Origin',(52.4116947308749,45.6329344317421,0.));
#1888=CARTESIAN_POINT('',(52.4116947308749,45.6329344317421,0.));
#1889=CARTESIAN_POINT('',(52.4116947308749,45.6329344317421,0.));
#1890=CARTESIAN_POINT('',(52.4116947308749,45.6329344317421,0.));
#1891=CARTESIAN_POINT('Origin',(52.4116947308749,-45.3717336876801,0.));
#1892=CARTESIAN_POINT('',(52.4116947308749,-45.3717336876801,0.));
#1893=CARTESIAN_POINT('',(52.4116947308749,-45.3717336876801,0.));
#1894=CARTESIAN_POINT('',(52.4116947308749,-45.3717336876801,0.));
#1895=CARTESIAN_POINT('Origin',(45.7540287875411,-52.0293996310131,0.));
#1896=CARTESIAN_POINT('',(45.7540287875411,-52.0293996310131,0.));
#1897=CARTESIAN_POINT('',(45.7540287875411,-52.0293996310131,0.));
#1898=CARTESIAN_POINT('',(45.7540287875411,-52.0293996310131,0.));
#1899=CARTESIAN_POINT('Origin',(-43.7106393318815,-52.0293996310131,0.));
#1900=CARTESIAN_POINT('',(-43.7106393318815,-52.0293996310131,0.));
#1901=CARTESIAN_POINT('',(-43.7106393318815,-52.0293996310131,0.));
#1902=CARTESIAN_POINT('',(-43.7106393318815,-52.0293996310131,0.));
#1903=CARTESIAN_POINT('Origin',(-51.4683052752153,-44.2717336876793,0.));
#1904=CARTESIAN_POINT('',(-51.4683052752153,-44.2717336876793,0.));
#1905=CARTESIAN_POINT('Origin',(0.47169472782965,0.130600372031688,0.));
#1906=UNCERTAINTY_MEASURE_WITH_UNIT(LENGTH_MEASURE(0.01),#1910,
'DISTANCE_ACCURACY_VALUE',
'Maximum model space distance between geometric entities at asserted c
onnectivities');
#1907=UNCERTAINTY_MEASURE_WITH_UNIT(LENGTH_MEASURE(0.01),#1910,
'DISTANCE_ACCURACY_VALUE',
'Maximum model space distance between geometric entities at asserted c
onnectivities');
#1908=(
GEOMETRIC_REPRESENTATION_CONTEXT(3)
GLOBAL_UNCERTAINTY_ASSIGNED_CONTEXT((#1906))
GLOBAL_UNIT_ASSIGNED_CONTEXT((#1910,#1912,#1913))
REPRESENTATION_CONTEXT('','3D')
);
#1909=(
GEOMETRIC_REPRESENTATION_CONTEXT(3)
GLOBAL_UNCERTAINTY_ASSIGNED_CONTEXT((#1907))
GLOBAL_UNIT_ASSIGNED_CONTEXT((#1910,#1912,#1913))
REPRESENTATION_CONTEXT('','3D')
);
#1910=(
LENGTH_UNIT()
NAMED_UNIT(*)
SI_UNIT(.MILLI.,.METRE.)
);
#1911=(
LENGTH_UNIT()
NAMED_UNIT(*)
SI_UNIT($,.METRE.)
);
#1912=(
NAMED_UNIT(*)
PLANE_ANGLE_UNIT()
SI_UNIT($,.RADIAN.)
);
#1913=(
NAMED_UNIT(*)
SI_UNIT($,.STERADIAN.)
SOLID_ANGLE_UNIT()
);
#1914=SHAPE_DEFINITION_REPRESENTATION(#1915,#1916);
#1915=PRODUCT_DEFINITION_SHAPE('',$,#1918);
#1916=SHAPE_REPRESENTATION('',(#1138),#1908);
#1917=PRODUCT_DEFINITION_CONTEXT('part definition',#1922,'design');
#1918=PRODUCT_DEFINITION('2026-09-22-08-08-12-420',
'Outer Dial Face (Myth Made, modded)',#1919,#1917);
#1919=PRODUCT_DEFINITION_FORMATION('',$,#1924);
#1920=PRODUCT_RELATED_PRODUCT_CATEGORY(
'Outer Dial Face (Myth Made, modded)',
'Outer Dial Face (Myth Made, modded)',(#1924));
#1921=APPLICATION_PROTOCOL_DEFINITION('international standard',
'automotive_design',2009,#1922);
#1922=APPLICATION_CONTEXT(
'Core Data for Automotive Mechanical Design Process');
#1923=PRODUCT_CONTEXT('part definition',#1922,'mechanical');
#1924=PRODUCT('2026-09-22-08-08-12-420',
'Outer Dial Face (Myth Made, modded)',$,(#1923));
#1925=PRESENTATION_STYLE_ASSIGNMENT((#1926));
#1926=SURFACE_STYLE_USAGE(.BOTH.,#1927);
#1927=SURFACE_SIDE_STYLE('',(#1928));
#1928=SURFACE_STYLE_FILL_AREA(#1929);
#1929=FILL_AREA_STYLE('Steel - Satin',(#1930));
#1930=FILL_AREA_STYLE_COLOUR('Steel - Satin',#1931);
#1931=COLOUR_RGB('Steel - Satin',0.627450980392157,0.627450980392157,0.627450980392157);
ENDSEC;
END-ISO-10303-21;
